<svg width="64" height="64" viewBox="0 0 64 64" fill="none" xmlns="http://www.w3.org/2000/svg">
<path fill-rule="evenodd" clip-rule="evenodd" d="M23.9191 9.00144C23.0274 9.00144 22.3053 9.72057 22.3053 10.6065V17.3419C22.3053 18.7054 23.4171 19.8114 24.7878 19.8114H29.629C31.0011 19.8114 32.1129 20.9175 32.1129 22.2809V29.6031C32.1129 30.968 33.2232 32.0741 34.5953 32.0741H41.9564C43.327 32.0741 44.4388 33.1787 44.4388 34.5436V39.3589C44.4388 40.7238 45.5491 41.8298 46.9212 41.8298H53.6883C54.58 41.8298 55.302 41.1107 55.302 40.2233V10.608C55.302 9.71913 54.5814 9 53.6897 9H23.9191V9.00144ZM22.1385 40.288V24.9245C22.1379 24.5992 22.0733 24.2773 21.9481 23.9771C21.823 23.6769 21.6399 23.4043 21.4094 23.1749C21.1788 22.9456 20.9053 22.7639 20.6044 22.6404C20.3036 22.5168 19.9813 22.4538 19.6561 22.455H10.9157C10.024 22.455 9.302 23.1741 9.302 24.0601V53.1605C9.30353 53.5872 9.47431 53.9959 9.77686 54.2968C10.0794 54.5977 10.489 54.7663 10.9157 54.7656H40.6849C41.5766 54.7656 42.2987 54.0464 42.2987 53.1605V45.2299C42.2987 43.865 41.1869 42.7589 39.8162 42.7589H24.621C23.9643 42.7605 23.334 42.5012 22.8685 42.0381C22.403 41.575 22.1404 40.946 22.1385 40.2894" fill="#0090FF"/>
</svg>
