<svg width="261" height="120" viewBox="0 0 261 120" fill="none" xmlns="http://www.w3.org/2000/svg">
<path d="M97 60V26H131H165V60V94H131H97V60ZM140.285 75.8395L149.417 70.5706V60V49.4294L140.285 44.1605C135.262 41.2627 131.084 38.8917 131 38.8917C130.916 38.8917 126.738 41.2627 121.715 44.1605L112.583 49.4294V51.5V53.5706L121.715 58.8395C126.738 61.7373 130.917 64.1083 131.001 64.1083C131.086 64.1083 133.584 62.7058 136.554 60.9917C139.523 59.2775 141.975 57.875 142.001 57.875C142.028 57.875 142.049 59.8034 142.048 62.1604L142.045 66.4458L136.635 69.5625C133.66 71.2767 131.156 72.6972 131.072 72.7192C130.988 72.7412 128.486 71.3546 125.512 69.6379C122.538 67.9212 120.036 66.5167 119.952 66.5167C119.679 66.5167 112.853 70.5144 112.898 70.6483C112.953 70.8125 130.723 81.0907 130.97 81.1008C131.07 81.105 135.262 78.7373 140.285 75.8395H140.285ZM127.213 53.6484C125.247 52.5058 123.638 51.539 123.638 51.5C123.637 51.3752 130.779 47.3208 131 47.3208C131.22 47.3208 138.363 51.3749 138.363 51.5C138.363 51.6114 131.244 55.6764 131.003 55.7026C130.885 55.7155 129.179 54.7911 127.213 53.6484Z" fill="white"/>
</svg>
