<svg width="261" height="120" viewBox="0 0 261 120" fill="none" xmlns="http://www.w3.org/2000/svg">
<path fill-rule="evenodd" clip-rule="evenodd" d="M136.232 60.5978C136.222 60.5886 136.215 60.5827 136.21 60.5783C136.219 60.5864 136.232 60.5978 136.232 60.5978ZM178.019 56.8836C178.049 56.8734 178.04 56.8765 178.019 56.8836V56.8836ZM103.6 39.005L107.109 38.6869C107.773 38.6266 108.22 38.1549 108.22 37.5132V35.9037C108.22 35.3871 107.876 34.8971 107.109 34.9668L103.6 35.2847C102.833 35.3542 102.489 35.9066 102.489 36.4231V38.0326C102.489 38.6744 102.936 39.0652 103.6 39.005ZM169.163 52.7694C170.394 53.7154 171.908 54.1167 173.665 53.9575C176.099 53.737 177.942 53.3334 179.311 52.7252C179.785 52.5094 180.057 52.1109 180.057 51.631V50.2473C180.059 49.3425 179.305 49.1308 178.771 49.3129C177.48 49.7405 175.812 50.0426 173.665 50.237C173.079 50.2902 172.576 50.1304 172.171 49.7571C171.764 49.3819 171.558 48.9087 171.558 48.3453V41.6513C171.558 41.0905 171.764 40.5774 172.17 40.1311C172.578 39.6846 173.08 39.4332 173.665 39.3802C175.809 39.186 177.526 39.1858 178.763 39.3782C179.372 39.476 180.057 39.1096 180.057 38.2119V36.8278C180.057 36.3729 179.814 36.0288 179.343 35.8655C177.982 35.5049 176.125 35.437 173.665 35.6599C171.91 35.819 170.382 36.5069 169.126 37.7026C167.891 38.8741 167.237 40.3768 167.237 42.0428V48.7367C167.237 50.4301 167.884 51.7853 169.163 52.7694ZM112.574 59.4937L114.672 59.3036C115.336 59.2433 115.783 58.771 115.783 58.1297V46.6749C115.783 46.1387 115.995 45.6202 116.397 45.1525C116.802 44.7085 117.304 44.4571 117.892 44.4038L120.713 44.1482C121.278 44.0971 121.763 44.2633 122.17 44.6599C122.578 45.0348 122.783 45.5003 122.783 46.0407V57.4954C122.783 58.1368 123.232 58.5279 123.896 58.4677L126.03 58.2744C126.135 58.2648 126.238 58.2316 126.334 58.1803C126.97 57.8407 127.105 57.4085 127.105 57.1039V45.6491C127.105 45.1107 127.316 44.5924 127.719 44.1265C128.124 43.6824 128.626 43.4311 129.213 43.378L132.033 43.1224C132.604 43.0707 133.093 43.2368 133.528 43.6308C133.936 44.0057 134.142 44.471 134.142 45.0114V56.4663C134.142 57.1075 134.589 57.4988 135.254 57.4386L137.351 57.2487C138.015 57.1884 138.462 56.7161 138.462 56.0748V44.62C138.462 42.9144 137.811 41.5678 136.537 40.6233C135.304 39.6729 133.788 39.2739 132.033 39.4329L129.213 39.6885C127.55 39.8392 126.118 40.4376 124.944 41.47C123.775 40.6499 122.355 40.3099 120.713 40.4587L117.892 40.7144C116.153 40.8719 114.628 41.5441 113.352 42.7242C112.117 43.8963 111.463 45.3981 111.463 47.0665V58.5213C111.463 59.1627 111.909 59.5539 112.574 59.4937ZM136.282 60.6402C136.476 60.8227 136.674 61.0632 136.877 61.3619C137.08 61.6608 137.289 61.9724 137.506 62.297L145.224 73.3427V61.5515C145.224 60.7854 145.389 60.197 145.718 59.7865C145.726 59.7758 145.736 59.7665 145.745 59.756L136.232 60.5978C136.249 60.6123 136.266 60.6252 136.282 60.6402ZM106.422 41.7537L104.288 41.9472C103.52 42.0167 103.176 42.571 103.176 43.0881V59.2723C103.176 59.9136 103.623 60.3049 104.288 60.2447L106.422 60.0513C107.086 59.9912 107.533 59.5188 107.533 58.8774V42.6932C107.533 42.1762 107.189 41.6841 106.422 41.7537ZM140.617 40.0308C140.867 39.894 141.073 39.7077 141.239 39.4963L145.483 43.8713L142.952 44.7282C142.871 44.4825 142.726 44.2613 142.512 44.0965C141.886 43.6141 140.945 43.7678 140.405 44.4411C139.868 45.1143 139.937 46.051 140.562 46.5337C141.186 47.0156 142.13 46.8599 142.667 46.1874C142.815 46.003 142.913 45.7994 142.969 45.5885L145.509 46.7719C145.509 46.8223 145.501 46.8716 145.501 46.9218C145.501 52.3609 149.909 56.371 155.346 55.8783C160.783 55.3856 165.191 50.5766 165.191 45.1376C165.191 39.6985 160.783 35.6888 155.346 36.1815C153.308 36.3663 151.414 37.1575 149.844 38.3614L147.699 36.8746C147.857 36.6268 147.96 36.342 147.975 36.0374C148.017 35.1579 147.34 34.4728 146.463 34.508C145.587 34.5465 144.842 35.2916 144.799 36.173C144.758 37.0525 145.434 37.7375 146.31 37.6992C146.55 37.69 146.778 37.6233 146.987 37.5191L147.456 40.465L141.656 38.4956C141.694 38.1724 141.652 37.8428 141.508 37.5436C141.09 36.6707 140.013 36.369 139.102 36.8689C138.192 37.3688 137.793 38.4835 138.212 39.3563C138.629 40.2293 139.709 40.5321 140.617 40.0308ZM157.531 49.3864C158.253 49.3211 158.836 49.8553 158.836 50.5742C158.836 51.296 158.253 51.9338 157.531 51.9993C156.809 52.0647 156.226 51.5324 156.226 50.8107C156.226 50.0918 156.809 49.452 157.531 49.3864ZM152.991 49.798C153.713 49.7325 154.297 50.2666 154.297 50.9854C154.297 51.7071 153.713 52.3451 152.991 52.4106C152.269 52.4761 151.686 51.9437 151.686 51.2222C151.686 50.5032 152.269 49.8632 152.991 49.798ZM162.982 58.2263C162.949 58.2251 162.934 58.2245 162.929 58.2244C162.936 58.2247 162.961 58.2255 162.982 58.2263ZM159.999 61.5479L157.35 61.7667V75.2215L160.391 74.9703C161.058 74.9151 161.581 74.8539 161.959 74.7867C162.338 74.7193 162.73 74.5968 163.135 74.419C163.541 74.2414 163.892 74.0096 164.19 73.7234C165.533 72.4765 166.204 70.465 166.204 67.6884C166.204 65.7323 165.909 64.2916 165.319 63.3668C164.728 62.442 164 61.8825 163.135 61.6878C162.271 61.4935 161.225 61.4466 159.999 61.5479ZM117.094 73.9897L123.014 73.5006L120.027 65.5665L117.094 73.9897ZM188.193 60.3728C188 60.3728 187.993 60.5102 187.993 60.5102C187.994 60.527 187.995 60.5438 187.995 60.5607C187.995 61.0387 187.826 61.483 187.488 61.8939C187.15 62.3052 186.729 62.5315 186.224 62.5731C185.765 62.611 185.415 62.525 185.176 62.3147C184.938 62.1047 184.678 61.7497 184.399 61.2498C184.039 60.5316 183.606 59.9835 183.101 59.6059C182.597 59.2285 181.786 59.0857 180.668 59.1781C179.632 59.2639 178.796 59.5606 178.161 60.068C177.525 60.576 177.207 61.1497 177.207 61.7898C177.207 62.1866 177.316 62.5201 177.532 62.7908C177.748 63.0615 178.046 63.2848 178.424 63.4607C178.803 63.6371 179.186 63.7677 179.573 63.8528C179.961 63.938 180.601 64.0565 181.493 64.208C182.61 64.3774 183.622 64.5821 184.528 64.8228C185.433 65.0636 186.204 65.3831 186.839 65.7813C187.474 66.1796 187.97 66.7088 188.326 67.369C188.346 67.4061 188.363 67.4456 188.382 67.4837V60.5103C188.382 60.51 188.357 60.3728 188.193 60.3728ZM154.88 58.8861C154.8 58.9112 154.722 58.9379 154.649 58.9678L154.88 58.9472V58.8861ZM163.015 58.2273C163.005 58.227 163.001 58.2268 162.993 58.2266C163.005 58.227 163.015 58.2273 163.015 58.2273ZM185.224 75.6368C184.034 76.2761 182.624 76.6631 180.993 76.7977C179.037 76.9593 177.424 76.7228 176.153 76.0886C175.252 75.6311 174.52 74.9818 173.957 74.1403C173.393 73.2988 173.112 72.4589 173.112 71.6205C173.112 71.1335 173.281 70.7029 173.618 70.3278C173.956 69.9529 174.387 69.7437 174.909 69.7005C175.333 69.6656 175.691 69.7712 175.984 70.0174C176.277 70.2637 176.527 70.6443 176.734 71.1588C176.986 71.7692 177.259 72.2741 177.552 72.6735C177.845 73.0733 178.257 73.3884 178.789 73.6193C179.321 73.8504 180.019 73.9301 180.884 73.8587C182.074 73.7603 183.04 73.4034 183.784 72.7875C184.528 72.1717 184.899 71.4493 184.899 70.6197C184.899 69.9619 184.699 69.4444 184.298 69.0671C183.896 68.6901 183.378 68.4196 182.743 68.2558C182.108 68.0919 181.258 67.9322 180.195 67.7766C178.771 67.561 177.579 67.2692 176.619 66.9023C175.66 66.5353 174.898 65.9897 174.335 65.2654C173.771 64.5411 173.49 63.6068 173.49 62.4618C173.49 61.3711 173.787 60.3774 174.382 59.4809C174.977 58.5845 175.837 57.862 176.964 57.3137C177.28 57.1601 177.613 57.0249 177.959 56.9045L163.015 58.2273C163.562 58.2451 164.067 58.2933 164.528 58.3747C165.501 58.5467 166.384 58.9471 167.177 59.5757C169.241 61.1722 170.273 63.7735 170.273 67.3792C170.273 68.5691 170.169 69.6641 169.962 70.6637C169.754 71.6635 169.435 72.5757 169.002 73.4001C168.569 74.2246 168.015 74.9759 167.339 75.6536C166.807 76.1757 166.226 76.6066 165.595 76.9472C164.964 77.288 164.286 77.5468 163.561 77.7237C162.835 77.9008 162.018 78.0269 161.107 78.1022L155.876 78.5344C155.146 78.5947 154.596 78.5298 154.227 78.3393C153.857 78.1491 153.616 77.8578 153.503 77.4661C153.391 77.0744 153.334 76.5584 153.334 75.9183V61.3817C153.334 60.5162 153.528 59.8738 153.916 59.4542C154.104 59.2509 154.349 59.0895 154.648 58.9679L148.372 59.5236C148.386 59.5374 148.401 59.5494 148.414 59.5638C148.747 59.9196 148.914 60.4804 148.914 61.2465V76.8378C148.914 78.5777 148.193 79.5071 146.751 79.6262C146.391 79.656 146.067 79.6308 145.778 79.5512C145.49 79.4712 145.219 79.3291 144.967 79.1245C144.715 78.9201 144.48 78.6759 144.264 78.3915C144.048 78.1073 143.832 77.8166 143.615 77.5188L136.086 66.5928V78.2085C136.086 78.9657 135.91 79.5527 135.559 79.9692C135.207 80.3858 134.756 80.6171 134.207 80.6625C133.639 80.7093 133.184 80.5508 132.842 80.1868C132.499 79.823 132.328 79.2672 132.328 78.5189V63.225C132.328 62.576 132.4 62.0609 132.544 61.679C132.667 61.3777 132.849 61.1105 133.088 60.876L121.966 61.8606C122.114 61.9833 122.245 62.1221 122.359 62.2771C122.588 62.5917 122.782 62.9341 122.94 63.304C123.097 63.6744 123.298 64.1692 123.541 64.7892L128.719 77.1535C129.124 78.0937 129.327 78.7845 129.327 79.2264C129.327 79.6861 129.135 80.1233 128.753 80.5382C128.37 80.9528 127.908 81.1826 127.367 81.2273C127.051 81.2534 126.781 81.2192 126.556 81.1253C126.331 81.0311 126.142 80.8939 125.988 80.7124C125.835 80.5313 125.671 80.2474 125.495 79.8606C125.319 79.4743 125.168 79.1327 125.042 78.8365L124.096 76.4268L116.039 77.0922L115.093 79.7126C114.723 80.7349 114.408 81.4303 114.147 81.7987C113.885 82.167 113.457 82.3763 112.862 82.4253C112.357 82.467 111.911 82.319 111.524 81.9815C111.136 81.6439 110.943 81.2406 110.943 80.7719C110.943 80.5014 110.988 80.2183 111.078 79.9222C111.168 79.6264 111.317 79.2129 111.524 78.6821L116.593 65.39C116.737 65.0086 116.911 64.5503 117.114 64.0151C117.317 63.4801 117.533 63.0318 117.762 62.6701C117.871 62.4999 117.996 62.3434 118.136 62.1995L105.131 63.3507C105.241 63.383 105.349 63.4178 105.454 63.457C106.076 63.6672 106.626 63.9957 107.104 64.443C107.581 64.8904 107.944 65.4263 108.192 66.0502C108.44 66.6743 108.564 67.3469 108.564 68.068C108.564 69.5465 108.147 70.7619 107.313 71.7143C106.479 72.6667 105.215 73.3975 103.521 73.9071C104.233 74.2269 104.914 74.7298 105.563 75.4152C106.211 76.1008 106.79 76.8396 107.3 77.6313C107.809 78.4234 108.205 79.1434 108.489 79.7914C108.773 80.4397 108.915 80.89 108.915 81.1421C108.915 81.4037 108.832 81.6697 108.665 81.9405C108.498 82.2112 108.271 82.4328 107.982 82.6053C107.694 82.7778 107.36 82.8798 106.982 82.9112C106.531 82.9484 106.153 82.8735 105.846 82.6871C105.54 82.5006 105.276 82.254 105.056 81.9478C104.835 81.6416 104.535 81.1885 104.157 80.5888L102.548 78.0441C101.971 77.1093 101.455 76.4036 101 75.9274C100.545 75.4511 100.083 75.1378 99.6147 74.9871C99.146 74.8364 98.5556 74.7906 97.8438 74.8493L96.438 74.9656V81.3346C96.438 82.1729 96.2532 82.8059 95.8838 83.2329C95.5142 83.6601 95.0322 83.8983 94.4374 83.9474C93.7974 84.0003 93.3019 83.8338 92.9503 83.4481C92.5989 83.0627 92.4233 82.4687 92.4233 81.6663V66.4132C92.4233 65.5477 92.6168 64.9053 93.0044 64.4855C93.0264 64.4618 93.0519 64.4406 93.0753 64.4179L85.1413 65.1202C85.3317 65.189 85.5155 65.268 85.6913 65.3601C86.1598 65.6008 86.5744 65.9206 86.935 66.3188C87.2953 66.7174 87.5702 67.1681 87.7595 67.6706C87.9488 68.1733 88.0435 68.7133 88.0435 69.2901C88.0435 71.2735 87.0519 72.8066 85.0695 73.8899C87.6738 74.5042 88.9762 76.0103 88.9762 78.4081C88.9762 79.517 88.6922 80.5389 88.1245 81.4736C87.5567 82.4087 86.7908 83.1278 85.8266 83.631C85.2228 83.9334 84.5288 84.1688 83.7448 84.337C82.9607 84.5057 82.0459 84.6329 81.0005 84.7193L74.9444 85.2195C74.0701 85.2917 73.4461 85.1472 73.0722 84.7858C73.0362 84.751 73.0024 84.7131 72.9698 84.6736V85.4587C72.9698 85.4587 73.0447 85.6033 73.1905 85.6415C78.1573 86.944 165.297 109.797 165.297 109.797L188.382 73.4031V72.2871C188.257 72.5884 188.109 72.8826 187.934 73.1684C187.317 74.1752 186.413 74.9977 185.224 75.6368ZM188.414 72.2103C188.406 72.23 188.397 72.2517 188.387 72.2759C188.393 72.2625 188.403 72.2381 188.414 72.2103ZM196.111 35.2244C194.878 34.2741 193.362 33.8751 191.607 34.034C189.409 34.2331 187.754 34.5212 186.659 34.9006C185.879 35.199 185.795 35.7826 185.795 36.0191V37.4662C185.795 37.7469 185.869 37.9783 186.013 38.1538C186.199 38.3761 186.475 38.4821 186.794 38.4532C186.846 38.4485 186.974 38.4259 187.026 38.4104C187.874 38.1518 189.415 37.9221 191.607 37.7235C192.172 37.6723 192.658 37.8387 193.065 38.2352C193.474 38.6099 193.679 39.0754 193.679 39.6158V40.5729L188.787 41.0162C187.028 41.1755 185.502 41.8613 184.246 43.0569C182.994 44.2481 182.358 45.6976 182.358 47.3663C182.358 49.0571 183.006 50.4135 184.283 51.3993C185.515 52.3449 187.03 52.7461 188.787 52.5871L196.924 51.8498C197.558 51.7924 198 51.3099 198 50.6792V39.2242C198 37.5583 197.346 36.1742 196.111 35.2244ZM193.679 48.4231L188.787 48.8664C188.2 48.9196 187.698 48.7597 187.293 48.3864C186.885 48.0113 186.678 47.5382 186.678 46.9747C186.678 46.4339 186.885 45.9309 187.293 45.4849C187.698 45.0407 188.2 44.7893 188.787 44.7362L193.679 44.2927V48.4231ZM96.438 72.0854L100.034 71.7886C100.998 71.7089 101.809 71.5586 102.467 71.3372C103.125 71.1162 103.627 70.7908 103.974 70.3608C104.321 69.9312 104.495 69.3645 104.495 68.6613C104.495 68.1116 104.355 67.6384 104.076 67.2422C103.796 66.8462 103.409 66.565 102.913 66.3985C102.444 66.2391 101.521 66.216 100.142 66.3299L96.4378 66.6357V72.0854H96.438ZM83.8528 76.3568C83.15 75.9642 82.0999 75.8255 80.7032 75.9408L76.5262 76.2859V82.0732L80.8384 81.7171C83.5509 81.493 84.9074 80.403 84.9074 78.4466C84.9072 77.4461 84.5558 76.7496 83.8528 76.3568ZM84.7182 62.0181L86.8164 61.8279C87.4807 61.7677 87.9265 61.2955 87.9265 60.6541V49.1993C87.9265 48.6632 88.1376 48.1447 88.5413 47.6766C88.9459 47.2327 89.4482 46.9813 90.0349 46.9282L92.8569 46.6725C93.4218 46.6213 93.9063 46.7878 94.3138 47.1841C94.7219 47.5591 94.9278 48.0244 94.9278 48.5648V60.0196C94.9278 60.6609 95.3748 61.0522 96.0392 60.9921L98.1743 60.7985C98.8067 60.7413 99.2491 60.2586 99.2491 59.628V48.1732C99.2491 46.4678 98.5976 45.1213 97.3238 44.1767C96.0912 43.2263 94.5885 42.8261 92.8569 42.9829L90.0349 43.2386C88.2973 43.3962 86.7721 44.0685 85.4958 45.2486C84.2603 46.4206 83.6067 47.9225 83.6067 49.5909V61.0457C83.6069 61.6868 84.0539 62.0783 84.7182 62.0181ZM85.1413 65.1202C85.1328 65.1172 85.1283 65.1156 85.1217 65.1132C85.1327 65.117 85.1413 65.1202 85.1413 65.1202ZM76.5261 73.4055L80.203 73.102C81.2033 73.0194 81.9759 72.8608 82.5213 72.6264C83.0665 72.3921 83.4833 71.9972 83.7717 71.4414C83.9969 71.044 84.1097 70.6111 84.1097 70.1424C84.1097 69.1417 83.7535 68.5065 83.0418 68.236C82.3299 67.9658 81.2439 67.8909 79.784 68.0114L76.5262 68.2805V73.4055H76.5261ZM79.6434 61.4048V49.95C79.6434 48.2841 78.99 46.9 77.7538 45.9502C76.5203 44.9999 75.0041 44.6009 73.25 44.7598C71.0523 44.9589 69.3965 45.247 68.3013 45.6264C67.521 45.9249 67.4372 46.5084 67.4372 46.7449V48.192C67.4372 48.4727 67.5115 48.7041 67.6553 48.8796C67.8407 49.1019 68.118 49.2079 68.4363 49.179C68.4887 49.1743 68.6167 49.1517 68.6679 49.1362C69.517 48.8775 71.0577 48.6479 73.25 48.4493C73.8143 48.3981 74.3007 48.5645 74.7084 48.961C75.1159 49.3359 75.3217 49.8012 75.3217 50.3416V51.2989L70.4296 51.742C68.6721 51.9013 67.145 52.5871 65.8898 53.7824C64.6358 54.9739 64 56.4235 64 58.092C64 59.7827 64.6482 61.1405 65.9264 62.1248C67.1579 63.0706 68.6728 63.4718 70.4296 63.3126L78.5674 62.5753C79.2011 62.518 79.6434 62.0354 79.6434 61.4048ZM75.3215 59.1489L70.4295 59.5922C69.8427 59.6454 69.3398 59.4856 68.9358 59.1122C68.5269 58.7372 68.3211 58.2639 68.3211 57.7005C68.3211 57.1597 68.5269 56.6567 68.9358 56.2107C69.3398 55.7667 69.8427 55.5152 70.4295 55.462L75.3215 55.0187V59.1489Z" fill="white"/>
</svg>
