<svg width="261" height="120" viewBox="0 0 261 120" fill="none" xmlns="http://www.w3.org/2000/svg">
<path fill-rule="evenodd" clip-rule="evenodd" d="M96.0088 38.0985H96.0264H96.044V57.896H96.0264C96.0279 57.9021 96.0294 57.9078 96.0309 57.9135C96.038 57.9406 96.044 57.9637 96.044 57.9929C96.044 58.3802 95.8591 58.7587 95.5422 58.9876L89.5827 63.3098V82.3502H89.5651C89.5666 82.3563 89.5682 82.362 89.5696 82.3677C89.5767 82.3948 89.5827 82.4179 89.5827 82.4471C89.5827 82.8344 89.3979 83.2129 89.081 83.4418L74.2042 94.2253C73.993 94.3749 73.7377 94.4541 73.4912 94.4541C73.2535 94.4541 73.0158 94.3837 72.8134 94.2429L56.537 83.2217C56.2377 83.0193 56.0528 82.6936 56.0176 82.3414H56V62.5615H56.0176C56.0161 62.5555 56.0146 62.5497 56.0131 62.5441C56.006 62.517 56 62.4939 56 62.4647C56 62.0686 56.1761 61.6988 56.5018 61.4612L62.4613 57.139V38.0985H62.4789C62.4774 38.0924 62.4759 38.0867 62.4744 38.0811C62.4673 38.054 62.4613 38.0308 62.4613 38.0017C62.4613 37.6143 62.6461 37.2358 62.963 37.0069L77.8398 26.2235C78.2447 25.933 78.7993 25.9242 79.2218 26.2059L95.4894 37.2182C95.7887 37.4207 95.9736 37.7464 96.0088 38.0985ZM92.7165 38.2569L78.5704 28.6795L65.7711 37.9488L79.9173 47.5351L92.7165 38.2569ZM73.4602 71.9863L59.3099 62.4119L63.6849 59.2429L77.831 68.8203L73.4602 71.9863ZM74.6972 90.9594L87.1532 81.9013V65.0615L80.6567 69.771C80.6479 69.7798 80.6215 69.7886 80.6215 69.7886L74.6972 74.0756V90.9594ZM81.1584 49.6126V66.3995L93.6144 57.4383V40.5809L81.1584 49.6126ZM181.158 47.6407H185.639V46.1531H188.06V47.6407H192.426V49.6302H188.06V51.0298H193.077V53.2305H190.393V53.9171C190.393 54.3133 190.586 54.5069 190.965 54.5069H193.192V56.3467H190.401C189.732 56.3467 189.275 56.1795 189.002 55.845C188.606 55.484 188.403 54.6214 188.403 53.2305H185.868C185.586 53.9083 185.225 54.4629 184.785 54.8943C184.213 55.5721 182.972 56.3731 181.053 57.2974L179.944 55.0703C181.141 54.7358 182.065 54.3397 182.708 53.8819C182.989 53.7059 183.254 53.4858 183.474 53.2305H180.278V51.0298H185.639V49.6302H181.158V47.6407ZM181.845 57.1742H185.639V54.859H188.06V57.1742H192.083V59.2517H188.06V60.7657C189.768 60.5897 191.343 60.352 192.769 60.0527V62.1654H194.248L192.963 61.0034C194.292 59.7534 195.269 58.4418 195.903 57.0509C195.146 56.1355 194.319 55.2112 193.421 54.2605L194.988 52.7464C195.577 53.3626 196.141 53.9612 196.669 54.5598C196.819 53.6531 196.915 52.6231 196.951 51.47H193.641V49.1548H196.977V46.1531H199.204V49.1548H202.998C202.919 51.646 202.884 53.9788 202.884 56.1355C202.884 57.3855 202.972 58.5034 203.139 59.4893C203.192 60.1055 203.298 60.4136 203.456 60.4136C203.667 60.4136 203.808 59.058 203.887 56.3467L206 57.6231C205.692 60.1936 205.34 61.7781 204.944 62.3767C204.565 62.9312 204.134 63.2041 203.658 63.2041C203.104 63.2041 202.62 63.0193 202.206 62.6407C201.678 62.183 201.299 61.4964 201.097 60.5633C200.815 59.5157 200.665 58.0369 200.665 56.1355C200.665 54.8502 200.63 53.2921 200.551 51.47H199.187C199.134 53.5122 198.887 55.2552 198.474 56.6988C199.231 57.6495 199.926 58.5826 200.551 59.4893L198.87 61.2147C198.447 60.5017 197.998 59.7974 197.496 59.102C196.854 60.2904 195.974 61.4964 194.873 62.7288L194.389 62.2798C194.16 63.0721 193.923 63.8027 193.676 64.4805H203.887C203.72 68.8555 203.386 71.4348 202.893 72.2006C202.4 72.9312 201.282 73.3009 199.556 73.3009C197.831 73.3009 196.695 73.2657 195.991 73.1865L195.305 70.396C196.713 70.6337 198.13 70.7569 199.556 70.7569C200.146 70.7569 200.498 70.5369 200.613 70.1055C200.762 69.8326 200.859 68.7675 200.894 66.9277H192.655C192.1 68.0193 191.528 68.8995 190.912 69.5686C189.354 71.3291 186.255 72.6495 181.616 73.521L180.621 70.8802C184.671 70.3872 187.382 69.4365 188.746 68.0281C189.072 67.7112 189.371 67.3414 189.662 66.9277H181.511V64.4893H190.947C191.211 63.8379 191.449 63.1425 191.66 62.4119C189.345 62.852 185.806 63.2657 181.053 63.6619L180.736 61.2235C182.461 61.1883 184.099 61.109 185.639 60.9858V59.2605H181.845V57.183V57.1742ZM148.676 54.0316H145.542L145.533 54.0404V56.5932H148.667V66.0386C147.505 66.47 146.361 66.7693 145.217 66.9277L145.533 70.0439C148.685 69.1284 151.546 67.896 154.116 66.3291V63.3274C153.148 63.9171 152.188 64.4541 151.238 64.9295V56.5844H154.002V54.0316H151.238V46.2499H148.676V54.0316ZM164.275 46.4876L161.484 46.1619V46.1707C161.22 47.095 160.815 47.984 160.261 48.8115H154.468V61.3467H157.523C157.347 63.8995 156.757 65.8714 155.754 67.2534C154.662 68.7323 152.972 70.0175 150.674 71.0826L152.127 73.521C154.9 71.9541 156.845 70.2728 157.945 68.4682C159.143 66.6284 159.829 64.2517 159.996 61.3379H161.59V70.396C161.59 71.109 161.792 71.6812 162.215 72.1214C162.629 72.5175 163.201 72.7112 163.923 72.7112H167.831C168.931 72.7112 169.688 72.5439 170.111 72.2094C170.586 71.8925 170.938 70.8274 171.167 69.0052L168.94 68.3186C168.843 69.4893 168.685 70.1495 168.456 70.308C168.245 70.4488 167.928 70.5193 167.488 70.5193H164.812C164.222 70.5193 163.931 70.2552 163.931 69.7182V68.7059C166.141 68.3538 167.831 67.9576 169.011 67.5175C169.107 67.72 169.187 67.9488 169.266 68.2041L171.062 67.3767C170.586 66.109 170.023 64.9119 169.38 63.7851L167.611 64.3749C167.857 64.8062 168.095 65.2904 168.324 65.8274C167.796 65.9858 167.224 66.1178 166.616 66.2147C167.092 65.0263 167.461 63.7499 167.725 62.3855L165.586 62.1742C165.331 63.7235 164.952 65.1671 164.442 66.514C164.292 66.514 164.125 66.5228 163.931 66.5404V61.3379H169.944V48.8027H163.016C163.553 48.0897 163.967 47.315 164.275 46.4876ZM160.806 54.0316H156.81V51.0298H160.806V54.0316ZM160.806 56.1355V59.1372H156.81V56.1355H160.806ZM163.148 54.0316V51.0298H167.629V54.0316H163.148ZM167.629 56.1355V59.1372H163.148V56.1355H167.629ZM136.783 47.0774H111.035V49.5157H112.373V73.1953H114.944V72.2446H136.783V69.8062H114.944V49.5157H136.783V47.0774ZM124.636 60.1759H116.282V67.9576H124.636V60.1759ZM122.408 62.4911V65.6425H118.5V62.4911H122.408ZM132.417 51.3555H118.843V58.4506H132.417V51.3555ZM129.961 53.6707V56.1355H121.29V53.6707H129.961ZM135.78 60.1759H126.968V67.9576H135.78V60.1759ZM133.526 62.4911V65.6425H129.195V62.4911H133.526ZM117.232 86.6991V86.6988C117.232 86.5953 117.23 86.4897 117.228 86.3819C117.226 86.2698 117.224 86.1553 117.224 86.0386C117.215 85.8186 117.188 85.5985 117.153 85.3784C117.118 85.1671 117.056 84.9559 116.977 84.771C116.898 84.5774 116.783 84.4101 116.643 84.2605C116.484 84.0932 116.273 83.97 116.026 83.8731C115.771 83.7763 115.525 83.7323 115.225 83.7323C114.926 83.7323 114.662 83.7763 114.442 83.8643C114.222 83.9436 114.011 84.102 113.817 84.3133V81.6724H112.364V89.6126H113.773V89.0668C113.975 89.2957 114.187 89.4453 114.415 89.5421C114.644 89.639 114.917 89.683 115.225 89.683C115.516 89.683 115.78 89.639 116.026 89.5421C116.273 89.4453 116.475 89.3221 116.643 89.1548C116.783 89.014 116.898 88.8467 116.977 88.6531C117.056 88.4594 117.118 88.2569 117.153 88.0369C117.197 87.8168 117.224 87.5967 117.224 87.3679C117.232 87.1391 117.232 86.9191 117.232 86.6991ZM115.745 86.0386C115.771 86.2411 115.78 86.4612 115.78 86.6988C115.78 86.9365 115.771 87.1566 115.745 87.359C115.727 87.5615 115.683 87.7376 115.613 87.8872C115.542 88.0369 115.445 88.1513 115.313 88.2393C115.181 88.3274 115.014 88.3714 114.794 88.3714C114.574 88.3714 114.407 88.3274 114.275 88.2393C114.143 88.1513 114.046 88.0369 113.975 87.8872C113.914 87.7376 113.87 87.5615 113.843 87.359C113.817 87.1566 113.808 86.9365 113.808 86.6988C113.808 86.4612 113.817 86.2411 113.843 86.0386C113.861 85.8362 113.905 85.6601 113.975 85.5105C114.046 85.3608 114.143 85.2464 114.275 85.1583C114.407 85.0703 114.574 85.0263 114.794 85.0263C115.014 85.0263 115.181 85.0703 115.313 85.1583C115.445 85.2464 115.542 85.3608 115.613 85.5105C115.674 85.6601 115.718 85.8362 115.745 86.0386ZM120.815 89.6038C120.516 89.6038 120.261 89.5597 120.049 89.4541C119.829 89.3573 119.653 89.2341 119.521 89.0756C119.38 88.9171 119.283 88.7411 119.222 88.5474C119.16 88.3538 119.125 88.1513 119.125 87.94V81.6636H120.577V87.852C120.577 88.0193 120.613 88.1513 120.692 88.2393C120.771 88.3274 120.903 88.3714 121.088 88.3714H121.643V89.595H120.815V89.6038ZM127.673 88.0193C127.761 87.6671 127.805 87.227 127.805 86.6988C127.805 86.1707 127.761 85.7393 127.673 85.3872C127.576 85.0439 127.408 84.727 127.144 84.4541C126.968 84.2605 126.731 84.0932 126.431 83.9524C126.132 83.8115 125.762 83.7411 125.34 83.7411C124.917 83.7411 124.548 83.8115 124.257 83.9524C123.967 84.0932 123.729 84.2605 123.553 84.4541C123.289 84.727 123.113 85.0351 123.025 85.3872C122.937 85.7305 122.893 86.1707 122.893 86.6988C122.893 87.227 122.937 87.6671 123.025 88.0193C123.121 88.3714 123.289 88.6883 123.553 88.9612C123.729 89.1548 123.967 89.3221 124.257 89.4629C124.548 89.6038 124.908 89.6742 125.34 89.6742C125.771 89.6742 126.132 89.6038 126.431 89.4629C126.731 89.3221 126.968 89.1548 127.144 88.9612C127.408 88.6883 127.585 88.3714 127.673 88.0193ZM126.299 85.8802C126.335 86.1178 126.352 86.3907 126.352 86.6988C126.352 87.0069 126.335 87.2798 126.299 87.5263C126.255 87.7728 126.167 87.9664 126.018 88.1161C125.85 88.2833 125.613 88.3714 125.34 88.3714C125.067 88.3714 124.838 88.2833 124.671 88.1161C124.521 87.9664 124.424 87.7728 124.389 87.5263C124.354 87.2798 124.336 86.9981 124.336 86.6988C124.336 86.3995 124.354 86.1178 124.389 85.8802C124.433 85.6425 124.521 85.4488 124.671 85.2992C124.838 85.1319 125.058 85.0439 125.34 85.0439C125.621 85.0439 125.85 85.1319 126.018 85.2992C126.167 85.44 126.264 85.6425 126.299 85.8802ZM133.121 89.4805C132.813 89.6126 132.461 89.6742 132.056 89.6742C131.766 89.6742 131.467 89.6302 131.158 89.5421C130.85 89.4541 130.569 89.2957 130.322 89.0668C130.076 88.8379 129.864 88.5386 129.706 88.1513C129.539 87.7728 129.46 87.2798 129.46 86.6988C129.46 86.1178 129.539 85.6249 129.706 85.2464C129.873 84.859 130.076 84.5597 130.322 84.3397C130.569 84.1196 130.85 83.9612 131.158 83.8731C131.467 83.7851 131.766 83.7411 132.056 83.7411C132.461 83.7411 132.813 83.8027 133.121 83.9259C133.43 84.0492 133.711 84.2517 133.975 84.5157L132.998 85.4928C132.849 85.3256 132.708 85.2112 132.567 85.1407C132.426 85.0703 132.259 85.0351 132.065 85.0351C131.722 85.0351 131.449 85.1583 131.238 85.4136C131.123 85.5545 131.044 85.7217 130.991 85.9242C130.938 86.1267 130.912 86.3819 130.912 86.69C130.912 87.2886 131.018 87.72 131.238 87.984C131.449 88.2393 131.722 88.3626 132.065 88.3626C132.259 88.3626 132.426 88.3274 132.567 88.2569C132.708 88.1865 132.857 88.0721 132.998 87.9048L133.975 88.8731C133.711 89.1372 133.43 89.3397 133.121 89.4717V89.4805ZM137.717 87.183L139.143 89.6038H140.93L138.702 86.1355L140.78 83.7939H139.028L137.1 86.1707V81.6636H135.648V89.6038H137.1V87.8784L137.717 87.183ZM144.266 89.6038C143.967 89.6038 143.711 89.5597 143.5 89.4541C143.289 89.3573 143.113 89.2341 142.972 89.0756C142.831 88.9171 142.734 88.7411 142.673 88.5474C142.611 88.3538 142.576 88.1513 142.576 87.94V85.0615H141.96V83.9612H142.576V82.2446H144.028V83.9612H145.049V85.0615H144.028V87.852C144.028 88.2041 144.195 88.3802 144.53 88.3802H145.058V89.6038H144.266ZM149.75 85.1231C149.864 85.1847 149.97 85.264 150.085 85.3784V85.3696L151.176 84.2693C150.974 84.0668 150.771 83.9259 150.551 83.8467C150.331 83.7675 150.085 83.7235 149.803 83.7235C149.486 83.7235 149.204 83.7851 148.94 83.9083C148.685 84.0316 148.482 84.1812 148.342 84.3485V83.7939H146.924V89.6038H148.377V86.1002C148.377 85.9154 148.412 85.7569 148.465 85.6249C148.526 85.4928 148.597 85.3784 148.685 85.2904C148.773 85.2024 148.87 85.1407 148.984 85.0967C149.099 85.0527 149.204 85.0351 149.319 85.0351C149.495 85.0351 149.636 85.0615 149.75 85.1231ZM153.35 87.1566C153.35 87.5351 153.456 87.8432 153.676 88.0897C153.896 88.3274 154.213 88.4506 154.618 88.4506C154.935 88.4506 155.19 88.4066 155.375 88.3186C155.56 88.2305 155.745 88.0897 155.93 87.9048L156.81 88.7675C156.66 88.9171 156.511 89.0492 156.361 89.1548C156.211 89.2693 156.053 89.3573 155.877 89.4365C155.701 89.5157 155.507 89.5774 155.305 89.6126C155.093 89.6566 154.864 89.6742 154.6 89.6742C154.257 89.6742 153.923 89.6302 153.606 89.5421C153.28 89.4541 152.998 89.2957 152.743 89.0668C152.496 88.8379 152.294 88.5386 152.144 88.1513C151.995 87.7728 151.915 87.2798 151.915 86.6988C151.915 86.2235 151.977 85.8009 152.1 85.4312C152.224 85.0615 152.4 84.7534 152.62 84.4981C152.84 84.2428 153.113 84.058 153.421 83.9259C153.729 83.7939 154.072 83.7323 154.451 83.7323C154.856 83.7323 155.208 83.8027 155.525 83.9436C155.842 84.0844 156.106 84.2781 156.326 84.5245C156.537 84.771 156.704 85.0615 156.819 85.396C156.933 85.7305 156.986 86.1002 156.986 86.5052V87.1478H153.35V87.1566ZM155.56 86.1619C155.56 86.0386 155.542 85.9242 155.525 85.8362C155.507 85.7393 155.472 85.6425 155.428 85.5369C155.349 85.3696 155.225 85.22 155.067 85.1055C154.908 84.9911 154.706 84.9295 154.46 84.9295C154.213 84.9295 154.011 84.9911 153.852 85.1055C153.694 85.22 153.57 85.3608 153.491 85.5369C153.447 85.6425 153.412 85.7393 153.394 85.8362C153.377 85.933 153.359 86.0386 153.359 86.1619H155.56ZM162.259 86.0914V89.6038L162.268 89.6126H163.72V85.8978C163.72 85.5721 163.685 85.2816 163.606 85.0087C163.526 84.7358 163.368 84.4805 163.13 84.2428C162.972 84.0756 162.769 83.9524 162.54 83.8643C162.303 83.7763 162.048 83.7323 161.757 83.7323C161.484 83.7323 161.229 83.7851 160.974 83.8819C160.718 83.9788 160.498 84.1284 160.305 84.3309V83.7939H158.887V89.6038H160.34V86.0914C160.34 85.889 160.366 85.7217 160.428 85.5897C160.489 85.4488 160.56 85.3432 160.657 85.264C160.745 85.1848 160.85 85.1231 160.965 85.0879C161.079 85.0527 161.194 85.0351 161.308 85.0351C161.423 85.0351 161.537 85.0527 161.651 85.0879C161.766 85.1231 161.863 85.1848 161.96 85.264C162.048 85.352 162.127 85.4576 162.18 85.5897C162.232 85.7217 162.259 85.889 162.259 86.0914ZM169.037 89.6038V89.058C168.835 89.2781 168.623 89.4365 168.403 89.5333C168.183 89.6302 167.91 89.6742 167.602 89.6742C167.32 89.6742 167.056 89.6302 166.801 89.5333C166.546 89.4365 166.343 89.3133 166.176 89.146C166.026 89.0052 165.912 88.8379 165.833 88.6443C165.754 88.4506 165.701 88.2481 165.657 88.0281C165.621 87.808 165.595 87.5879 165.586 87.359C165.586 87.2423 165.584 87.1256 165.582 87.0112L165.582 87.0106C165.58 86.9009 165.577 86.7933 165.577 86.69V86.6895C165.577 86.4784 165.577 86.2497 165.586 86.0298C165.586 85.8009 165.613 85.5809 165.657 85.3696C165.692 85.1495 165.754 84.9471 165.833 84.7622C165.912 84.5686 166.026 84.4013 166.176 84.2517C166.343 84.0844 166.546 83.9612 166.792 83.8643C167.039 83.7675 167.303 83.7235 167.593 83.7235C167.893 83.7235 168.157 83.7675 168.377 83.8555C168.606 83.9436 168.817 84.0932 169.011 84.3045V81.6636H170.463V89.6038H169.046H169.037ZM169.002 86.69C169.002 86.4524 168.993 86.2323 168.967 86.0298C168.94 85.8274 168.896 85.6513 168.826 85.5017C168.755 85.352 168.658 85.2376 168.526 85.1495C168.394 85.0615 168.227 85.0175 168.007 85.0175C167.787 85.0175 167.62 85.0615 167.488 85.1495C167.356 85.2376 167.259 85.352 167.188 85.5017C167.118 85.6513 167.074 85.8274 167.056 86.0298C167.039 86.2323 167.021 86.4524 167.021 86.69C167.021 86.9277 167.03 87.1478 167.056 87.3502C167.083 87.5527 167.127 87.7288 167.188 87.8784C167.259 88.0281 167.356 88.1425 167.488 88.2305C167.62 88.3186 167.787 88.3626 168.007 88.3626C168.227 88.3626 168.394 88.3186 168.526 88.2305C168.658 88.1425 168.755 88.0281 168.826 87.8784C168.896 87.7288 168.94 87.5527 168.967 87.3502C168.984 87.1478 169.002 86.9277 169.002 86.69ZM172.585 87.9488V89.6038H174.248V87.9488H172.585ZM178.192 89.6038C177.893 89.6038 177.637 89.5597 177.426 89.4541C177.215 89.3573 177.039 89.2341 176.898 89.0756C176.757 88.9171 176.66 88.7411 176.599 88.5474C176.537 88.3538 176.502 88.1513 176.502 87.94V85.0615H175.886V83.9612H176.502V82.2446H177.954V83.9612H178.975V85.0615H177.954V87.852C177.954 88.2041 178.121 88.3802 178.456 88.3802H178.984V89.6038H178.192ZM185.366 88.0193C185.454 87.6671 185.498 87.227 185.498 86.6988C185.498 86.1707 185.454 85.7393 185.366 85.3872C185.269 85.0439 185.102 84.727 184.838 84.4541C184.662 84.2605 184.424 84.0932 184.125 83.9524C183.826 83.8115 183.456 83.7411 183.033 83.7411C182.611 83.7411 182.241 83.8115 181.951 83.9524C181.66 84.0932 181.423 84.2605 181.246 84.4541C180.982 84.727 180.806 85.0351 180.718 85.3872C180.63 85.7305 180.586 86.1707 180.586 86.6988C180.586 87.227 180.63 87.6671 180.718 88.0193C180.815 88.3714 180.982 88.6883 181.246 88.9612C181.423 89.1548 181.66 89.3221 181.951 89.4629C182.241 89.6038 182.602 89.6742 183.033 89.6742C183.465 89.6742 183.826 89.6038 184.125 89.4629C184.424 89.3221 184.662 89.1548 184.838 88.9612C185.102 88.6883 185.278 88.3714 185.366 88.0193ZM183.993 85.8802C184.028 86.1178 184.046 86.3907 184.046 86.6988C184.046 87.0069 184.028 87.2798 183.993 87.5263C183.949 87.7728 183.861 87.9664 183.711 88.1161C183.544 88.2833 183.306 88.3714 183.033 88.3714C182.761 88.3714 182.532 88.2833 182.364 88.1161C182.215 87.9664 182.118 87.7728 182.083 87.5263C182.048 87.2798 182.03 86.9981 182.03 86.6988C182.03 86.3995 182.048 86.1178 182.083 85.8802C182.127 85.6425 182.215 85.4488 182.364 85.2992C182.532 85.1319 182.752 85.0439 183.033 85.0439C183.315 85.0439 183.544 85.1319 183.711 85.2992C183.861 85.44 183.958 85.6425 183.993 85.8802ZM190.648 89.6038V89.058C190.445 89.2781 190.234 89.4365 190.014 89.5333C189.794 89.6302 189.521 89.6742 189.213 89.6742C188.931 89.6742 188.667 89.6302 188.412 89.5333C188.157 89.4365 187.954 89.3133 187.787 89.146C187.637 89.0052 187.523 88.8379 187.444 88.6443C187.364 88.4506 187.312 88.2481 187.268 88.0281C187.232 87.808 187.206 87.5879 187.197 87.359C187.197 87.2423 187.195 87.1256 187.193 87.0112C187.19 86.9013 187.188 86.7935 187.188 86.69V86.6889C187.188 86.478 187.188 86.2495 187.197 86.0298C187.197 85.8009 187.224 85.5809 187.268 85.3696C187.303 85.1495 187.364 84.9471 187.444 84.7622C187.523 84.5686 187.637 84.4013 187.787 84.2517C187.954 84.0844 188.157 83.9612 188.403 83.8643C188.65 83.7675 188.914 83.7235 189.204 83.7235C189.504 83.7235 189.768 83.7675 189.988 83.8555C190.217 83.9436 190.428 84.0932 190.621 84.3045V81.6636H192.074V89.6038H190.657H190.648ZM190.613 86.69C190.613 86.4524 190.604 86.2323 190.577 86.0298C190.551 85.8274 190.507 85.6513 190.437 85.5017C190.366 85.352 190.269 85.2376 190.137 85.1495C190.005 85.0615 189.838 85.0175 189.618 85.0175C189.398 85.0175 189.231 85.0615 189.099 85.1495C188.967 85.2376 188.87 85.352 188.799 85.5017C188.729 85.6513 188.685 85.8274 188.667 86.0298C188.65 86.2323 188.632 86.4524 188.632 86.69C188.632 86.9277 188.641 87.1478 188.667 87.3502C188.694 87.5527 188.738 87.7288 188.799 87.8784C188.87 88.0281 188.967 88.1425 189.099 88.2305C189.231 88.3186 189.398 88.3626 189.618 88.3626C189.838 88.3626 190.005 88.3186 190.137 88.2305C190.269 88.1425 190.366 88.0281 190.437 87.8784C190.507 87.7288 190.551 87.5527 190.577 87.3502C190.595 87.1478 190.613 86.9277 190.613 86.69ZM197.232 89.102V89.5862H197.224L197.232 89.6038V89.5862H198.641V85.7657C198.641 85.0791 198.43 84.5686 198.016 84.2252C197.602 83.8819 196.986 83.7147 196.167 83.7147C195.683 83.7147 195.287 83.7675 194.97 83.8819C194.653 83.9876 194.354 84.2076 194.072 84.5157L194.996 85.4224C195.067 85.3344 195.146 85.264 195.217 85.2024C195.287 85.1495 195.366 85.0967 195.454 85.0615C195.533 85.0263 195.63 84.9999 195.736 84.9823C195.842 84.9647 195.965 84.9559 196.106 84.9559C196.493 84.9559 196.766 85.0263 196.933 85.1759C197.1 85.3168 197.188 85.5545 197.188 85.8714V86.1619H195.815C195.481 86.1619 195.19 86.2059 194.944 86.2939C194.697 86.3819 194.495 86.5052 194.327 86.6548C194.16 86.8133 194.037 86.9893 193.958 87.1918C193.879 87.3943 193.835 87.6143 193.835 87.8432C193.835 88.0985 193.879 88.345 193.958 88.565C194.046 88.7851 194.16 88.9788 194.319 89.146C194.662 89.4893 195.164 89.6566 195.806 89.6566C196.141 89.6566 196.414 89.6126 196.625 89.5245C196.836 89.4365 197.039 89.2957 197.232 89.102ZM196.053 87.1478H197.197H197.206V87.4559C197.206 87.8168 197.136 88.0633 196.995 88.1953C196.863 88.3274 196.731 88.4066 196.59 88.433C196.449 88.4594 196.282 88.477 196.079 88.477C195.789 88.477 195.586 88.4154 195.445 88.2921C195.313 88.1689 195.243 88.0193 195.243 87.808C195.243 87.5967 195.313 87.4383 195.454 87.3238C195.595 87.2094 195.789 87.1478 196.053 87.1478ZM202.928 90.5457C202.805 90.8802 202.655 91.1267 202.496 91.2939C202.338 91.4612 202.136 91.5844 201.924 91.646C201.713 91.7076 201.484 91.7429 201.246 91.7429H200.674V90.44H201.009C201.22 90.44 201.37 90.4048 201.475 90.3432C201.572 90.2728 201.66 90.1319 201.739 89.9207L201.986 89.2076L200.005 83.8115H201.537L202.743 87.4031L203.905 83.8115H205.437L202.954 90.5545L202.928 90.5457Z" fill="white"/>
</svg>
