<svg width="261" height="120" viewBox="0 0 261 120" fill="none" xmlns="http://www.w3.org/2000/svg">
<path fill-rule="evenodd" clip-rule="evenodd" d="M96.0241 38.2024C96.0241 38.2288 96.0152 38.2904 96.0152 38.2904H96.0064C96.0092 38.3097 96.0128 38.3291 96.0165 38.3487C96.0246 38.3916 96.0329 38.4357 96.0329 38.4841V58.2716C96.0329 58.6589 95.8392 59.0286 95.5135 59.2575L89.572 63.4122V82.7244C89.572 83.1117 89.3783 83.4814 89.0526 83.7103L74.4584 93.9121C74.3528 94.0706 74.212 94.2026 74.0359 94.2994C73.8599 94.3963 73.6662 94.4403 73.4726 94.4403C73.4594 94.4403 73.4462 94.4381 73.433 94.4359C73.4197 94.4337 73.4065 94.4315 73.3933 94.4315C73.3801 94.4315 73.3691 94.4337 73.3581 94.4359C73.3471 94.4381 73.3361 94.4403 73.3229 94.4403C73.1381 94.4403 72.9444 94.3875 72.7684 94.2994C72.6011 94.2114 72.4603 94.0794 72.3547 93.9297L56.5281 83.2173C56.2025 82.9885 56 82.6188 56 82.2139V62.4351C56 62.4263 56.0022 62.4153 56.0044 62.4043C56.0066 62.3933 56.0088 62.3823 56.0088 62.3735C56.0176 62.2943 56.0264 62.2151 56.044 62.1358C56.0484 62.1182 56.055 62.1006 56.0616 62.083C56.0682 62.0654 56.0748 62.0478 56.0792 62.0302C56.0864 62.0135 56.0929 61.9974 56.0993 61.9816C56.1165 61.9393 56.1328 61.8991 56.1584 61.8542C56.1848 61.8102 56.2025 61.7837 56.2289 61.7485C56.2641 61.6957 56.2993 61.6517 56.3433 61.6077C56.3609 61.5945 56.3763 61.5791 56.3917 61.5637C56.4071 61.5483 56.4225 61.5329 56.4401 61.5197L56.5017 61.4581L62.4521 57.1449V37.9823C62.4521 37.9735 62.4543 37.9625 62.4565 37.9515C62.4587 37.9405 62.4609 37.9295 62.4609 37.9207C62.4697 37.8415 62.4785 37.7623 62.4961 37.6831C62.5005 37.6654 62.5071 37.6478 62.5137 37.6302C62.5203 37.6126 62.5269 37.595 62.5313 37.5774C62.5385 37.5607 62.545 37.5446 62.5514 37.5288C62.5686 37.4865 62.5849 37.4463 62.6105 37.4014C62.6369 37.3574 62.6545 37.331 62.6809 37.2958C62.7162 37.2429 62.7514 37.1989 62.7954 37.1549C62.813 37.1417 62.8284 37.1263 62.8438 37.1109C62.8592 37.0955 62.8746 37.0801 62.8922 37.0669L62.9538 37.0053L77.8297 26.2313C78.2346 25.932 78.7892 25.9232 79.2117 26.2049L95.4959 37.2253C95.8216 37.4454 96.0241 37.8063 96.0241 38.2024ZM92.7056 38.2552L78.5603 28.6783L65.7617 37.9559L72.7596 42.6916L79.8454 47.4888L83.2607 45.1034L92.7056 38.2552ZM66.3075 67.1443L73.3933 71.9416L76.8086 69.5562L77.8297 68.8168L63.6844 59.2399L59.3097 62.4087L66.3075 67.1443ZM74.6873 90.8137L87.1689 82.0906V82.0818V65.2519L78.2082 71.5191L74.6873 74.0718V90.8137ZM88.102 61.5021L93.621 57.6379H93.6298V40.7991L84.6691 47.0663L81.1482 49.619V66.3697L83.1111 64.9966L87.6531 61.7045C87.7851 61.5989 87.9435 61.5373 88.102 61.5021ZM181.16 47.6389H185.64V46.1513H188.061V47.6389H192.427V49.6283H188.061V51.0278H193.078V53.2284H190.394V53.915C190.394 54.3111 190.587 54.5047 190.966 54.5047H193.193V56.3444H190.402C189.733 56.3444 189.276 56.1772 189.003 55.8427C188.607 55.4818 188.404 54.6192 188.404 53.2284H185.869C185.588 53.9062 185.227 54.4607 184.787 54.892C184.214 55.5698 182.973 56.3708 181.054 57.2951L179.945 55.0681C181.142 54.7336 182.067 54.3375 182.709 53.8798C182.991 53.7037 183.255 53.4837 183.475 53.2284H180.28V51.0278H185.64V49.6283H181.16V47.6389ZM181.847 57.1718H185.64V54.8568H188.061V57.1718H192.084V59.2492H188.061V60.7632C189.769 60.5871 191.344 60.3495 192.77 60.0502V62.1627H194.249L192.964 61.0008C194.293 59.7509 195.27 58.4394 195.904 57.0486C195.147 56.1332 194.319 55.2089 193.422 54.2583L194.988 52.7443C195.578 53.3604 196.142 53.959 196.67 54.5575C196.819 53.6509 196.916 52.621 196.951 51.4679H193.642V49.1529H196.978V46.1513H199.205V49.1529H202.999C202.919 51.644 202.884 53.9766 202.884 56.1332C202.884 57.3831 202.972 58.501 203.139 59.4868C203.192 60.103 203.298 60.4111 203.456 60.4111C203.667 60.4111 203.808 59.0555 203.888 56.3444L206 57.6207C205.692 60.191 205.34 61.7754 204.944 62.374C204.565 62.9285 204.134 63.2014 203.659 63.2014C203.104 63.2014 202.62 63.0166 202.206 62.6381C201.678 62.1803 201.3 61.4938 201.097 60.5607C200.816 59.5132 200.666 58.0345 200.666 56.1332C200.666 54.848 200.631 53.29 200.551 51.4679H199.187C199.134 53.5101 198.888 55.2529 198.474 56.6965C199.231 57.6472 199.927 58.5802 200.551 59.4868L198.87 61.2121C198.448 60.4991 197.999 59.7949 197.497 59.0995C196.855 60.2878 195.974 61.4938 194.874 62.7261L194.39 62.2772C194.161 63.0694 193.923 63.8 193.677 64.4777H203.888C203.72 68.8525 203.386 71.4315 202.893 72.1973C202.4 72.9279 201.282 73.2976 199.557 73.2976C197.832 73.2976 196.696 73.2624 195.992 73.1832L195.305 70.3929C196.714 70.6305 198.131 70.7538 199.557 70.7538C200.147 70.7538 200.499 70.5337 200.613 70.1024C200.763 69.8295 200.86 68.7645 200.895 66.9248H192.656C192.101 68.0163 191.529 68.8965 190.913 69.5655C189.355 71.3259 186.257 72.6463 181.618 73.5177L180.623 70.877C184.672 70.3841 187.383 69.4334 188.748 68.0251C189.073 67.7082 189.373 67.3385 189.663 66.9248H181.512V64.4865H190.948C191.212 63.8352 191.45 63.1398 191.661 62.4092C189.346 62.8493 185.808 63.263 181.054 63.6591L180.738 61.2209C182.463 61.1857 184.1 61.1065 185.64 60.9832V59.258H181.847V57.1806V57.1718ZM148.679 54.0292H145.546L145.537 54.038V56.5906H148.671V66.0355C147.509 66.4668 146.364 66.7661 145.22 66.9245L145.537 70.0405C148.688 69.1251 151.549 67.8928 154.119 66.326V63.3244C153.151 63.9141 152.192 64.4511 151.241 64.9264V56.5818H154.005V54.0292H151.241V46.2479H148.679V54.0292ZM164.277 46.4856L161.487 46.1599V46.1687C161.223 47.093 160.818 47.982 160.263 48.8094H154.471V61.3439H157.526C157.35 63.8965 156.76 65.8683 155.757 67.2502C154.665 68.729 152.975 70.0141 150.678 71.0792L152.13 73.5175C154.903 71.9506 156.848 70.2694 157.948 68.4649C159.145 66.6253 159.832 64.2486 159.999 61.3351H161.592V70.3926C161.592 71.1056 161.795 71.6778 162.217 72.1179C162.631 72.514 163.203 72.7076 163.925 72.7076H167.833C168.934 72.7076 169.691 72.5404 170.113 72.2059C170.588 71.889 170.94 70.824 171.169 69.0019L168.942 68.3153C168.846 69.486 168.687 70.1462 168.458 70.3046C168.247 70.4455 167.93 70.5159 167.49 70.5159H164.814C164.224 70.5159 163.934 70.2518 163.934 69.7149V68.7026C166.143 68.3505 167.833 67.9544 169.013 67.5143C169.11 67.7167 169.189 67.9456 169.268 68.2009L171.064 67.3734C170.588 66.1059 170.025 64.9088 169.382 63.7821L167.613 64.3719C167.86 64.8032 168.097 65.2873 168.326 65.8242C167.798 65.9827 167.226 66.1147 166.619 66.2115C167.094 65.0232 167.464 63.7469 167.728 62.3825L165.589 62.1713C165.333 63.7205 164.955 65.1641 164.444 66.5108C164.295 66.5108 164.128 66.5196 163.934 66.5372V61.3351H169.946V48.8006H163.018C163.555 48.0876 163.969 47.313 164.277 46.4856ZM160.809 54.0292H156.813V51.0276H160.809V54.0292ZM160.809 56.1329V59.1345H156.813V56.1329H160.809ZM163.15 54.0292V51.0276H167.631V54.0292H163.15ZM167.631 56.1329V59.1345H163.15V56.1329H167.631ZM136.788 47.0759H111.041V49.5141H112.379V73.1923H114.949V72.2417H136.788V69.8034H114.949V49.5141H136.788V47.0759ZM124.64 60.1737H116.287V67.955H124.64V60.1737ZM122.413 62.4887V65.64H118.505V62.4887H122.413ZM132.422 51.3538H118.848V58.4485H132.422V51.3538ZM129.966 53.6688V56.1335H121.295V53.6688H129.966ZM135.784 60.1737H126.973V67.955H135.784V60.1737ZM133.531 62.4887V65.64H129.2V62.4887H133.531ZM117.229 87.3636C117.238 87.1347 117.238 86.9147 117.238 86.6946C117.238 86.5911 117.236 86.4855 117.233 86.3778V86.3777C117.231 86.2656 117.229 86.1511 117.229 86.0344C117.22 85.8144 117.194 85.5943 117.158 85.3743C117.123 85.163 117.062 84.9517 116.982 84.7669C116.903 84.5732 116.789 84.406 116.648 84.2564C116.489 84.0891 116.278 83.9659 116.032 83.8691C115.776 83.7722 115.53 83.7282 115.231 83.7282C114.931 83.7282 114.667 83.7722 114.447 83.8603C114.227 83.9395 114.016 84.0979 113.822 84.3092V81.6685H112.37V89.6082H113.778V89.0624C113.981 89.2913 114.192 89.4409 114.421 89.5377C114.65 89.6346 114.923 89.6786 115.231 89.6786C115.521 89.6786 115.785 89.6346 116.032 89.5377C116.278 89.4409 116.481 89.3177 116.648 89.1504C116.789 89.0096 116.903 88.8424 116.982 88.6487C117.062 88.4551 117.123 88.2526 117.158 88.0326C117.202 87.8125 117.229 87.5924 117.229 87.3636ZM115.75 86.0344C115.776 86.2369 115.785 86.4569 115.785 86.6946C115.785 86.9323 115.776 87.1523 115.75 87.3548C115.732 87.5572 115.688 87.7333 115.618 87.8829C115.548 88.0325 115.451 88.147 115.319 88.235C115.187 88.323 115.019 88.367 114.799 88.367C114.579 88.367 114.412 88.323 114.28 88.235C114.148 88.147 114.051 88.0325 113.981 87.8829C113.919 87.7333 113.875 87.5572 113.849 87.3548C113.822 87.1523 113.814 86.9323 113.814 86.6946C113.814 86.4569 113.822 86.2369 113.849 86.0344C113.866 85.832 113.91 85.6559 113.981 85.5063C114.051 85.3567 114.148 85.2422 114.28 85.1542C114.412 85.0662 114.579 85.0222 114.799 85.0222C115.019 85.0222 115.187 85.0662 115.319 85.1542C115.451 85.2422 115.548 85.3567 115.618 85.5063C115.68 85.6559 115.724 85.832 115.75 86.0344ZM120.82 89.5991C120.521 89.5991 120.266 89.5551 120.054 89.4495C119.834 89.3526 119.658 89.2294 119.526 89.071C119.385 88.9125 119.289 88.7365 119.227 88.5428C119.165 88.3492 119.13 88.1467 119.13 87.9355V81.6594H120.583V87.8474C120.583 88.0147 120.618 88.1467 120.697 88.2347C120.776 88.3228 120.908 88.3668 121.093 88.3668H121.648V89.5903H120.82V89.5991ZM127.677 88.0143C127.765 87.6622 127.809 87.2221 127.809 86.6939C127.809 86.1658 127.765 85.7345 127.677 85.3824C127.58 85.0391 127.413 84.7222 127.149 84.4494C126.973 84.2557 126.735 84.0885 126.436 83.9476C126.137 83.8068 125.767 83.7364 125.344 83.7364C124.922 83.7364 124.552 83.8068 124.262 83.9476C123.971 84.0885 123.734 84.2557 123.558 84.4494C123.294 84.7222 123.117 85.0303 123.029 85.3824C122.941 85.7257 122.897 86.1658 122.897 86.6939C122.897 87.2221 122.941 87.6622 123.029 88.0143C123.126 88.3664 123.294 88.6833 123.558 88.9561C123.734 89.1498 123.971 89.317 124.262 89.4579C124.552 89.5987 124.913 89.6691 125.344 89.6691C125.776 89.6691 126.137 89.5987 126.436 89.4579C126.735 89.317 126.973 89.1498 127.149 88.9561C127.413 88.6833 127.589 88.3664 127.677 88.0143ZM126.304 85.8753C126.339 86.113 126.357 86.3859 126.357 86.6939C126.357 87.002 126.339 87.2749 126.304 87.5214C126.26 87.7678 126.172 87.9615 126.022 88.1111C125.855 88.2784 125.617 88.3664 125.344 88.3664C125.072 88.3664 124.843 88.2784 124.675 88.1111C124.526 87.9615 124.429 87.7678 124.394 87.5214C124.359 87.2749 124.341 86.9932 124.341 86.6939C124.341 86.3947 124.359 86.113 124.394 85.8753C124.438 85.6377 124.526 85.444 124.675 85.2944C124.843 85.1271 125.063 85.0391 125.344 85.0391C125.626 85.0391 125.855 85.1271 126.022 85.2944C126.172 85.4352 126.269 85.6377 126.304 85.8753ZM133.117 89.4755C132.809 89.6075 132.457 89.6691 132.052 89.6691C131.762 89.6691 131.462 89.6251 131.154 89.5371C130.846 89.4491 130.564 89.2906 130.318 89.0618C130.072 88.8329 129.86 88.5336 129.702 88.1463C129.535 87.7678 129.455 87.2749 129.455 86.6939C129.455 86.113 129.535 85.6201 129.702 85.2416C129.869 84.8543 130.072 84.555 130.318 84.3349C130.564 84.1149 130.846 83.9564 131.154 83.8684C131.462 83.7804 131.762 83.7364 132.052 83.7364C132.457 83.7364 132.809 83.798 133.117 83.9212C133.425 84.0445 133.707 84.2469 133.971 84.511L132.994 85.488C132.844 85.3208 132.703 85.2064 132.563 85.1359C132.422 85.0655 132.254 85.0303 132.061 85.0303C131.718 85.0303 131.445 85.1535 131.233 85.4088C131.119 85.5496 131.04 85.7169 130.987 85.9193C130.934 86.1218 130.908 86.3771 130.908 86.6851C130.908 87.2837 131.013 87.715 131.233 87.9791C131.445 88.2343 131.718 88.3576 132.061 88.3576C132.254 88.3576 132.422 88.3224 132.563 88.252C132.703 88.1815 132.853 88.0671 132.994 87.8999L133.971 88.8681C133.707 89.1322 133.425 89.3346 133.117 89.4667V89.4755ZM137.721 87.1785L139.147 89.5991H140.933L138.706 86.131L140.784 83.7896H139.032L137.104 86.1662V81.6594H135.652V89.5991H137.104V87.8739L137.721 87.1785ZM144.261 89.5989C143.961 89.5989 143.706 89.5548 143.495 89.4492C143.283 89.3524 143.107 89.2292 142.967 89.0707C142.826 88.9123 142.729 88.7362 142.667 88.5426C142.606 88.3489 142.57 88.1465 142.57 87.9352V85.0569H141.954V83.9566H142.57V82.2401H144.023V83.9566H145.044V85.0569H144.023V87.8472C144.023 88.1993 144.19 88.3753 144.525 88.3753H145.053V89.5989H144.261ZM149.753 85.1188C149.868 85.1804 149.973 85.2597 150.088 85.3741V85.3653L151.179 84.265C150.977 84.0625 150.774 83.9217 150.554 83.8425C150.334 83.7633 150.088 83.7192 149.806 83.7192C149.489 83.7192 149.207 83.7809 148.943 83.9041C148.688 84.0273 148.486 84.177 148.345 84.3442V83.7897H146.928V89.5992H148.38V86.0959C148.38 85.911 148.415 85.7526 148.468 85.6205C148.53 85.4885 148.6 85.3741 148.688 85.2861C148.776 85.198 148.873 85.1364 148.987 85.0924C149.102 85.0484 149.207 85.0308 149.322 85.0308C149.498 85.0308 149.639 85.0572 149.753 85.1188ZM153.353 87.1529C153.353 87.5314 153.459 87.8394 153.679 88.0859C153.899 88.3236 154.216 88.4468 154.621 88.4468C154.938 88.4468 155.193 88.4028 155.378 88.3148C155.563 88.2267 155.748 88.0859 155.933 87.9011L156.813 88.7637C156.663 88.9133 156.513 89.0454 156.364 89.151C156.214 89.2654 156.056 89.3534 155.88 89.4327C155.704 89.5119 155.51 89.5735 155.308 89.6087C155.096 89.6527 154.867 89.6703 154.603 89.6703C154.26 89.6703 153.926 89.6263 153.609 89.5383C153.283 89.4503 153.001 89.2918 152.746 89.063C152.5 88.8341 152.297 88.5348 152.148 88.1475C151.998 87.769 151.919 87.2761 151.919 86.6951C151.919 86.2198 151.98 85.7973 152.104 85.4276C152.227 85.0579 152.403 84.7498 152.623 84.4946C152.843 84.2393 153.116 84.0544 153.424 83.9224C153.732 83.7904 154.075 83.7288 154.454 83.7288C154.859 83.7288 155.211 83.7992 155.528 83.94C155.845 84.0809 156.109 84.2745 156.329 84.521C156.54 84.7674 156.707 85.0579 156.822 85.3924C156.936 85.7269 156.989 86.0966 156.989 86.5015V87.1441H153.353V87.1529ZM155.563 86.1582C155.563 86.035 155.545 85.9205 155.528 85.8325C155.51 85.7357 155.475 85.6389 155.431 85.5332C155.352 85.366 155.228 85.2164 155.07 85.1019C154.911 84.9875 154.709 84.9259 154.463 84.9259C154.216 84.9259 154.014 84.9875 153.855 85.1019C153.697 85.2164 153.574 85.3572 153.494 85.5332C153.45 85.6389 153.415 85.7357 153.397 85.8325C153.38 85.9293 153.362 86.035 153.362 86.1582H155.563ZM162.261 86.0878V89.5999L162.27 89.6087H163.723V85.8941C163.723 85.5684 163.687 85.278 163.608 85.0051C163.529 84.7322 163.371 84.477 163.133 84.2393C162.974 84.0721 162.772 83.9488 162.543 83.8608C162.305 83.7728 162.05 83.7288 161.76 83.7288C161.487 83.7288 161.232 83.7816 160.976 83.8784C160.721 83.9752 160.501 84.1249 160.307 84.3273V83.7904H158.89V89.5999H160.343V86.0878C160.343 85.8853 160.369 85.7181 160.431 85.586C160.492 85.4452 160.563 85.3396 160.659 85.2604C160.747 85.1811 160.853 85.1195 160.967 85.0843C161.082 85.0491 161.196 85.0315 161.311 85.0315C161.425 85.0315 161.54 85.0491 161.654 85.0843C161.769 85.1195 161.865 85.1811 161.962 85.2604C162.05 85.3484 162.129 85.454 162.182 85.586C162.235 85.7181 162.261 85.8853 162.261 86.0878ZM169.039 89.5991V89.0534C168.837 89.2734 168.625 89.4319 168.405 89.5287C168.185 89.6255 167.912 89.6695 167.604 89.6695C167.323 89.6695 167.059 89.6255 166.803 89.5287C166.548 89.4319 166.346 89.3086 166.178 89.1414C166.029 89.0005 165.914 88.8333 165.835 88.6397C165.756 88.446 165.703 88.2436 165.659 88.0235C165.624 87.8034 165.597 87.5834 165.589 87.3545C165.589 87.2378 165.586 87.1211 165.584 87.0067L165.584 87.006C165.582 86.8964 165.58 86.7888 165.58 86.6855C165.58 86.4743 165.58 86.2454 165.589 86.0254C165.589 85.7965 165.615 85.5765 165.659 85.3652C165.694 85.1451 165.756 84.9427 165.835 84.7578C165.914 84.5642 166.029 84.3969 166.178 84.2473C166.346 84.0801 166.548 83.9568 166.795 83.86C167.041 83.7632 167.305 83.7192 167.596 83.7192C167.895 83.7192 168.159 83.7632 168.379 83.8512C168.608 83.9392 168.819 84.0889 169.013 84.3001V81.6594H170.465V89.5991H169.048H169.039ZM169.004 86.6855C169.004 86.4479 168.995 86.2278 168.969 86.0254C168.942 85.8229 168.898 85.6469 168.828 85.4972C168.757 85.3476 168.661 85.2332 168.529 85.1451C168.397 85.0571 168.229 85.0131 168.009 85.0131C167.789 85.0131 167.622 85.0571 167.49 85.1451C167.358 85.2332 167.261 85.3476 167.191 85.4972C167.12 85.6469 167.076 85.8229 167.059 86.0254C167.041 86.2278 167.023 86.4479 167.023 86.6855C167.023 86.9232 167.032 87.1433 167.059 87.3457C167.085 87.5482 167.129 87.7242 167.191 87.8739C167.261 88.0235 167.358 88.1379 167.49 88.2259C167.622 88.314 167.789 88.358 168.009 88.358C168.229 88.358 168.397 88.314 168.529 88.2259C168.661 88.1379 168.757 88.0235 168.828 87.8739C168.898 87.7242 168.942 87.5482 168.969 87.3457C168.986 87.1433 169.004 86.9232 169.004 86.6855ZM172.587 87.9449V89.5998H174.25V87.9449H172.587ZM178.194 89.5989C177.894 89.5989 177.639 89.5548 177.428 89.4492C177.216 89.3524 177.04 89.2292 176.9 89.0707C176.759 88.9123 176.662 88.7362 176.6 88.5426C176.539 88.3489 176.503 88.1465 176.503 87.9352V85.0569H175.887V83.9566H176.503V82.2401H177.956V83.9566H178.977V85.0569H177.956V87.8472C177.956 88.1993 178.123 88.3753 178.458 88.3753H178.986V89.5989H178.194ZM185.368 88.0143C185.456 87.6622 185.5 87.2221 185.5 86.6939C185.5 86.1658 185.456 85.7345 185.368 85.3824C185.271 85.0391 185.103 84.7222 184.839 84.4494C184.663 84.2557 184.426 84.0885 184.126 83.9476C183.827 83.8068 183.457 83.7364 183.035 83.7364C182.612 83.7364 182.243 83.8068 181.952 83.9476C181.662 84.0885 181.424 84.2557 181.248 84.4494C180.984 84.7222 180.808 85.0303 180.72 85.3824C180.632 85.7257 180.588 86.1658 180.588 86.6939C180.588 87.2221 180.632 87.6622 180.72 88.0143C180.817 88.3664 180.984 88.6833 181.248 88.9561C181.424 89.1498 181.662 89.317 181.952 89.4579C182.243 89.5987 182.604 89.6691 183.035 89.6691C183.466 89.6691 183.827 89.5987 184.126 89.4579C184.426 89.317 184.663 89.1498 184.839 88.9561C185.103 88.6833 185.28 88.3664 185.368 88.0143ZM183.994 85.8753C184.03 86.113 184.047 86.3859 184.047 86.6939C184.047 87.002 184.03 87.2749 183.994 87.5214C183.95 87.7678 183.862 87.9615 183.713 88.1111C183.545 88.2784 183.308 88.3664 183.035 88.3664C182.762 88.3664 182.533 88.2784 182.366 88.1111C182.216 87.9615 182.12 87.7678 182.084 87.5214C182.049 87.2749 182.031 86.9932 182.031 86.6939C182.031 86.3947 182.049 86.113 182.084 85.8753C182.128 85.6377 182.216 85.444 182.366 85.2944C182.533 85.1271 182.753 85.0391 183.035 85.0391C183.317 85.0391 183.545 85.1271 183.713 85.2944C183.862 85.4352 183.959 85.6377 183.994 85.8753ZM190.649 89.5991V89.0534C190.446 89.2734 190.235 89.4319 190.015 89.5287C189.795 89.6255 189.522 89.6695 189.214 89.6695C188.932 89.6695 188.668 89.6255 188.413 89.5287C188.158 89.4319 187.955 89.3086 187.788 89.1414C187.638 89.0005 187.524 88.8333 187.445 88.6397C187.366 88.446 187.313 88.2436 187.269 88.0235C187.234 87.8034 187.207 87.5834 187.198 87.3545C187.198 87.2378 187.196 87.1211 187.194 87.0067L187.194 87.0048C187.192 86.8956 187.19 86.7885 187.19 86.6855C187.19 86.4743 187.19 86.2454 187.198 86.0254C187.198 85.7965 187.225 85.5765 187.269 85.3652C187.304 85.1451 187.366 84.9427 187.445 84.7578C187.524 84.5642 187.638 84.3969 187.788 84.2473C187.955 84.0801 188.158 83.9568 188.404 83.86C188.651 83.7632 188.915 83.7192 189.205 83.7192C189.505 83.7192 189.769 83.7632 189.989 83.8512C190.218 83.9392 190.429 84.0889 190.622 84.3001V81.6594H192.075V89.5991H190.658H190.649ZM190.614 86.6855C190.614 86.4479 190.605 86.2278 190.578 86.0254C190.552 85.8229 190.508 85.6469 190.438 85.4972C190.367 85.3476 190.27 85.2332 190.138 85.1451C190.006 85.0571 189.839 85.0131 189.619 85.0131C189.399 85.0131 189.232 85.0571 189.1 85.1451C188.968 85.2332 188.871 85.3476 188.8 85.4972C188.73 85.6469 188.686 85.8229 188.668 86.0254C188.651 86.2278 188.633 86.4479 188.633 86.6855C188.633 86.9232 188.642 87.1433 188.668 87.3457C188.695 87.5482 188.739 87.7242 188.8 87.8739C188.871 88.0235 188.968 88.1379 189.1 88.2259C189.232 88.314 189.399 88.358 189.619 88.358C189.839 88.358 190.006 88.314 190.138 88.2259C190.27 88.1379 190.367 88.0235 190.438 87.8739C190.508 87.7242 190.552 87.5482 190.578 87.3457C190.596 87.1433 190.614 86.9232 190.614 86.6855ZM197.224 89.5818V89.5994L197.215 89.5818H197.224ZM198.633 89.5818H197.224V89.0977C197.031 89.2913 196.828 89.4322 196.617 89.5202C196.406 89.6082 196.133 89.6522 195.798 89.6522C195.156 89.6522 194.654 89.485 194.311 89.1417C194.152 88.9745 194.038 88.7808 193.95 88.5608C193.871 88.3407 193.827 88.0942 193.827 87.839C193.827 87.6101 193.871 87.39 193.95 87.1876C194.029 86.9851 194.152 86.8091 194.319 86.6507C194.487 86.501 194.689 86.3778 194.936 86.2898C195.182 86.2017 195.473 86.1577 195.807 86.1577H197.18V85.8672C197.18 85.5504 197.092 85.3127 196.925 85.1719C196.758 85.0222 196.485 84.9518 196.098 84.9518C195.957 84.9518 195.833 84.9606 195.728 84.9782C195.622 84.9958 195.525 85.0222 195.446 85.0574C195.358 85.0926 195.279 85.1455 195.208 85.1983C195.138 85.2599 195.059 85.3303 194.988 85.4183L194.064 84.5117C194.346 84.2036 194.645 83.9836 194.962 83.8779C195.279 83.7635 195.675 83.7107 196.159 83.7107C196.978 83.7107 197.594 83.8779 198.008 84.2212C198.421 84.5645 198.633 85.075 198.633 85.7616V89.5818ZM196.045 87.1436H197.189H197.198V87.4517C197.198 87.8126 197.127 88.059 196.987 88.1911C196.855 88.3231 196.723 88.4023 196.582 88.4287C196.441 88.4551 196.274 88.4727 196.071 88.4727C195.781 88.4727 195.578 88.4111 195.437 88.2879C195.305 88.1646 195.235 88.015 195.235 87.8038C195.235 87.5925 195.305 87.4341 195.446 87.3196C195.587 87.2052 195.781 87.1436 196.045 87.1436ZM202.928 90.5405C202.805 90.875 202.655 91.1215 202.497 91.2887C202.338 91.456 202.136 91.5792 201.925 91.6408C201.713 91.7024 201.485 91.7376 201.247 91.7376H200.675V90.4349H201.009C201.22 90.4349 201.37 90.3997 201.476 90.3381C201.573 90.2676 201.661 90.1268 201.74 89.9156L201.986 89.2026L200.006 83.8068H201.537L202.743 87.3981L203.905 83.8068H205.437L202.955 90.5493L202.928 90.5405Z" fill="white"/>
</svg>
