<svg width="261" height="120" viewBox="0 0 261 120" fill="none" xmlns="http://www.w3.org/2000/svg">
<path fill-rule="evenodd" clip-rule="evenodd" d="M27.0865 59.7755L34.8629 73.2444L38.715 71.0488L31.5762 58.6843L38.0773 47.4305H51.073L58.2117 59.7887L62.0375 57.5799L54.2348 44.1043C54.041 43.7686 53.7622 43.4897 53.4264 43.2959C53.0906 43.102 52.7096 43 52.322 43H36.7757C36.388 43 36.0071 43.102 35.6713 43.2959C35.3355 43.4897 35.0567 43.7686 34.8629 44.1043L27.0865 57.5668C26.8926 57.9026 26.7906 58.2834 26.7906 58.6711C26.7906 59.0588 26.8926 59.4397 27.0865 59.7755ZM30.6828 80.5739H46.2618C46.6407 80.5686 47.0118 80.4652 47.3389 80.274C47.666 80.0828 47.9381 79.8102 48.1287 79.4827L55.9051 66.0137C56.0989 65.6779 56.2009 65.297 56.2009 64.9093C56.2009 64.5217 56.0989 64.1407 55.9051 63.805L48.1287 50.3426L44.3095 52.5513L51.4416 64.9093L44.9471 76.1696H31.958L24.8192 63.805L21 66.0137L28.7699 79.4695C28.9637 79.8053 29.2425 80.0841 29.5783 80.2779C29.9141 80.4718 30.295 80.5739 30.6828 80.5739ZM77.7679 68.2486C78.9768 68.9065 80.3359 69.2394 81.712 69.2148C82.7852 69.2138 83.8479 69.004 84.8409 68.5969C85.7686 68.222 86.5967 67.637 87.26 66.8878L87.3652 66.7695L85.8139 65.2707L85.702 65.389C85.2091 65.921 84.6094 66.3429 83.9422 66.6273C83.2751 66.9116 82.5554 67.0519 81.8302 67.039C80.8626 67.0605 79.9055 66.8341 79.0497 66.3817C78.2434 65.9378 77.5747 65.2806 77.1171 64.482C76.6602 63.6536 76.4206 62.723 76.4206 61.777C76.4206 60.831 76.6602 59.9004 77.1171 59.072C77.5771 58.2769 78.2453 57.6224 79.0497 57.1789C79.9023 56.7149 80.8597 56.4773 81.8302 56.4887C82.5545 56.4737 83.2737 56.6117 83.9408 56.8937C84.608 57.1758 85.2082 57.5955 85.702 58.1255L85.7744 58.3095L87.3257 56.8042L87.2206 56.6859C86.5593 55.9421 85.733 55.3637 84.8081 54.9965C83.6746 54.5612 82.462 54.3708 81.2498 54.4377C80.0375 54.5045 78.8531 54.8271 77.7745 55.3843C76.635 55.9949 75.683 56.9038 75.0202 58.0137C74.3653 59.1741 74.0212 60.484 74.0212 61.8164C74.0212 63.1489 74.3653 64.4588 75.0202 65.6191C75.6789 66.73 76.6292 67.6394 77.7679 68.2486ZM92.184 68.2488C93.3948 68.9021 94.7526 69.2346 96.1282 69.2151C97.5056 69.2296 98.8636 68.8899 100.072 68.2291C101.214 67.6223 102.167 66.7125 102.826 65.5998C103.481 64.4393 103.825 63.1295 103.825 61.797C103.825 60.4645 103.481 59.1547 102.826 57.9943C102.686 57.7589 102.532 57.5326 102.367 57.3162L106.297 53.3862L104.851 51.94L100.904 55.8871C100.64 55.6948 100.362 55.5202 100.072 55.3649C98.8541 54.7311 97.5012 54.4003 96.1282 54.4003C94.755 54.4003 93.4021 54.7311 92.184 55.3649C91.0353 55.9852 90.0783 56.9082 89.4167 58.0336C88.7534 59.1877 88.4044 60.4956 88.4044 61.8266C88.4044 63.1577 88.7534 64.4654 89.4167 65.6195C89.6327 65.9811 89.8797 66.3213 90.1539 66.6366L86.5895 70.201L88.0357 71.6472L91.7096 67.9734C91.8638 68.071 92.022 68.1629 92.184 68.2488ZM100.697 58.9859L93.3212 66.3617C93.3409 66.373 93.3606 66.3841 93.3805 66.3951C94.2246 66.8468 95.1709 67.0732 96.1282 67.0525C97.0772 67.0751 98.0155 66.8483 98.8496 66.3951C99.644 65.9445 100.302 65.2883 100.756 64.4954C101.213 63.667 101.452 62.7364 101.452 61.7904C101.452 60.8444 101.213 59.9138 100.756 59.0855C100.737 59.052 100.717 59.0188 100.697 58.9859ZM91.7876 65.003C91.6668 64.8411 91.5555 64.6717 91.4544 64.4954C90.9975 63.667 90.758 62.7364 90.758 61.7904C90.758 60.8444 90.9975 59.9138 91.4544 59.0855C91.9137 58.2921 92.5792 57.6379 93.3805 57.1923C94.2219 56.73 95.1681 56.4922 96.1282 56.5021C97.0799 56.4909 98.0182 56.7288 98.8496 57.1923C99.0073 57.2818 99.1597 57.3793 99.3062 57.4844L91.7876 65.003ZM107.736 68.7088C108.752 69.046 109.815 69.2169 110.885 69.215C111.941 69.2357 112.99 69.041 113.968 68.6431C114.737 68.3348 115.399 67.8095 115.874 67.1312C116.301 66.5029 116.53 65.7611 116.532 65.0014C116.57 64.1911 116.308 63.395 115.795 62.7664C115.32 62.2292 114.726 61.8105 114.06 61.5438C113.202 61.2261 112.324 60.9669 111.431 60.7681C110.777 60.6258 110.132 60.4481 109.498 60.2357C109.072 60.1005 108.68 59.8764 108.348 59.5783C108.202 59.4435 108.087 59.2783 108.012 59.0942C107.937 58.9102 107.904 58.7119 107.914 58.5135C107.909 58.2187 107.98 57.9276 108.119 57.6676C108.258 57.4077 108.461 57.1874 108.709 57.0278C109.456 56.578 110.324 56.3692 111.194 56.4296C111.862 56.431 112.526 56.5285 113.166 56.7189C113.825 56.9107 114.453 57.1939 115.033 57.5603L115.197 57.6654L115.993 55.7394L115.881 55.6671C115.229 55.227 114.506 54.9023 113.744 54.7074C112.923 54.4898 112.077 54.3793 111.227 54.3787C110.169 54.349 109.117 54.5393 108.137 54.9374C107.377 55.2546 106.724 55.7841 106.257 56.4625C105.83 57.0931 105.601 57.8371 105.6 58.5988C105.561 59.4192 105.823 60.2256 106.336 60.8667C106.813 61.4095 107.413 61.8308 108.085 62.0959C108.943 62.4127 109.821 62.6718 110.714 62.8716C111.381 63.0186 112.039 63.2007 112.686 63.4172C113.1 63.5532 113.479 63.7775 113.797 64.0745C113.94 64.2125 114.052 64.3795 114.126 64.5642C114.2 64.749 114.233 64.9473 114.224 65.146C114.229 65.4371 114.157 65.7243 114.017 65.979C113.876 66.2338 113.671 66.4475 113.422 66.5987C112.651 67.0341 111.769 67.233 110.885 67.1706C110.015 67.1708 109.152 67.0195 108.335 66.7236C107.59 66.4741 106.903 66.081 106.31 65.5667L106.146 65.422L105.252 67.3086L105.337 67.3941C106.036 67.9958 106.853 68.4437 107.736 68.7088ZM132.328 69.0508H134.602L134.583 54.7009V54.5366H132.663L126.918 64.3507L121.094 54.5366H119.175V69.0639H121.449V59.2037L126.267 67.2496L126.32 67.3285H127.437L132.328 59.1445V69.0508ZM141.156 68.2488C142.367 68.9021 143.724 69.2346 145.1 69.2151C146.478 69.2296 147.836 68.8899 149.043 68.2291C150.186 67.6223 151.139 66.7125 151.798 65.5998C152.453 64.4393 152.797 63.1295 152.797 61.797C152.797 60.4645 152.453 59.1547 151.798 57.9943C151.136 56.8844 150.183 55.9755 149.043 55.3649C147.825 54.7311 146.473 54.4003 145.1 54.4003C143.726 54.4003 142.374 54.7311 141.156 55.3649C140.007 55.9852 139.05 56.9082 138.389 58.0336C137.73 59.1892 137.383 60.4965 137.383 61.8266C137.383 63.1567 137.73 64.4639 138.389 65.6195C139.053 66.7323 140.011 67.6417 141.156 68.2488ZM142.352 57.1923C143.194 56.73 144.14 56.4922 145.1 56.5021C146.049 56.4911 146.986 56.729 147.815 57.1923C148.609 57.6404 149.267 58.2944 149.721 59.0855C150.178 59.9138 150.418 60.8444 150.418 61.7904C150.418 62.7364 150.178 63.667 149.721 64.4954C149.268 65.2867 148.613 65.9425 147.821 66.3951C146.987 66.8483 146.049 67.0751 145.1 67.0525C144.142 67.0732 143.196 66.8468 142.352 66.3951C141.551 65.9473 140.885 65.2909 140.426 64.4954C139.969 63.667 139.729 62.7364 139.729 61.7904C139.729 60.8444 139.969 59.9138 140.426 59.0855C140.885 58.2921 141.551 57.6379 142.352 57.1923ZM156.716 68.7088C157.729 69.0466 158.791 69.2175 159.858 69.215C160.925 69.2423 161.985 69.0498 162.974 68.6497C163.749 68.3435 164.417 67.8153 164.893 67.1312C165.32 66.5029 165.549 65.7611 165.55 65.0014C165.593 64.1906 165.33 63.3932 164.814 62.7664C164.34 62.2275 163.746 61.8085 163.079 61.5438C162.221 61.2257 161.343 60.9665 160.45 60.7681C159.783 60.6279 159.124 60.45 158.478 60.2357C158.053 60.0989 157.661 59.8749 157.327 59.5783C157.182 59.4424 157.069 59.277 156.995 59.0932C156.919 58.9094 156.885 58.7117 156.894 58.5135C156.889 58.2187 156.96 57.9276 157.099 57.6676C157.238 57.4077 157.441 57.1874 157.688 57.0278C158.436 56.578 159.304 56.3692 160.173 56.4296C160.841 56.4322 161.505 56.5295 162.146 56.7189C162.802 56.9107 163.428 57.1939 164.006 57.5603L164.17 57.6654L164.966 55.7394L164.853 55.6671C164.203 55.2259 163.48 54.9012 162.717 54.7074C161.896 54.4898 161.05 54.3793 160.2 54.3787C159.143 54.349 158.09 54.5393 157.111 54.9374C156.35 55.2546 155.698 55.7841 155.23 56.4625C154.803 57.0931 154.575 57.8371 154.574 58.5988C154.534 59.4192 154.796 60.2256 155.309 60.8667C155.787 61.408 156.387 61.8291 157.057 62.0959C157.916 62.4122 158.794 62.6714 159.687 62.8716C160.354 63.0181 161.013 63.2003 161.659 63.4172C162.074 63.5548 162.455 63.7789 162.776 64.0745C162.919 64.2137 163.029 64.3809 163.101 64.5656C163.173 64.7501 163.207 64.9479 163.198 65.146C163.201 65.4362 163.13 65.7224 162.99 65.977C162.851 66.2315 162.649 66.4457 162.402 66.5987C161.629 67.0343 160.744 67.2331 159.858 67.1706C158.989 67.1702 158.126 67.019 157.307 66.7236C156.564 66.4741 155.876 66.081 155.283 65.5667L155.119 65.422L154.225 67.3086L154.31 67.3941C155.011 67.9966 155.831 68.4445 156.716 68.7088ZM170.789 69.0508H173.129V56.6269H177.968V54.5366H165.899V56.6269H170.789V69.0508ZM189.786 69.0508H192.278L185.678 54.5366H183.463L176.89 69.0508H179.341L180.906 65.501H188.229L189.786 69.0508ZM187.374 63.5553H181.754L184.568 57.1725L187.374 63.5553ZM196.077 69.0508H198.41V56.6269H203.275V54.5366H191.213V56.6269H196.077V69.0508ZM205.155 69.0508H207.515V54.5366H205.155V69.0508ZM214.069 68.2488C215.279 68.9021 216.637 69.2346 218.012 69.2151C219.389 69.2296 220.747 68.8899 221.956 68.2291C223.099 67.6205 224.053 66.7114 224.717 65.5998C225.367 64.438 225.709 63.1286 225.709 61.797C225.709 60.4654 225.367 59.1561 224.717 57.9943C224.048 56.8866 223.095 55.9786 221.956 55.3649C220.738 54.7311 219.386 54.4003 218.012 54.4003C216.639 54.4003 215.287 54.7311 214.069 55.3649C212.92 55.9852 211.962 56.9082 211.301 58.0336C210.642 59.1892 210.295 60.4965 210.295 61.8266C210.295 63.1567 210.642 64.4639 211.301 65.6195C211.966 66.7323 212.922 67.6417 214.069 68.2488ZM215.265 57.1923C216.105 56.73 217.052 56.4922 218.012 56.5021C218.966 56.491 219.907 56.7288 220.74 57.1923C221.531 57.6426 222.187 58.2962 222.639 59.0855C223.097 59.9138 223.336 60.8444 223.336 61.7904C223.336 62.7364 223.097 63.667 222.639 64.4954C222.189 65.288 221.532 65.9444 220.74 66.3951C219.903 66.8475 218.963 67.074 218.012 67.0525C217.055 67.0724 216.109 66.846 215.265 66.3951C214.462 65.9473 213.798 65.2909 213.338 64.4954C212.882 63.667 212.642 62.7364 212.642 61.7904C212.642 60.8444 212.882 59.9138 213.338 59.0855C213.798 58.2921 214.463 57.6379 215.265 57.1923ZM239.094 69.0508H241V54.5366H238.647V64.8108L230.424 54.5957L230.377 54.5366H228.472V69.0639H230.824V58.783L239.048 68.9916L239.094 69.0508Z" fill="white"/>
</svg>
