<svg width="261" height="120" viewBox="0 0 261 120" fill="none" xmlns="http://www.w3.org/2000/svg">
<path fill-rule="evenodd" clip-rule="evenodd" d="M44.7517 47.6842C45.0065 47.3719 45.2613 47.0596 45.5156 46.7471H45.513C45.3404 46.5938 45.1678 46.4379 45.0297 46.2551C44.6784 45.7909 44.3452 45.3125 43.9457 44.7389C43.7714 44.4886 43.5845 44.2202 43.378 43.927C44.1796 44.0049 44.899 44.0743 45.5927 44.1413C45.9996 44.1805 46.3976 44.2189 46.7982 44.2577C46.6573 43.9927 46.4805 43.659 46.2759 43.2727C46.2376 43.2005 46.1984 43.1264 46.1582 43.0506C48.2189 42.763 49.2253 43.7334 50.4601 45.1475C50.7522 44.6125 50.9248 44.4996 51.2727 44.3571C54.8204 43.5345 59.3293 45.954 62.184 49.7123C63.594 51.5699 63.4612 53.7663 62.3964 55.6938C61.2838 57.702 59.9082 59.5865 58.469 61.3742C56.7148 63.5554 55.7821 64.5459 53.2651 67.2189C51.8919 68.6773 50.047 70.6365 47.3399 73.5631C46.6423 72.8971 46.0739 72.3043 45.4812 71.6862C45.1241 71.3139 44.7582 70.9323 44.3499 70.5199C44.178 70.348 43.8489 69.9868 43.616 69.7312C43.5539 69.663 43.4986 69.6024 43.455 69.5548C50.484 62.6298 53.3946 58.9382 55.3837 56.4153C55.5505 56.2037 55.7109 56.0004 55.8666 55.804C57.2315 54.0808 58.3999 52.156 58.1131 49.7553C58.0731 49.4161 57.9706 49.0832 57.8681 48.7505C57.8212 48.5981 57.7743 48.4457 57.7334 48.2928C57.7626 51.414 56.0605 53.6587 54.353 55.8954C54.0579 56.2815 53.7382 56.6482 53.4186 57.0149C53.2463 57.2125 53.0741 57.41 52.9058 57.6106C52.0189 58.6671 50.9673 59.1429 49.5413 58.9171C47.648 58.616 45.9989 59.1214 45.0934 61.0059C44.8146 61.5866 44.6579 62.2802 44.6393 62.9281C44.5968 64.4308 43.7418 65.3234 42.2839 65.0626C41.2799 64.8841 40.2967 64.5706 39.3177 64.2586C39.1911 64.2182 39.0646 64.1778 38.938 64.1378C38.067 63.8636 37.7856 63.2507 38.1653 62.3877C38.3934 61.8709 38.6187 61.3528 38.8441 60.8347C39.4558 59.4283 40.0675 58.0219 40.7331 56.6428C40.8103 56.4827 40.8894 56.3238 40.9682 56.1653C41.619 54.8572 42.2532 53.5823 41.6705 51.9974C41.5749 51.7312 41.9015 51.2285 42.1405 50.922C42.9984 49.8328 43.8753 48.7581 44.7517 47.6842ZM96.8033 72.1866C95.2976 71.5522 94.023 70.6838 92.9847 69.5816C91.9464 68.4794 91.1312 67.1675 90.5443 65.6486C89.9548 64.1297 89.6627 62.5006 89.6627 60.7639C89.6627 59.0273 89.9575 57.3981 90.5443 55.8792C91.1339 54.3603 91.9464 53.0511 92.9847 51.9543C94.023 50.8574 95.2976 49.9918 96.8033 49.3574C98.3089 48.7229 99.942 48.4057 101.703 48.4057C103.463 48.4057 104.948 48.7068 106.421 49.3063C107.895 49.9058 109.162 50.7392 110.224 51.8037C111.286 52.8683 112.123 54.1721 112.739 55.7206C113.355 57.2691 113.663 58.9493 113.663 60.7639C113.663 62.5785 113.355 64.2587 112.739 65.8072C112.123 67.3557 111.284 68.6622 110.224 69.7322C109.162 70.8021 107.895 71.6355 106.421 72.2377C104.948 72.8399 103.376 73.1383 101.703 73.1383C99.942 73.1383 98.3089 72.821 96.8033 72.1866ZM105.192 69.5897C106.286 69.1165 107.231 68.466 108.028 67.6353C108.825 66.8046 109.454 65.7965 109.916 64.6055C110.378 63.4146 110.609 62.135 110.609 60.7639C110.609 59.3929 110.378 58.1132 109.916 56.9223C109.454 55.7314 108.825 54.7206 108.028 53.8926C107.231 53.0646 106.286 52.414 105.192 51.9462C104.098 51.4784 102.935 51.2446 101.703 51.2446C100.659 51.2446 99.6659 51.4059 98.7258 51.7285C97.7858 52.0511 96.952 52.5054 96.227 53.0888C95.5021 53.6721 94.8754 54.3576 94.347 55.1426C93.8185 55.9276 93.4149 56.7986 93.1334 57.7557C92.8519 58.7127 92.7139 59.7155 92.7139 60.7612C92.7139 62.0758 92.9343 63.3124 93.3724 64.4765C93.8132 65.6405 94.4187 66.6513 95.1941 67.5089C95.9695 68.3665 96.9201 69.044 98.0487 69.5467C99.1773 70.0494 100.393 70.2967 101.703 70.2967C102.935 70.2967 104.098 70.0601 105.192 69.587V69.5897ZM71.8951 48.6237H87.2038V51.3631H74.832V59.8958H85.3397V62.6352H74.832V72.9207H71.8951V48.6237ZM132.255 72.918L132.256 72.9207L132.254 72.918H132.255ZM135.801 72.918H132.255L126.136 63.6514H121.648V72.9207H118.711V48.6237H127.222C128.573 48.6237 129.763 48.8118 130.785 49.1909C131.808 49.57 132.636 50.0996 133.268 50.777C133.9 51.4545 134.373 52.2475 134.686 53.1481C134.999 54.0487 135.156 55.0514 135.156 56.1537C135.156 58.1699 134.652 59.7802 133.648 60.9873C132.644 62.1943 131.237 62.9928 129.434 63.3826L129.418 63.4148L135.801 72.918ZM126.433 60.9147H121.65H121.648V51.3631H126.845C128.507 51.3631 129.797 51.769 130.721 52.5809C131.646 53.3927 132.108 54.6159 132.108 56.0864C132.108 57.557 131.638 58.7291 130.698 59.6028C129.758 60.4792 128.334 60.9147 126.433 60.9147ZM154.148 60.8636C154.743 61.197 155.269 61.619 155.731 62.1244C156.193 62.6298 156.557 63.2428 156.819 63.9605C157.082 64.6783 157.215 65.4714 157.215 66.3397C157.215 67.3183 157.05 68.2081 156.721 69.0038C156.392 69.7996 155.901 70.4905 155.253 71.0739C154.605 71.6572 153.766 72.1115 152.738 72.4341C151.71 72.7567 150.531 72.918 149.201 72.918H140.459V48.6237H148.295C149.482 48.6237 150.547 48.7393 151.487 48.9731C152.427 49.207 153.237 49.5592 153.92 50.035C154.602 50.5082 155.123 51.1265 155.486 51.8873C155.85 52.6508 156.031 53.5379 156.031 54.5514C156.031 55.8096 155.707 56.9386 155.056 57.9414C154.408 58.9441 153.455 59.6619 152.202 60.0947V60.1458C152.905 60.291 153.553 60.5302 154.148 60.8636ZM148.261 59.0597H143.396V51.3631H147.685C148.619 51.3631 149.429 51.4518 150.117 51.6292C150.802 51.8093 151.357 52.0647 151.774 52.3981C152.191 52.7314 152.502 53.1239 152.706 53.5756C152.911 54.0272 153.012 54.5487 153.012 55.1375C153.012 55.694 152.921 56.1994 152.741 56.6564C152.56 57.1134 152.316 57.4844 152.008 57.7747C151.7 58.0624 151.339 58.307 150.927 58.5086C150.513 58.7076 150.085 58.85 149.639 58.9334C149.193 59.0167 148.734 59.0597 148.261 59.0597ZM152.581 69.1383C153.614 68.442 154.132 67.4204 154.132 66.0736C154.132 65.173 153.92 64.3987 153.497 63.7535C153.075 63.1083 152.438 62.611 151.593 62.2588C150.746 61.9094 149.719 61.7319 148.508 61.7319H143.393V70.1813H148.375C150.146 70.1813 151.548 69.8345 152.581 69.1383ZM163.891 69.5816C164.929 70.6838 166.204 71.5522 167.709 72.1866C169.215 72.821 170.848 73.1383 172.609 73.1383C174.282 73.1383 175.854 72.8399 177.328 72.2377C178.801 71.6355 180.071 70.8021 181.13 69.7322C182.19 68.6622 183.029 67.3557 183.645 65.8072C184.261 64.2587 184.569 62.5785 184.569 60.7639C184.569 58.9493 184.261 57.2691 183.645 55.7206C183.029 54.1721 182.192 52.8683 181.13 51.8037C180.068 50.7392 178.801 49.9085 177.328 49.3063C175.854 48.7068 174.369 48.4057 172.609 48.4057C170.848 48.4057 169.215 48.7229 167.709 49.3574C166.204 49.9918 164.929 50.8574 163.891 51.9543C162.853 53.0511 162.04 54.3603 161.451 55.8792C160.864 57.3981 160.569 59.0273 160.569 60.7639C160.569 62.5006 160.861 64.1297 161.451 65.6486C162.037 67.1675 162.853 68.4794 163.891 69.5816ZM178.934 67.6353C178.137 68.466 177.192 69.1165 176.098 69.5897L176.101 69.587C175.007 70.0601 173.844 70.2967 172.611 70.2967C171.302 70.2967 170.086 70.0494 168.958 69.5467C167.829 69.044 166.878 68.3665 166.103 67.5089C165.327 66.6513 164.722 65.6405 164.281 64.4765C163.84 63.3124 163.62 62.0758 163.62 60.7612C163.62 59.7155 163.758 58.7127 164.04 57.7557C164.321 56.7986 164.725 55.9276 165.253 55.1426C165.782 54.3576 166.408 53.6721 167.133 53.0888C167.858 52.5054 168.692 52.0511 169.632 51.7285C170.572 51.4059 171.565 51.2446 172.609 51.2446C173.841 51.2446 175.004 51.4784 176.098 51.9462C177.192 52.414 178.137 53.0646 178.934 53.8926C179.731 54.7206 180.36 55.7314 180.822 56.9223C181.284 58.1132 181.515 59.3929 181.515 60.7639C181.515 62.135 181.284 63.4146 180.822 64.6055C180.36 65.7965 179.731 66.8046 178.934 67.6353ZM189.622 48.6237H192.557V70.184H204.435V72.9234H189.622V48.6237ZM223.291 48.6237H208.609V72.9234H224V70.184H211.562V62.2346H221.196V59.4952H211.562V51.3631H223.291V48.6237ZM63.8596 52.8927C63.8363 53.1634 63.8194 53.397 63.8043 53.6067C63.7778 53.9718 63.7566 54.2648 63.7162 54.5567C63.3524 57.1322 62.245 59.0812 60.7367 61.0786C57.52 65.3403 55.4123 67.5031 51.1848 71.841L51.1848 71.841L51.1844 71.8414C50.3238 72.7245 49.3754 73.6977 48.3118 74.7971C48.9473 75.4021 49.5588 76.0468 50.1695 76.6907C50.6715 77.2199 51.173 77.7486 51.6869 78.2543C51.9695 78.5338 52.061 78.6382 52.1922 78.7881C52.2731 78.8804 52.369 78.99 52.534 79.1683C54.584 77.144 59.2736 72.4717 60.8031 70.6141C63.3444 67.5279 65.5245 64.2885 65.6547 60.0597C65.7317 57.5784 65.1714 55.2826 63.8596 52.8954V52.8927Z" fill="white"/>
</svg>
