<svg width="261" height="120" viewBox="0 0 261 120" fill="none" xmlns="http://www.w3.org/2000/svg">
<path fill-rule="evenodd" clip-rule="evenodd" d="M56 75.1106V45H63.391L71.6889 67.9332H71.819L80.117 45H87.5513V75.1106H82.2346V53.8334H82.0611C82.0271 53.9563 81.993 54.0806 81.9584 54.2067C81.73 55.0402 81.4796 55.9542 81.0674 57.0615L74.2811 75.1106H69.3112L62.5261 57.0615C62.0503 55.7878 61.748 54.7681 61.5324 53.8334H61.3589V75.1106H56ZM111.793 56.507V51.8537H117.034V75.2483H111.793V70.6789H111.62C109.558 74.3592 106.465 75.8823 102.641 75.8823C95.8974 75.8823 90.9134 70.3829 90.9134 63.5294C90.9134 56.6759 95.8962 51.1766 102.641 51.1766C106.852 51.1766 110.117 53.4188 111.62 56.507H111.793ZM96.3438 63.5294C96.3438 67.776 99.2758 70.9924 103.543 70.9924C107.853 70.9924 110.827 67.818 110.827 63.5294C110.827 59.2409 107.811 56.0665 103.543 56.0665C99.2747 56.0665 96.3438 59.2829 96.3438 63.5294ZM171.602 63.5935C171.602 56.5594 165.874 51.1766 158.542 51.1766C151.209 51.1766 145.481 56.5582 145.481 63.4234C145.481 70.2885 151.209 75.8823 158.542 75.8823C164.53 75.8823 169.302 72.2801 170.994 67.2376H165.006C163.877 69.6103 161.491 70.9248 158.627 70.9248C154.983 70.9248 151.902 68.509 151.295 65.2891H171.428C171.558 64.654 171.601 63.9758 171.601 63.5935H171.602ZM151.43 61.2139C151.821 58.0872 154.692 55.8089 158.52 55.8089C162.347 55.8089 165.175 58.2655 165.654 61.2139H151.43ZM188.154 68.3818C188.154 72.492 191.983 75.882 197.12 75.882L197.121 75.8832C201.996 75.8832 206 72.5363 206 68.3829C206 62.9242 201.64 61.8345 198.427 61.0316L198.339 61.0097C198.225 60.9808 198.111 60.9522 197.997 60.9237L197.995 60.9231L197.991 60.9223L197.99 60.922C195.945 60.4103 194.074 59.9422 194.074 58.2979C194.074 56.8563 195.597 56.0091 197.294 56.0091C198.991 56.0091 200.514 56.8994 200.514 58.4669L205.955 58.5088C205.955 54.3555 202.212 51.1775 197.294 51.1775C192.376 51.1775 188.633 54.3123 188.633 58.3387C188.633 62.619 191.853 64.4417 196.38 65.5429L196.594 65.5969L196.731 65.6311L196.731 65.6312C198.78 66.1442 200.689 66.6222 200.689 68.4668C200.689 69.9923 199.34 71.0097 197.207 71.0097C195.205 71.0097 193.638 69.9072 193.595 68.3818H188.154ZM173.929 51.6916V75.1107H179.312V56.6455H188.153V51.6916H173.929ZM135.205 51.6251H131.775H127.957V45H122.533V51.6251H118.845V56.5942H122.533V75.1106H131.645V70.1415H127.957V56.5942H131.775H135.205V75.1106H144.318V70.1415H140.629V56.5942H144.448V51.6251H140.629V45H135.205V51.6251Z" fill="white"/>
</svg>
