<svg width="261" height="120" viewBox="0 0 261 120" fill="none" xmlns="http://www.w3.org/2000/svg">
<path fill-rule="evenodd" clip-rule="evenodd" d="M35 81.0436V40H51.4923H51.4924V40.0001L70.3546 58.3515V81.0435L51.4924 62.6923V81.0436H35ZM51.4923 62.692V40.0001L39.8304 51.3461L51.4923 62.692ZM70.3547 58.3515V40H86.8471V81.0435H70.3547L82.0167 69.6974L70.3547 58.3515ZM180.949 59.2981C183.337 59.2981 184.91 61.0752 184.91 63.7846C184.91 66.4941 183.337 68.2711 180.949 68.2711C178.559 68.2711 176.986 66.4941 176.986 63.7846C176.986 61.0752 178.559 59.2981 180.949 59.2981ZM177.22 71.1263V69.291C178.064 70.5729 179.696 71.3595 181.472 71.3596C185.872 71.3596 188.464 68.2712 188.464 63.7847C188.464 59.2982 185.872 56.21 181.531 56.21C179.608 56.21 178.064 57.0257 177.22 58.2202V50.1503H173.665V71.1263H177.22ZM117.257 50.7328H113.091V71.1263H116.936V56.7633L125.793 71.1263H129.93V50.7328H126.084V65.1247L117.257 50.7328ZM142.387 71.1262H145.97V56.4431H142.387V64.4548C142.387 66.6104 140.988 68.184 138.978 68.184C137.142 68.184 135.919 66.7852 135.919 64.7751V56.4431H132.336V65.5325C132.336 68.9704 134.492 71.3595 137.813 71.3595C139.91 71.3595 141.571 70.4562 142.387 68.8537V71.1262ZM148.522 56.4432H152.106V58.7446C152.834 57.2588 154.29 56.21 156.359 56.21C158.69 56.21 160.292 57.2006 160.933 59.007C161.603 57.4918 163.468 56.21 165.798 56.21C168.974 56.21 171.013 58.5117 171.013 61.6288V71.1263H167.459V62.7069C167.459 60.6384 166.38 59.2692 164.662 59.2692C162.74 59.2692 161.544 60.6384 161.544 62.7069V71.1263H157.99V62.7069C157.99 60.6384 156.913 59.2692 155.194 59.2692C153.3 59.2692 152.105 60.6384 152.105 62.7069V71.1263H148.522V56.4432H148.522ZM193.004 62.1534H200.23C200.084 60.2889 198.801 58.8903 196.675 58.8903C194.664 58.8903 193.383 59.9393 193.004 62.1534ZM203.87 66.2321C203.317 69.3494 200.579 71.3596 196.966 71.3596C192.159 71.3596 189.479 67.5719 189.479 63.7263C189.479 59.8516 191.868 56.21 196.675 56.21C201.599 56.21 203.813 59.7935 203.813 63.2892C203.813 63.7846 203.783 64.2218 203.754 64.513H192.916C193.179 66.873 194.694 68.3878 196.966 68.3878C198.801 68.3878 199.997 67.6304 200.374 66.2321H203.87ZM209.244 64.1926C209.244 61.3959 210.146 59.4439 212.419 59.4439H214.721V56.4433H213.001C211.108 56.4433 209.972 57.1714 209.244 59.0359V56.4433H205.659V71.1264H209.244V64.1926ZM215.229 66.2319H218.493C218.639 67.6303 219.716 68.5044 221.319 68.5044C222.717 68.5044 223.65 67.805 223.65 66.9311C223.65 65.5596 222.229 65.3153 220.582 65.0321C218.31 64.6416 215.608 64.1772 215.608 60.5802C215.608 58.0163 217.853 56.21 220.882 56.21C224.319 56.21 226.68 58.1039 226.825 60.9587H223.563C223.358 59.5894 222.105 58.8903 220.969 58.8903C219.688 58.8903 218.842 59.4729 218.842 60.4633C218.842 61.7615 220.205 61.9448 221.817 62.1615C224.149 62.475 227 62.8583 227 66.7855C227 69.5533 224.757 71.3596 221.319 71.3596C217.764 71.3595 215.405 69.3781 215.229 66.2319Z" fill="white"/>
</svg>
