<svg width="261" height="120" viewBox="0 0 261 120" fill="none" xmlns="http://www.w3.org/2000/svg">
<path fill-rule="evenodd" clip-rule="evenodd" d="M156.337 52.1053C155.908 52.8016 154.997 53.0158 154.3 52.5873C152.746 51.5698 151.46 51.5162 150.816 51.5162C149.959 51.5162 148.833 51.6233 148.083 52.4802C147.654 52.9087 147.386 53.5513 147.386 54.2476C147.386 54.9438 147.6 55.4258 148.029 55.8007C148.536 56.2684 149.185 56.5091 150.224 56.8946C150.613 57.0387 151.056 57.2032 151.567 57.4073L153.657 58.2107C154.89 58.6927 156.391 59.2818 157.463 60.3529C159.124 61.906 159.5 63.9411 159.5 65.5478C159.5 68.4398 158.481 70.939 157.034 72.4386C154.568 75.0628 150.942 75.277 149.119 75.277C147.082 75.277 145.314 75.0093 143.563 74.0988C142.544 73.5633 141.419 72.7599 140.454 71.9566C139.864 71.4746 139.757 70.6177 140.239 69.975L141.847 67.7257C142.33 67.0295 143.348 66.9224 143.991 67.4579C144.474 67.8864 145.01 68.2613 145.439 68.529C146.511 69.2253 147.69 69.5466 148.976 69.5466C149.834 69.5466 151.013 69.3859 151.924 68.5826C152.46 68.1006 152.943 67.3508 152.943 66.3333C152.943 65.4228 152.567 64.8337 151.978 64.2981C151.227 63.6555 149.512 63.0128 148.708 62.745L146.403 61.9417C145.117 61.4597 143.563 60.8706 142.491 59.6924C141.043 58.1393 140.829 56.1577 140.829 54.8188C140.829 52.3553 141.579 50.213 143.295 48.5171C145.117 46.5356 147.475 46 150.084 46C151.799 46 154.372 46.2678 157.141 47.928C157.838 48.3564 158.052 49.2669 157.624 49.9631L156.337 52.1053ZM111.224 72.099C114.011 69.207 114.333 65.9044 114.333 63.2266H114.225V48.0882C114.225 47.2849 113.582 46.6422 112.778 46.6422H109.276C108.472 46.6422 107.829 47.2849 107.829 48.0882V63.0124C107.829 64.2441 107.776 66.2793 106.382 67.7253C105.256 68.9035 103.702 69.1713 102.469 69.1713C101.236 69.1713 99.682 68.957 98.5564 67.7253C97.2164 66.2793 97.1092 64.2441 97.1092 63.0124V48.0882C97.1092 47.2849 96.466 46.6422 95.6621 46.6422H92.1245C91.3205 46.6422 90.6773 47.2849 90.6773 48.0882V63.2266C90.6773 65.9579 90.9989 69.2605 93.7861 72.099C96.466 74.8838 99.557 75.3123 102.505 75.3123C105.453 75.3123 108.544 74.8838 111.224 72.099ZM134.665 49.1058C133.325 47.8204 131.145 46.6422 127.554 46.6422H119.21C118.406 46.6422 117.763 47.2849 117.763 48.0882V73.2236C117.763 74.027 118.406 74.6696 119.21 74.6696H122.748C123.552 74.6696 124.195 74.027 124.195 73.2236V68.4036C124.195 66.9576 126.071 66.3685 126.875 67.5467L131.324 74.0091C131.592 74.4376 132.074 74.6518 132.557 74.6518H136.738C137.97 74.6518 138.667 73.2593 137.917 72.2953L132.253 64.7619C131.663 64.0121 131.931 62.9945 132.789 62.5661C133.593 62.1376 134.343 61.6021 134.933 61.0665C136.755 59.317 137.131 57.1213 137.131 55.3539C137.131 52.2656 135.844 50.2304 134.665 49.1058ZM125.678 59.317C124.874 59.317 124.231 58.6744 124.231 57.871V53.1046C124.231 52.3013 124.874 51.6586 125.678 51.6586H125.732C126.589 51.6586 128.251 51.7121 129.323 52.5155C129.859 52.8904 130.609 53.7473 130.609 55.3539C130.609 56.7464 130.02 57.6033 129.537 58.0853C128.465 59.2099 126.857 59.317 125.678 59.317ZM177.152 47.1778L170.631 55.1397C169.719 56.1573 168.004 55.5681 168.04 54.1936V48.0882C168.04 47.2849 167.397 46.6422 166.593 46.6422H163.055C162.251 46.6422 161.608 47.2849 161.608 48.0882V73.1165C161.608 73.9198 162.251 74.5625 163.055 74.5625H166.593C167.397 74.5625 168.04 73.9198 168.04 73.1165V66.3328C168.04 64.9404 169.809 64.3513 170.666 65.4224L177.616 74.0805C177.884 74.4018 178.313 74.6161 178.742 74.6161H183.244C184.477 74.6161 185.174 73.1701 184.37 72.2061L174.954 60.8166C174.472 60.281 174.472 59.4777 174.954 58.9421L183.405 49.0522C184.209 48.0882 183.512 46.6422 182.28 46.6422H178.278C177.849 46.6422 177.42 46.8564 177.152 47.1778ZM201.558 46.6422H197.484C197.002 46.6422 196.519 46.91 196.251 47.3384L192.285 53.4259C191.695 54.3364 190.409 54.3364 189.819 53.4259L187.3 49.5699C186.979 49.195 186.711 49.1415 186.389 49.5164L182.905 53.1581C182.583 53.533 182.637 53.9615 183.012 54.497L187.515 61.2272C187.675 61.495 187.783 61.7627 187.783 62.0305V73.1522C187.783 73.9556 188.426 74.5982 189.23 74.5982H192.767C193.571 74.5982 194.215 73.9556 194.215 73.1522V61.977C194.215 61.7092 194.322 61.3879 194.483 61.1736L202.719 48.8737C203.416 47.9276 202.737 46.6422 201.558 46.6422ZM81.5834 60.9242C81.5834 56.4969 77.9565 52.9087 73.5613 52.9087C69.1661 52.9087 65.5392 56.4969 65.5392 60.9242C65.5392 65.3514 69.1661 68.9397 73.5613 68.9397C77.9922 68.9397 81.5834 65.3514 81.5834 60.9242ZM59 60.9242C59 52.8551 65.5213 46.3214 73.5613 46.3214C81.637 46.3214 88.1226 52.8908 88.1226 60.9242C88.1226 68.9575 81.6013 75.4734 73.5613 75.4734C65.5213 75.4734 59 68.9932 59 60.9242Z" fill="white"/>
</svg>
