<svg width="261" height="120" viewBox="0 0 261 120" fill="none" xmlns="http://www.w3.org/2000/svg">
<path fill-rule="evenodd" clip-rule="evenodd" d="M94 28C94 28 94.0303 34.7125 96.1954 37.4259C98.3651 40.1417 104.979 41.7555 104.979 41.7555C104.979 41.7555 105.206 34.9879 103.038 32.2745C100.871 29.561 94 28 94 28ZM164.532 46.4755C165.664 48.5708 166.512 50.8026 167.056 53.1144C167.704 55.8038 168.02 58.5599 167.999 61.3237C168 66.4813 167.234 70.6181 165.698 73.734C164.163 76.8499 162.358 79.3752 160.281 81.3096C157.332 84.1394 153.205 85.5543 147.9 85.5543H137.711L127.019 85.5359C135.068 82.4161 138.283 75.1412 138.283 75.1412H143.371C146.618 75.1397 149.428 74.1963 151.803 72.3108C154.178 70.4251 155.366 66.5425 155.366 60.6625C155.372 56.5764 154.737 53.39 153.462 51.1035C152.186 48.817 150.653 47.2866 148.861 46.5122C147.138 45.7516 145.272 45.3559 143.383 45.3506H138.215V62.5451C138.217 66.8134 137.565 70.4543 136.258 73.4676C134.952 76.4811 133.224 78.8624 131.076 80.6118C129.032 82.3055 126.671 83.5897 124.126 84.3926C121.722 85.1463 119.215 85.5334 116.691 85.5406C113.211 85.5361 109.772 84.7996 106.605 83.3803C103.336 81.9386 100.602 79.4899 98.4048 76.0343C96.207 72.5784 95.1082 68.0798 95.1082 62.5381V54.5033C95.1082 54.5033 105.439 50.8441 105.439 41.751H107.375V54.5033H107.389V58.6516C107.392 61.9389 107.781 64.6562 108.556 66.8034C109.33 68.9507 110.41 70.5223 111.794 71.5186C113.219 72.4878 114.91 73.0084 116.643 73.0111C118.376 73.014 120.068 72.4993 121.497 71.5348C122.889 70.5521 123.974 68.9935 124.752 66.8585C125.222 65.4908 125.535 64.0756 125.685 62.6392V35.2658H142.795C145.007 35.2375 147.217 35.4019 149.4 35.7571C151.093 36.0431 152.75 36.5048 154.344 37.1345C155.665 37.6504 156.918 38.3201 158.077 39.1294C159.07 39.8361 159.994 40.6315 160.839 41.5054C162.299 42.9845 163.543 44.6574 164.532 46.4755Z" fill="white"/>
</svg>
