<svg width="64" height="64" viewBox="0 0 64 64" fill="none" xmlns="http://www.w3.org/2000/svg">
<path d="M54.0255 20.4381C52.1657 9.2397 38.0193 10.0113 38.0193 10.0113H20.9052C17.9374 10.0113 17.9374 11.4952 18.1352 13.9684C19.817 22.476 29.8283 20.359 37.4258 20.5766C45.0233 20.7942 44.7067 29.3019 41.2245 36.4047C40.5473 37.8043 39.5932 39.0519 38.42 40.0721C37.2467 41.0924 35.8787 41.864 34.3986 42.3403C36.0151 40.9995 37.2786 39.2833 38.0788 37.3415C38.8789 35.3998 39.1914 33.2916 38.9888 31.2012C38.8785 29.6635 38.2178 28.217 37.1276 27.1268C36.0375 26.0367 34.591 25.3759 33.0532 25.2657C29.5315 25.1074 25.9899 25.2657 22.4484 25.2657C21.3404 25.2657 21.1228 25.8395 21.1624 26.7694C21.2515 27.7559 21.7074 28.6732 22.4401 29.3399C23.1727 30.0066 24.1288 30.3743 25.1194 30.3703C26.9396 30.3703 28.7796 30.3703 30.5999 30.3703C31.2305 30.3189 31.8593 30.4881 32.379 30.849C32.8986 31.2098 33.2768 31.74 33.4489 32.3488C34.913 36.8004 28.9577 42.9932 25.8119 43.2108H18.9662C18.9662 43.2108 23.2398 40.0254 23.2398 36.286C23.2398 33.0808 19.9555 31.5574 17.7 30.5088C15.4444 29.4601 14.7322 30.8055 14.7322 30.8055L8.302 53.1826C8.302 53.1826 26.4252 54.251 32.3014 52.6286C47.2194 49.4234 56.004 32.2894 54.0255 20.4381Z" fill="#FF715E"/>
</svg>
