<svg width="64" height="64" viewBox="0 0 64 64" fill="none" xmlns="http://www.w3.org/2000/svg">
<path d="M28.9903 39.9839L10.668 54.296L45.031 48.6611L58.4443 22.7332L37.3563 28.2991L42.6456 29.3016L36.1464 34.418" fill="#07D6A0"/>
<path opacity="0.5" d="M22.0761 45.3769L5.10205 44.236L10.6679 54.296L22.0761 45.3769ZM57.2342 25.084L60.9333 27.0891L54.6415 30.0967L57.2342 25.084Z" fill="#07D6A0"/>
<path d="M22.422 23.8049L15.7154 21.1775L15.6462 13.9869L22.3183 16.6143L22.422 23.8049ZM29.1633 33.6229L22.4912 30.9955L22.422 23.8049L29.0941 26.4323L29.1633 33.6229Z" fill="#07D6A0"/>
<path opacity="0.7" d="M29.2322 40.8136L22.5601 38.1862L22.491 30.9956L29.1631 33.6229L29.2322 40.8136Z" fill="#07D6A0"/>
<path opacity="0.5" d="M22.5603 38.1862L15.8882 35.5243L15.7845 28.3682L22.4911 30.9956L22.5603 38.1862ZM15.7845 28.3682L9.11237 25.7063L9.04323 18.5502L15.7153 21.1776L15.7845 28.3682ZM9.04323 18.5502L2.37114 15.8883L2.302 8.7322L8.97409 11.3596L9.04323 18.5502Z" fill="#07D6A0"/>
<path opacity="0.7" d="M22.4912 30.9956L15.7845 28.3682L15.7154 21.1776L22.422 23.8049L22.4912 30.9956ZM15.7154 21.1776L9.04326 18.5502L8.97412 11.3596L15.6462 13.9869L15.7154 21.1776Z" fill="#07D6A0"/>
<path d="M22.3528 16.6143L35.697 21.9036L35.9044 43.4409L29.2323 40.8136L29.094 26.4323L22.4219 23.8049L22.3528 16.6143Z" fill="#07D6A0"/>
</svg>
