<svg width="64" height="64" viewBox="0 0 64 64" fill="none" xmlns="http://www.w3.org/2000/svg">
<path d="M24.75 5.91784C29.2363 3.32766 34.7637 3.32766 39.25 5.91784L50.9628 12.6802C55.4491 15.2704 58.2128 20.0573 58.2128 25.2376V38.7624C58.2128 43.9427 55.4491 48.7296 50.9628 51.3198L39.25 58.0822C34.7637 60.6723 29.2363 60.6723 24.75 58.0822L13.0372 51.3198C8.55087 48.7296 5.78719 43.9427 5.78719 38.7624V25.2376C5.78719 20.0573 8.55087 15.2704 13.0372 12.6802L24.75 5.91784Z" stroke="#AAF1E7" stroke-width="3"/>
<path fill-rule="evenodd" clip-rule="evenodd" d="M33.5726 20.2828C32.6444 19.7469 31.5008 19.7469 30.5726 20.2828L22.6133 24.8781C21.6851 25.414 21.1133 26.4043 21.1133 27.4761V36.6667C21.1133 37.7385 21.6851 38.7289 22.6133 39.2648L30.5726 43.8601C31.5008 44.396 32.6444 44.396 33.5726 43.8601L41.5319 39.2648C42.4601 38.7289 43.0319 37.7385 43.0319 36.6667V27.4761C43.0319 26.4043 42.4601 25.414 41.5319 24.8781L33.5726 20.2828ZM31.5726 22.0148C31.882 21.8362 32.2632 21.8362 32.5726 22.0148L40.5319 26.6101C40.8413 26.7887 41.0319 27.1189 41.0319 27.4761V36.6667C41.0319 37.024 40.8413 37.3541 40.5319 37.5328L32.5726 42.1281C32.2632 42.3067 31.882 42.3067 31.5726 42.1281L23.6133 37.5328C23.3039 37.3541 23.1133 37.024 23.1133 36.6667V27.4761C23.1133 27.1189 23.3039 26.7887 23.6133 26.6101L31.5726 22.0148ZM27.039 27.1868C26.5504 26.9293 25.9456 27.1165 25.688 27.605C25.4304 28.0936 25.6176 28.6984 26.1062 28.956L31.156 31.6185V38.0714C31.156 38.6237 31.6037 39.0714 32.156 39.0714C32.7083 39.0714 33.156 38.6237 33.156 38.0714V31.6099L38.0501 28.9501C38.5353 28.6863 38.7149 28.0792 38.4512 27.5939C38.1875 27.1087 37.5803 26.9291 37.0951 27.1928L32.1488 29.881L27.039 27.1868Z" fill="#28646E"/>
</svg>
