<svg width="64" height="64" viewBox="0 0 64 64" fill="none" xmlns="http://www.w3.org/2000/svg">
<path d="M24.75 5.91784C29.2363 3.32766 34.7637 3.32766 39.25 5.91784L50.9628 12.6802C55.4491 15.2704 58.2128 20.0573 58.2128 25.2376V38.7624C58.2128 43.9427 55.4491 48.7296 50.9628 51.3198L39.25 58.0822C34.7637 60.6723 29.2363 60.6723 24.75 58.0822L13.0372 51.3198C8.55087 48.7296 5.78719 43.9427 5.78719 38.7624V25.2376C5.78719 20.0573 8.55087 15.2704 13.0372 12.6802L24.75 5.91784Z" stroke="#AAF1E7" stroke-width="3"/>
<path fill-rule="evenodd" clip-rule="evenodd" d="M25.6179 24.5821C25.7139 24.5054 25.6755 24.3999 25.6179 24.3136C25.291 23.4868 24.9229 22.677 24.515 21.887C24.5013 21.8529 24.4808 21.8217 24.455 21.7955C24.4293 21.7693 24.3985 21.7484 24.3647 21.7341C24.3308 21.7199 24.2942 21.7125 24.2574 21.7124C24.2206 21.7122 24.1846 21.7194 24.1506 21.7334C23.8782 21.8662 23.626 22.0374 23.4022 22.2418C23.1575 22.4162 22.9434 22.6301 22.769 22.8748C22.7019 22.9899 22.7118 23.1147 22.8748 23.2298C23.2106 23.4696 24.8889 24.3999 25.3013 24.5821C25.3291 24.5821 25.3579 24.5911 25.3877 24.6003C25.4505 24.6198 25.5178 24.6407 25.5894 24.5821H25.6179ZM37.1758 32.6871C36.9264 32.9269 36.6485 33.0325 36.4087 32.8023L36.3895 32.8503C36.3382 32.8045 36.2972 32.7483 36.2691 32.6855C36.241 32.6227 36.2265 32.5545 36.2265 32.4857C36.2265 32.4169 36.241 32.349 36.2691 32.2862C36.2972 32.2234 36.3382 32.1672 36.3895 32.1214C38.0431 30.408 39.4477 28.4707 40.562 26.3663C40.8462 25.7805 41.068 25.1663 41.2238 24.5341C41.3101 24.0354 41.1181 23.7381 40.8303 23.671C40.6847 23.6609 40.5407 23.7041 40.4243 23.7923C40.3079 23.8804 40.2274 24.0076 40.1976 24.1506C40.0488 24.6128 39.8693 25.0645 39.6604 25.5029C38.611 27.7324 37.1082 29.7186 35.2481 31.3348C35.2014 31.3863 35.1445 31.4274 35.0809 31.4556C35.0173 31.4838 34.9481 31.4982 34.8786 31.4982C34.809 31.4982 34.7403 31.4838 34.6767 31.4556C34.6131 31.4274 34.5563 31.3863 34.5095 31.3348C34.4618 31.2784 34.4263 31.2125 34.4056 31.1416C34.3849 31.0706 34.3792 30.9961 34.3892 30.9229C34.3991 30.8496 34.4243 30.7792 34.4632 30.7163C34.502 30.6534 34.5538 30.5994 34.6149 30.5578C36.5611 28.9008 38.0784 26.7982 39.037 24.4288C39.1713 23.9588 38.979 23.6998 38.816 23.6998C38.6603 23.6547 38.4939 23.6667 38.3462 23.7335C38.1985 23.8003 38.0794 23.9174 38.0104 24.0641C37.4441 25.4253 36.6277 26.6682 35.6031 27.7283C34.0596 29.3621 32.3417 30.8224 30.4808 32.0829C30.2671 32.2856 29.9983 32.4203 29.708 32.4698C29.4177 32.5193 29.1193 32.4815 28.8505 32.3611C28.6242 32.1904 28.4546 31.9554 28.3639 31.6867C28.2732 31.4181 28.2654 31.1282 28.3419 30.8552C28.3701 30.6832 28.4129 30.4291 28.465 30.1194L28.4652 30.1176L28.4653 30.1175L28.4653 30.1174L28.4653 30.1173L28.4653 30.1171L28.4653 30.117C28.6253 29.1656 28.8733 27.6912 29.0613 26.4621C29.2051 25.5605 28.7065 25.4455 28.4571 25.4167C28.2077 25.388 27.949 25.5317 27.7667 25.9729C27.0709 27.7891 26.4784 29.6433 25.9922 31.5265C25.6107 33.1567 25.5679 34.848 25.8671 36.4952C25.9817 36.8834 25.9817 37.2964 25.8671 37.6846C25.6868 38.1476 25.4787 38.5992 25.2438 39.037C25.1647 39.1993 25.0314 39.4611 24.887 39.7446L24.887 39.7447L24.8869 39.7447C24.6987 40.1144 24.4917 40.5209 24.3614 40.7923C24.3016 40.9203 24.2067 41.0288 24.0879 41.1052C23.9691 41.1816 23.8315 41.2227 23.6902 41.2239C23.5656 41.2237 23.4431 41.1905 23.3352 41.1279C23.1753 41.0334 23.0548 40.8842 22.9966 40.7078C22.9384 40.5314 22.9464 40.3398 23.0186 40.1687C23.4757 39.2477 23.9914 38.357 24.5628 37.5022C24.636 37.378 24.6632 37.232 24.6396 37.0898C24.2548 35.0514 24.2906 32.956 24.745 30.932C25.1851 29.2296 25.743 27.5599 26.4142 25.9347C27.0088 24.3233 28.0831 24.1218 28.7929 24.2178C29.0404 24.2511 29.2781 24.3359 29.4907 24.4669C29.7034 24.598 29.8864 24.7722 30.0275 24.9784C30.1685 25.1845 30.2648 25.4181 30.3099 25.6638C30.355 25.9095 30.3479 26.1619 30.2893 26.4047C30.2293 27.0172 29.9845 28.6372 29.8211 29.7185L29.821 29.7189C29.749 30.1952 29.6929 30.5669 29.6753 30.7018C29.6369 30.98 29.9342 31.0183 30.1356 30.8744C31.7767 29.7753 33.2835 28.4876 34.6247 27.0377C35.5826 26.0594 36.3701 24.928 36.9552 23.6902C37.0806 23.3201 37.3244 23.0015 37.6484 22.7832C37.9724 22.5649 38.3589 22.4588 38.749 22.4816C38.8978 22.4866 39.0443 22.5216 39.1794 22.5842C39.3145 22.6468 39.4353 22.7359 39.5354 22.8462C39.5617 22.8698 39.596 22.8827 39.6314 22.8827C39.6668 22.8827 39.701 22.8698 39.7274 22.8462C39.9289 22.6978 40.1602 22.5943 40.4051 22.543C40.65 22.4916 40.9028 22.4937 41.1469 22.5488C41.5698 22.6761 41.9275 22.9614 42.1455 23.3455C42.3634 23.7295 42.4249 24.1827 42.3173 24.6109C42.2996 24.6857 42.2804 24.775 42.2599 24.8705L42.2599 24.8707L42.2599 24.8708C42.2252 25.0325 42.1867 25.212 42.1445 25.3687C42.1401 25.3813 42.1383 25.3945 42.1394 25.4078C42.1404 25.4211 42.1443 25.434 42.1506 25.4458C42.1569 25.4575 42.1659 25.4678 42.1764 25.476C42.1869 25.4842 42.1986 25.4901 42.2115 25.4933C42.4166 25.5358 42.6109 25.6212 42.781 25.7434C42.9512 25.8656 43.0935 26.0222 43.1992 26.2031C43.305 26.3839 43.3718 26.585 43.395 26.7932C43.4182 27.0014 43.3976 27.212 43.3341 27.4117C43.1216 28.2468 42.7784 29.0433 42.3173 29.7714C42.3113 29.7852 42.3083 29.7999 42.3085 29.815C42.3086 29.83 42.3119 29.8449 42.3183 29.8585C42.3246 29.8722 42.3336 29.8843 42.345 29.8941C42.3564 29.9039 42.3699 29.911 42.3843 29.9152C43.1804 30.1358 43.641 31.4116 42.7585 32.8983C42.0894 34.0209 41.3152 35.0773 40.4468 36.0538C38.6868 37.9551 36.5417 39.4594 34.1545 40.4661C33.3859 40.8171 32.7385 41.3878 32.2938 42.1063C32.0853 42.4139 31.8964 42.7342 31.728 43.0655C31.6712 43.2018 31.5751 43.3184 31.4522 43.4003C31.3293 43.4823 31.1849 43.5258 31.0372 43.5258C30.9281 43.5268 30.82 43.5041 30.7206 43.4589C30.5407 43.3665 30.4046 43.2068 30.3417 43.0146C30.2788 42.8225 30.2947 42.6133 30.3853 42.4325C30.4236 42.3366 30.5672 42.087 31.018 41.3197C31.6308 40.4651 32.472 39.8003 33.445 39.4013C36.6103 37.7995 38.2502 36.7541 39.8904 34.9221C40.7708 33.9411 41.5365 32.8632 42.1731 31.709C42.2594 31.3733 42.2117 31.0949 41.9239 31.0374C41.8076 31.02 41.6888 31.0393 41.5839 31.0926C41.4791 31.1459 41.3935 31.2305 41.339 31.3348C40.5621 32.4129 39.6956 33.4237 38.749 34.3563C38.4517 34.6536 38.1353 34.6727 37.9435 34.4905C37.8947 34.4482 37.8555 34.3958 37.8287 34.3371C37.8019 34.2784 37.788 34.2146 37.788 34.15C37.788 34.0854 37.8019 34.0216 37.8287 33.9629C37.8555 33.9041 37.8947 33.8518 37.9435 33.8095C39.6347 32.1346 41.0349 30.1896 42.0869 28.0545C42.4226 27.4214 42.4226 26.8458 42.0869 26.7115C42.0203 26.6861 41.9492 26.6747 41.878 26.678C41.8069 26.6813 41.7373 26.6994 41.6734 26.7309C41.6094 26.7624 41.5526 26.8067 41.5066 26.8611C41.4606 26.9156 41.4263 26.979 41.4059 27.0473C40.2939 29.1333 38.867 31.0355 37.1758 32.6871ZM31.3729 28.2655C31.2891 28.2661 31.206 28.2483 31.1298 28.2135C31.0536 28.1787 30.9862 28.1278 30.9317 28.0641C30.8281 27.9394 30.7753 27.7801 30.7842 27.6182C30.7931 27.4564 30.8629 27.3037 30.9795 27.1911C31.9764 26.3174 32.8367 25.299 33.531 24.1698C33.7078 23.7698 34.0057 23.4354 34.3825 23.2134C34.7593 22.9915 35.196 22.8931 35.6316 22.9324C35.7897 22.9584 35.9314 23.0453 36.0264 23.1743C36.1214 23.3034 36.1623 23.4643 36.1402 23.623C36.121 23.7819 36.0394 23.9269 35.9135 24.0258C35.7876 24.1247 35.6275 24.1695 35.4686 24.1506C35.0071 24.086 34.6877 24.5275 34.5275 24.7489L34.5094 24.774C33.7646 26.0212 32.8292 27.1444 31.7373 28.1025C31.6309 28.2025 31.4903 28.2574 31.3443 28.2559L31.3729 28.2655ZM21.1962 38.4613C21.1051 38.4612 21.0148 38.4416 20.932 38.4035C20.8493 38.3654 20.776 38.3099 20.7166 38.2407C20.612 38.1144 20.5613 37.9519 20.5756 37.7886C20.59 37.6252 20.6684 37.4741 20.7934 37.368C21.5137 36.8041 22.2769 36.2973 23.0761 35.8524C23.2242 35.7816 23.394 35.771 23.5496 35.8229C23.7053 35.8748 23.8348 35.9851 23.9107 36.1306C23.9469 36.203 23.9679 36.2817 23.9735 36.3624C23.9791 36.4431 23.9689 36.5242 23.943 36.6008C23.9172 36.6775 23.8765 36.7484 23.8232 36.8092C23.7699 36.8701 23.7051 36.9199 23.6325 36.9556C22.921 37.362 22.238 37.8171 21.5891 38.3175C21.4786 38.4094 21.3399 38.4601 21.1962 38.4613ZM24.5334 25.5252C24.6095 25.5497 24.7065 25.5808 24.7065 25.6949C24.7255 25.8185 24.6316 25.8855 24.5645 25.9334L24.5627 25.9347C24.2078 26.1841 22.5772 27.1048 22.2223 27.2583C22.1922 27.2781 22.1582 27.2913 22.1226 27.2967C22.0869 27.3021 22.0505 27.2997 22.0158 27.2897C21.9812 27.2796 21.9489 27.2622 21.9217 27.2386C21.8944 27.215 21.8728 27.1858 21.858 27.1529C21.7324 26.8704 21.6543 26.5687 21.6275 26.2607C21.5549 25.9628 21.5324 25.6549 21.5606 25.3495C21.5798 25.2057 21.6659 25.1097 21.8673 25.1097C22.251 25.1289 24.0737 25.407 24.4957 25.5125C24.5072 25.5168 24.5199 25.5209 24.5333 25.5252L24.5334 25.5252L24.5334 25.5252ZM38.7296 39.9193C38.6096 39.9193 38.5698 40.0261 38.5414 40.1025L38.5381 40.1113C38.2614 40.9623 38.0277 41.8266 37.8379 42.7011C37.8279 42.7357 37.825 42.7721 37.83 42.8078C37.8349 42.8436 37.8475 42.8778 37.8665 42.9085C37.8854 42.9392 37.9102 42.9656 37.94 42.986C37.9698 43.0064 38.0038 43.0204 38.0393 43.027C38.3414 43.0717 38.6481 43.0717 38.9502 43.027C39.2565 43.0274 39.5608 42.9789 39.8518 42.8832C39.8865 42.8718 39.9185 42.8531 39.9455 42.8284C39.9724 42.8038 39.9937 42.7737 40.0082 42.7402C40.0227 42.7066 40.0298 42.6704 40.0293 42.6338C40.0288 42.5973 40.0208 42.5614 40.0054 42.5282C39.8903 42.1542 39.1613 40.4374 38.9502 40.0537C38.9502 39.977 38.8639 39.8809 38.7296 39.8905V39.9193ZM39.7927 39.192C39.7806 39.1436 39.7845 39.0926 39.8039 39.0466L39.8423 39.037C39.8999 38.9411 40.0051 38.941 40.0915 38.941C40.5231 38.9697 42.3647 39.2769 42.7484 39.3824C42.8207 39.3942 42.8856 39.4339 42.9287 39.4931C42.9718 39.5524 42.9899 39.6263 42.9788 39.6988C42.9056 39.9895 42.7957 40.27 42.6524 40.5333C42.5322 40.8061 42.3704 41.0585 42.1728 41.2815C42.1485 41.3083 42.1192 41.3297 42.0862 41.3443C42.0531 41.3589 42.0174 41.3665 41.9812 41.3665C41.9451 41.3665 41.9094 41.3589 41.8763 41.3443C41.8433 41.3297 41.8135 41.3083 41.7892 41.2815C41.4439 41.0226 40.1394 39.6605 39.8709 39.3152C39.8321 39.2838 39.8048 39.2404 39.7927 39.192Z" fill="#28646E"/>
</svg>
