<svg width="64" height="64" viewBox="0 0 64 64" fill="none" xmlns="http://www.w3.org/2000/svg">
<path d="M59.0962 37.5714C58.273 41.5217 51.7234 45.845 44.2012 46.6828C40.2786 47.1194 36.4166 47.5207 32.2984 47.3445C25.5634 47.0566 20.2491 45.845 20.2491 45.845C20.2491 46.4565 20.2895 47.0388 20.3704 47.5834C21.246 53.7833 26.9611 54.1547 32.3747 54.3279C37.8388 54.5023 42.7042 53.0713 42.7042 53.0713L42.9287 57.679C42.9287 57.679 39.1068 59.5933 32.2984 59.9454C28.5441 60.1379 23.8825 59.8573 18.453 58.5168C6.67732 55.6096 4.65218 43.901 4.34231 32.0208C4.24786 28.4935 4.30608 25.1675 4.30608 22.3857C4.30608 10.2376 12.8391 6.67678 12.8391 6.67678C17.1417 4.83363 24.5245 4.05853 32.1997 4H32.3883C40.0635 4.05853 47.4512 4.83363 51.7535 6.67678C51.7535 6.67678 60.2862 10.2376 60.2862 22.3857C60.2862 22.3857 60.3932 31.3486 59.0962 37.5714Z" fill="#AAF1E7"/>
<path fill-rule="evenodd" clip-rule="evenodd" d="M24.1569 17.049C24.2671 16.9667 24.223 16.8536 24.1569 16.7611C23.7811 15.8749 23.3582 15.007 22.8894 14.1602C22.8737 14.1236 22.8502 14.0901 22.8206 14.062C22.7909 14.0339 22.7556 14.0116 22.7167 13.9963C22.6777 13.981 22.6357 13.9731 22.5934 13.9729C22.5512 13.9728 22.5098 13.9804 22.4707 13.9955C22.1577 14.1378 21.8678 14.3214 21.6107 14.5405C21.3295 14.7274 21.0835 14.9566 20.8831 15.2189C20.8059 15.3423 20.8173 15.4761 21.0047 15.5994C21.3905 15.8565 23.3191 16.8537 23.7931 17.049C23.825 17.049 23.8581 17.0586 23.8923 17.0685C23.9645 17.0894 24.0418 17.1118 24.124 17.049H24.1569ZM37.4382 25.7365C37.1517 25.9935 36.8322 26.1067 36.5567 25.86L36.5346 25.9115C36.4757 25.8623 36.4286 25.8021 36.3963 25.7347C36.364 25.6674 36.3473 25.5944 36.3473 25.5206C36.3473 25.4469 36.364 25.3741 36.3963 25.3068C36.4286 25.2395 36.4757 25.1793 36.5346 25.1301C38.4348 23.2936 40.0489 21.217 41.3293 18.9614C41.6559 18.3335 41.9108 17.6751 42.0898 16.9975C42.189 16.4629 41.9684 16.1443 41.6377 16.0723C41.4703 16.0616 41.3048 16.1078 41.1711 16.2023C41.0374 16.2968 40.9448 16.4332 40.9106 16.5864C40.7396 17.0818 40.5333 17.566 40.2933 18.0359C39.0874 20.4256 37.3605 22.5547 35.2231 24.287C35.1693 24.3421 35.104 24.3863 35.0309 24.4165C34.9578 24.4467 34.8784 24.4622 34.7984 24.4622C34.7185 24.4622 34.6396 24.4467 34.5665 24.4165C34.4934 24.3863 34.4281 24.3421 34.3743 24.287C34.3194 24.2265 34.2787 24.1559 34.2549 24.0799C34.2311 24.0038 34.2246 23.924 34.236 23.8454C34.2475 23.7669 34.2764 23.6914 34.3211 23.624C34.3657 23.5567 34.4252 23.4987 34.4954 23.4541C36.7318 21.678 38.4754 19.4243 39.577 16.8846C39.7313 16.3808 39.5103 16.1032 39.323 16.1032C39.144 16.0549 38.9529 16.0677 38.7832 16.1393C38.6135 16.2109 38.4765 16.3365 38.3973 16.4938C37.7465 17.9527 36.8084 19.285 35.631 20.4212C33.8573 22.1725 31.8833 23.7378 29.7449 25.0889C29.4993 25.3061 29.1905 25.4505 28.8569 25.5036C28.5233 25.5567 28.1803 25.5161 27.8714 25.3871C27.6114 25.204 27.4165 24.9522 27.3123 24.6642C27.2081 24.3763 27.1991 24.0655 27.287 23.7729C27.3195 23.5882 27.3688 23.3151 27.4288 22.9822C27.6126 21.9624 27.8976 20.3817 28.1136 19.064C28.279 18.0976 27.7059 17.9744 27.4194 17.9436C27.1328 17.9127 26.8355 18.0668 26.6261 18.5397C25.8265 20.4865 25.1456 22.4739 24.5869 24.4925C24.1485 26.2398 24.0994 28.0527 24.4432 29.8183C24.5749 30.2344 24.5749 30.6771 24.4432 31.0932C24.236 31.5895 23.9969 32.0735 23.7269 32.5427C23.636 32.7168 23.4828 32.9974 23.3168 33.3014C23.1005 33.6976 22.8626 34.1334 22.7129 34.4243C22.6443 34.5615 22.5352 34.6778 22.3986 34.7596C22.2621 34.8415 22.104 34.8856 21.9417 34.8869C21.7985 34.8866 21.6577 34.8511 21.5338 34.784C21.35 34.6827 21.2116 34.5227 21.1447 34.3337C21.0778 34.1446 21.0869 33.9393 21.17 33.7559C21.6952 32.7686 22.2878 31.8139 22.9444 30.8977C23.0285 30.7645 23.0598 30.6081 23.0326 30.4556C22.5905 28.2708 22.6316 26.0247 23.1537 23.8552C23.6595 22.0305 24.3005 20.2408 25.0718 18.4988C25.7552 16.7715 26.9896 16.5556 27.8052 16.6584C28.0897 16.6941 28.3628 16.785 28.6071 16.9255C28.8515 17.0659 29.0618 17.2527 29.2239 17.4737C29.386 17.6946 29.4966 17.945 29.5484 18.2084C29.6003 18.4717 29.5921 18.7423 29.5248 19.0025C29.4559 19.6591 29.1745 21.3955 28.9868 22.5545L28.9867 22.5545L28.9867 22.5551C28.9039 23.0656 28.8394 23.4639 28.8192 23.6085C28.7751 23.9066 29.1168 23.9477 29.3482 23.7935C31.234 22.6154 32.9655 21.2351 34.5067 19.681C35.6075 18.6324 36.5123 17.4197 37.1847 16.0929C37.3288 15.6962 37.6089 15.3548 37.9813 15.1208C38.3536 14.8867 38.7978 14.7731 39.246 14.7975C39.417 14.8029 39.5853 14.8403 39.7406 14.9074C39.8958 14.9745 40.0347 15.0701 40.1496 15.1883C40.1799 15.2136 40.2193 15.2274 40.2599 15.2274C40.3006 15.2274 40.34 15.2136 40.3703 15.1883C40.6018 15.0292 40.8676 14.9182 41.149 14.8632C41.4305 14.8082 41.721 14.8105 42.0015 14.8695C42.4874 15.006 42.8985 15.3118 43.1489 15.7234C43.3993 16.1351 43.47 16.6208 43.3464 17.0798C43.326 17.16 43.3039 17.2559 43.2804 17.3583C43.2406 17.5317 43.1963 17.7241 43.1478 17.8921C43.1428 17.9056 43.1407 17.9198 43.1419 17.934C43.1431 17.9483 43.1476 17.9621 43.1548 17.9747C43.1621 17.9873 43.1724 17.9983 43.1844 18.0071C43.1965 18.0158 43.21 18.0222 43.2248 18.0256C43.4605 18.0712 43.6837 18.1627 43.8792 18.2937C44.0748 18.4247 44.2383 18.5926 44.3598 18.7864C44.4814 18.9803 44.5582 19.1958 44.5848 19.419C44.6114 19.6422 44.5878 19.8678 44.5148 20.0819C44.2706 20.9771 43.8762 21.8308 43.3464 22.6112C43.3395 22.626 43.336 22.6418 43.3362 22.6579C43.3364 22.674 43.3402 22.69 43.3475 22.7046C43.3548 22.7192 43.3651 22.7323 43.3782 22.7428C43.3913 22.7533 43.4068 22.7609 43.4234 22.7654C44.3382 23.0018 44.8674 24.3693 43.8534 25.9629C43.0845 27.1661 42.1949 28.2985 41.1969 29.3452C39.1746 31.3831 36.7095 32.9955 33.9664 34.0746C33.0831 34.4508 32.3392 35.0625 31.8282 35.8327C31.5886 36.1624 31.3716 36.5057 31.1781 36.8608C31.1128 37.0069 31.0023 37.1319 30.8611 37.2197C30.7198 37.3075 30.554 37.3543 30.3842 37.3543C30.2588 37.3553 30.1346 37.3309 30.0204 37.2825C29.8137 37.1835 29.6573 37.0123 29.585 36.8063C29.5128 36.6003 29.531 36.3761 29.6351 36.1823C29.6792 36.0795 29.8441 35.812 30.3622 34.9895C31.0664 34.0736 32.033 33.361 33.151 32.9333C36.7883 31.2164 38.6728 30.0958 40.5576 28.1321C41.5692 27.0806 42.4492 25.9252 43.1807 24.6881C43.2799 24.3282 43.225 24.0299 42.8944 23.9682C42.7607 23.9495 42.6241 23.9703 42.5036 24.0274C42.3831 24.0845 42.2848 24.1752 42.2222 24.287C41.3295 25.4425 40.3337 26.526 39.246 27.5257C38.9043 27.8444 38.5408 27.8648 38.3203 27.6695C38.2643 27.6241 38.2193 27.5681 38.1885 27.5051C38.1577 27.4421 38.1416 27.3737 38.1416 27.3045C38.1416 27.2353 38.1577 27.1669 38.1885 27.104C38.2193 27.041 38.2643 26.9849 38.3203 26.9396C40.2638 25.1443 41.8728 23.0595 43.0817 20.7709C43.4674 20.0923 43.4674 19.4753 43.0817 19.3314C43.0051 19.3041 42.9234 19.2919 42.8416 19.2955C42.7598 19.299 42.6799 19.3184 42.6064 19.3522C42.533 19.386 42.4677 19.4334 42.4148 19.4918C42.362 19.5501 42.3226 19.6181 42.2991 19.6913C41.0213 21.9273 39.3816 23.9661 37.4382 25.7365ZM30.77 20.9971C30.6737 20.9977 30.5782 20.9787 30.4907 20.9414C30.4031 20.9041 30.3256 20.8495 30.263 20.7812C30.144 20.6475 30.0833 20.4768 30.0935 20.3033C30.1037 20.1298 30.1839 19.9662 30.3179 19.8455C31.4635 18.909 32.452 17.8174 33.2499 16.607C33.4531 16.1783 33.7954 15.8198 34.2283 15.5819C34.6613 15.344 35.1632 15.2386 35.6637 15.2807C35.8454 15.3086 36.0082 15.4017 36.1174 15.54C36.2265 15.6783 36.2736 15.8508 36.2482 16.0209C36.2261 16.1913 36.1323 16.3466 35.9877 16.4526C35.843 16.5587 35.6591 16.6067 35.4764 16.5864C34.9461 16.5172 34.5791 16.9904 34.395 17.2278L34.3742 17.2546C33.5184 18.5915 32.4434 19.7954 31.1887 20.8224C31.0664 20.9295 30.9049 20.9884 30.7371 20.9868L30.77 20.9971ZM19.0757 31.9257C18.971 31.9256 18.8673 31.9046 18.7722 31.8637C18.6771 31.8229 18.5928 31.7634 18.5246 31.6893C18.4044 31.5539 18.3461 31.3797 18.3626 31.2046C18.3791 31.0295 18.4692 30.8676 18.6129 30.7538C19.4406 30.1494 20.3176 29.6062 21.236 29.1293C21.4061 29.0534 21.6012 29.042 21.7801 29.0977C21.959 29.1533 22.1078 29.2716 22.195 29.4275C22.2365 29.5051 22.2608 29.5895 22.2671 29.676C22.2735 29.7625 22.2619 29.8493 22.2322 29.9315C22.2025 30.0137 22.1556 30.0897 22.0944 30.1549C22.0331 30.2201 21.9588 30.2735 21.8753 30.3118C21.0577 30.7474 20.2729 31.2352 19.5272 31.7716C19.4002 31.8701 19.2409 31.9245 19.0757 31.9257ZM22.9106 18.0598C22.9981 18.086 23.1095 18.1194 23.1095 18.2418C23.1313 18.3742 23.0234 18.4461 22.9464 18.4974L22.9442 18.4988C22.5364 18.7661 20.6627 19.753 20.2549 19.9175C20.2203 19.9388 20.1813 19.9528 20.1403 19.9586C20.0993 19.9644 20.0574 19.9619 20.0176 19.9511C19.9778 19.9404 19.9407 19.9217 19.9094 19.8964C19.8781 19.8711 19.8533 19.8398 19.8362 19.8045C19.6919 19.5017 19.6022 19.1784 19.5714 18.8482C19.488 18.5288 19.4621 18.1988 19.4945 17.8715C19.5165 17.7173 19.6155 17.6145 19.847 17.6145C20.2879 17.6351 22.3823 17.9331 22.8673 18.0462C22.8805 18.0508 22.8951 18.0552 22.9105 18.0598L22.9106 18.0598ZM39.2237 33.4885C39.0858 33.4885 39.0401 33.603 39.0074 33.6849L39.0036 33.6943C38.6856 34.6065 38.4171 35.5329 38.199 36.4702C38.1876 36.5074 38.1842 36.5463 38.1899 36.5847C38.1955 36.623 38.2101 36.6597 38.2319 36.6926C38.2537 36.7255 38.2822 36.7538 38.3164 36.7757C38.3506 36.7975 38.3897 36.8125 38.4305 36.8196C38.7776 36.8674 39.1301 36.8674 39.4772 36.8196C39.8292 36.82 40.1789 36.768 40.5132 36.6655C40.5531 36.6532 40.5899 36.6332 40.6209 36.6067C40.6518 36.5803 40.6763 36.548 40.693 36.5121C40.7097 36.4762 40.7178 36.4373 40.7172 36.3982C40.7167 36.359 40.7074 36.3205 40.6898 36.285C40.5575 35.884 39.7197 34.0438 39.4772 33.6326C39.4772 33.5503 39.3781 33.4474 39.2237 33.4576V33.4885ZM40.4453 32.7089C40.4314 32.657 40.4358 32.6024 40.4582 32.5531L40.5023 32.5428C40.5685 32.44 40.6894 32.4399 40.7886 32.4399C41.2846 32.4707 43.4009 32.7999 43.8418 32.913C43.9249 32.9256 43.9994 32.9682 44.049 33.0317C44.0985 33.0953 44.1193 33.1745 44.1066 33.2521C44.0224 33.5638 43.8962 33.8644 43.7314 34.1467C43.5934 34.439 43.4074 34.7096 43.1803 34.9486C43.1524 34.9773 43.1187 35.0002 43.0808 35.0159C43.0428 35.0316 43.0017 35.0398 42.9602 35.0398C42.9187 35.0398 42.8776 35.0316 42.8397 35.0159C42.8017 35.0002 42.7675 34.9773 42.7396 34.9486C42.3428 34.6711 40.8438 33.2111 40.5352 32.841C40.4906 32.8073 40.4592 32.7609 40.4453 32.7089Z" fill="#28646E"/>
</svg>
