<svg width="34" height="32" viewBox="0 0 34 32" fill="none" xmlns="http://www.w3.org/2000/svg">
<path fill-rule="evenodd" clip-rule="evenodd" d="M31.2562 8.72827H17.0018C15.4816 8.72839 13.9996 9.20485 12.7641 10.0907C11.5286 10.9765 10.6017 12.2272 10.1138 13.667L5.11682 5.28787C6.85394 3.36067 9.03362 1.88477 11.468 0.987358C13.9024 0.0899455 16.5185 -0.202059 19.0909 0.136509C21.6633 0.475076 24.1147 1.43406 26.234 2.93082C28.3533 4.42758 30.0769 6.41721 31.2562 8.72827ZM22.2079 16.0018C22.2079 18.877 19.877 21.2079 17.0018 21.2079C14.1266 21.2079 11.7958 18.877 11.7958 16.0018C11.7958 13.1266 14.1266 10.7958 17.0018 10.7958C19.877 10.7958 22.2079 13.1266 22.2079 16.0018ZM18.4311 23.1335C16.8892 23.4424 15.2888 23.2433 13.8696 22.566C12.4504 21.8887 11.2889 20.7697 10.5593 19.3767L3.57848 7.2881C2.16476 9.46537 1.30199 11.9539 1.06458 14.539C0.827183 17.1241 1.22229 19.7282 2.21581 22.1265C3.20933 24.5249 4.77144 26.6455 6.76736 28.3054C8.76329 29.9653 11.1331 31.1148 13.6724 31.6545L18.4311 23.1335ZM22.457 11.1976L32.2217 11.0594C33.001 13.461 33.2009 16.0128 32.8051 18.5064C32.4094 21 31.4292 23.3646 29.9446 25.4069C28.4601 27.4491 26.5134 29.1111 24.2636 30.257C22.0138 31.4029 19.5248 32.0002 17 32C16.7218 32 16.449 31.9927 16.1763 31.98L23.2989 19.635C24.0584 18.3171 24.3856 16.7944 24.2346 15.2809C24.0835 13.7674 23.4619 12.3394 22.457 11.1976Z" fill="#4A4A4A"/>
</svg>
