<svg xmlns="http://www.w3.org/2000/svg" width="33" height="32" fill="none">
  <path fill="#4A4A4A" d="M16.081 32c-8.822 0-16-7.178-16-16s7.178-16 16-16c8.823 0 16 7.178 16 16s-7.177 16-16 16Zm0-30.645C8.006 1.355 1.436 7.925 1.436 16s6.57 14.645 14.645 14.645c8.076 0 14.646-6.57 14.646-14.645S24.157 1.355 16.081 1.355Z"/>
  <path fill="#4A4A4A" d="M15.024 13.077a.455.455 0 0 1-.301-.796c1.285-1.132 1.853-2.067 1.954-2.243.378-.658.985-.999 1.622-.912a.455.455 0 0 1-.122.902c-.372-.05-.621.307-.71.464-.114.197-.75 1.244-2.142 2.472a.457.457 0 0 1-.301.113Zm-7.66 7.713a.455.455 0 0 1-.291-.805 12.716 12.716 0 0 1 1.674-1.12.455.455 0 0 1 .407.815c-.524.297-1.025.633-1.499 1.004a.45.45 0 0 1-.29.105Z"/>
  <path fill="#4A4A4A" d="M18.804 16.473c.18.169.39.096.584-.087 1.318-1.257 2.715-3.23 3.18-4.254.1-.218.301-.34.517-.254.253.102.25.539.02 1.012-.61 1.254-1.454 2.635-3.122 4.363a.349.349 0 0 0 .007.514c.148.133.386.124.61-.103.866-.884 1.45-1.567 1.951-2.277.128-.186.283-.261.436-.227.219.043.254.254.187.507-.11.41-1.26 1.916-1.716 2.427-1.236 1.38-2.473 2.135-4.853 3.372-.83.436-1.453.845-1.829 1.48-.342.579-.445.768-.48.841a.578.578 0 0 0 .254.77.558.558 0 0 0 .76-.292c0-.007-.018.01.43-.747.335-.54.823-.97 1.401-1.236 2.38-1.085 3.356-1.944 4.737-3.325.63-.63 1.501-1.981 1.742-2.38.665-1.12.316-2.08-.285-2.244a.076.076 0 0 1-.048-.113c.465-.797.677-1.347.765-1.774.118-.58-.047-1.283-.843-1.455a.078.078 0 0 1-.047-.035.077.077 0 0 1-.008-.06c.05-.183.099-.415.133-.567.167-.753-.31-1.435-.881-1.558a1.326 1.326 0 0 0-1.073.224.106.106 0 0 1-.138-.018.83.83 0 0 0-.594-.277c-.5-.008-.99.145-1.348.911-.257.548-.64 1.284-1.76 2.525-1.038 1.152-2.484 2.276-3.377 2.862-.156.102-.376.078-.348-.132.042-.334.4-2.576.46-3.237.1-1.074-.477-1.568-1.125-1.655-.533-.072-1.342.081-1.785 1.295-.262.711-.801 1.88-1.26 3.763-.323 1.324-.376 2.868-.081 4.642a.449.449 0 0 1-.059.31c-.353.581-.87 1.347-1.16 2.014a.573.573 0 0 0 .238.73.562.562 0 0 0 .776-.252c.174-.363.522-1.045.663-1.325.24-.492.4-.817.465-1.021.059-.186.094-.402-.013-.893-.181-.827-.245-2.38.092-3.75a38.662 38.662 0 0 1 1.34-4.179c.137-.335.33-.44.523-.422.194.017.56.11.455.793-.188 1.227-.455 2.787-.543 3.31-.042.256-.092.857.383 1.131.37.214.777.095 1.227-.205 1.014-.676 2.76-2.053 3.857-3.285 1.151-1.293 1.518-2.063 1.814-2.76.135-.317.481-.315.604-.279.123.036.27.201.166.551-.255.85-1.306 2.797-3.331 4.623-.23.207-.197.452-.08.58.116.128.323.205.559 0 1.82-1.552 2.858-3.406 3.325-4.398.156-.33.289-.67.399-1.019.1-.288.321-.39.476-.359.221.047.368.275.297.648a6.592 6.592 0 0 1-.495 1.383c-.584 1.238-1.816 2.895-3.145 4.318a.372.372 0 0 0-.006.555Zm-8.227-6.167c.07-.062.042-.14.022-.204-.097-.313-.655-1.62-.802-1.884-.074-.132-.167-.15-.267-.112-.131.05-.294.174-.543.39-.25.216-.39.364-.457.487-.052.095-.046.19.076.28.241.18 1.466.903 1.763 1.045.06.028.135.065.206 0l.002-.002Zm10.091 11.578c-.093.006-.12.087-.142.148-.112.308-.464 1.686-.507 1.984-.022.149.041.22.144.25.135.04.338.044.669.02.33-.022.53-.05.659-.109.098-.043.15-.123.109-.268-.083-.288-.616-1.607-.768-1.898-.03-.059-.068-.134-.162-.127h-.002Zm.796-.64c-.043.083.01.148.053.199.204.256 1.2 1.272 1.431 1.464.117.096.21.08.29.008.104-.095.212-.267.364-.561.152-.295.232-.48.25-.62.013-.107-.028-.193-.175-.233-.29-.079-1.694-.31-2.021-.33-.066-.004-.15-.012-.193.072v.001ZM10.094 11.16c-.016-.093-.099-.11-.162-.126-.32-.078-1.728-.277-2.028-.288-.151-.005-.215.065-.235.174-.025.139-.005.34.054.666.058.326.108.523.18.644.055.093.14.136.278.08.28-.114 1.532-.784 1.804-.97.055-.038.126-.082.11-.174v-.007Zm5.988 18.251a.508.508 0 1 0 0-1.015.508.508 0 0 0 0 1.015Zm0-25.807a.508.508 0 1 0 0-1.015.508.508 0 0 0 0 1.015Zm3.34 25.368a.508.508 0 1 0 0-1.016.508.508 0 0 0 0 1.016Zm-6.68-24.928a.508.508 0 1 0 0-1.016.508.508 0 0 0 0 1.016Zm9.792 23.639a.508.508 0 1 0 0-1.016.508.508 0 0 0 0 1.016ZM9.63 5.332a.508.508 0 1 0 0-1.015.508.508 0 0 0 0 1.015Zm15.576 20.3a.508.508 0 1 0 0-1.015.508.508 0 0 0 0 1.015ZM6.957 7.383a.508.508 0 1 0 0-1.015.508.508 0 0 0 0 1.015Zm21.589 12.464a.508.508 0 1 0 0-1.015.508.508 0 0 0 0 1.015Zm-1.289 3.113a.508.508 0 1 0 0-1.015.508.508 0 0 0 0 1.015ZM4.906 10.056a.508.508 0 1 0 0-1.016.508.508 0 0 0 0 1.016Zm-1.288 3.112a.508.508 0 1 0 0-1.015.508.508 0 0 0 0 1.015Zm25.367 3.34a.508.508 0 1 0 0-1.016.508.508 0 0 0 0 1.016Zm-25.807 0a.508.508 0 1 0 0-1.016.508.508 0 0 0 0 1.016Zm25.368-3.34a.508.508 0 1 0 0-1.015.508.508 0 0 0 0 1.015ZM3.618 19.847a.508.508 0 1 0 0-1.015.508.508 0 0 0 0 1.015Zm23.639-9.791a.508.508 0 1 0 0-1.016.508.508 0 0 0 0 1.016ZM4.906 22.96a.508.508 0 1 0 0-1.015.508.508 0 0 0 0 1.015Zm20.3-15.577a.508.508 0 1 0 0-1.015.508.508 0 0 0 0 1.015ZM6.957 25.632a.508.508 0 1 0 0-1.015.508.508 0 0 0 0 1.015Zm15.577-20.3a.508.508 0 1 0 0-1.015.508.508 0 0 0 0 1.015ZM9.63 27.683a.508.508 0 1 0 0-1.016.508.508 0 0 0 0 1.016Zm9.792-23.639a.508.508 0 1 0 0-1.016.508.508 0 0 0 0 1.016Zm-6.68 24.928a.508.508 0 1 0 0-1.016.508.508 0 0 0 0 1.016Z"/>
</svg>