<svg width="32" height="32" viewBox="0 0 32 32" fill="none" xmlns="http://www.w3.org/2000/svg">
<path fill-rule="evenodd" clip-rule="evenodd" d="M24.4082 3.52804C21.926 1.84906 18.9967 0.954394 16 0.96001C13.9884 0.955745 11.9966 1.35753 10.1439 2.1413C7.45797 3.28105 5.15994 5.17492 3.52804 7.59368C2.1267 9.66713 1.26582 12.0579 1.02363 14.5488C0.781447 17.0396 1.16565 19.5515 2.1413 21.8561C3.28105 24.542 5.17492 26.8401 7.59368 28.472C9.66713 29.8733 12.0579 30.7342 14.5488 30.9764C17.0396 31.2186 19.5515 30.8344 21.8561 29.8587C24.542 28.719 26.8401 26.8251 28.472 24.4063C29.8733 22.3329 30.7342 19.9421 30.9764 17.4512C31.2186 14.9604 30.8344 12.4485 29.8587 10.1439C28.7195 7.45822 26.8263 5.16022 24.4082 3.52804ZM0 16C0 7.16311 7.16359 0 16 0C24.8364 0 32 7.16359 32 16C32 24.8364 24.8364 32 16 32C7.16359 32 0 24.8369 0 16ZM10.1814 28.0001C5.7332 25.8401 2.66644 21.2772 2.66644 16C2.66543 14.1309 3.05881 12.2826 3.82086 10.576L10.1814 28.0001ZM23.9019 11.6512C24.4092 12.5387 25.0011 13.6797 25.0011 15.328C25.0011 16.468 24.643 17.8173 24.0319 19.7224L22.6562 24.0809L17.8356 9.74843C18.6381 9.70618 19.3615 9.6217 19.3615 9.6217C20.0796 9.53674 19.9965 8.48073 19.2765 8.52297C19.2765 8.52297 17.1165 8.69242 15.7245 8.69242C14.4146 8.69242 12.2133 8.52297 12.2133 8.52297C11.4942 8.48073 11.4088 9.57898 12.1288 9.6217C12.1288 9.6217 12.807 9.70618 13.527 9.74843L15.6064 15.4398L12.688 24.1908L7.82938 9.74843C8.63242 9.70618 9.35531 9.6217 9.35531 9.6217C10.0734 9.53674 9.98988 8.48073 9.26987 8.52297C9.26987 8.52297 7.10985 8.69242 5.71784 8.69242C5.46775 8.69242 5.17255 8.68618 4.85959 8.6761C7.24377 5.05686 11.3416 2.66644 16 2.66644C19.3344 2.66221 22.5485 3.91216 25.0039 6.16807C24.9839 6.1669 24.9642 6.16527 24.9444 6.16364C24.9072 6.16058 24.87 6.15751 24.8311 6.15751C23.5217 6.15751 22.5924 7.29848 22.5924 8.52393C22.5924 9.5363 23.1303 10.4048 23.7436 11.395C23.7959 11.4794 23.8487 11.5648 23.9019 11.6512ZM12.2329 28.7902L16.2343 17.1659L20.3321 28.3923C20.3587 28.4562 20.3908 28.5177 20.4281 28.5761C17.7866 29.506 14.9194 29.5809 12.2329 28.7902ZM27.7904 10.9739C27.7911 10.5154 27.7611 10.0574 27.7006 9.60298C28.7752 11.5637 29.3369 13.7641 29.3336 16C29.3336 20.9186 26.6676 25.2127 22.7038 27.524L26.7761 15.7494C27.5369 13.8477 27.7904 12.3265 27.7904 10.9739Z" fill="#4A4A4A"/>
</svg>
