<?xml version="1.0" encoding="UTF-8"?>
<svg xmlns="http://www.w3.org/2000/svg" xmlns:xlink="http://www.w3.org/1999/xlink" width="49px" height="32px" viewBox="0 0 49 32" version="1.1">
<g id="surface1">
<path style=" stroke:none;fill-rule:nonzero;fill:rgb(29.411765%,68.627451%,45.490196%);fill-opacity:1;" d="M 44.140625 22.089844 C 44.140625 29.136719 35.585938 32 24.960938 32 C 14.335938 32 5.65625 29.136719 5.65625 22.089844 C 5.65625 15.042969 14.273438 9.339844 24.898438 9.339844 C 35.523438 9.339844 44.140625 15.054688 44.140625 22.089844 Z M 44.140625 22.089844 "/>
<path style=" stroke:none;fill-rule:nonzero;fill:rgb(19.607843%,85.490196%,42.745098%);fill-opacity:1;" d="M 42.1875 6.722656 C 42.1875 3.011719 39.171875 0 35.460938 0 C 33.367188 0 31.5 0.957031 30.265625 2.453125 C 28.585938 2.078125 26.792969 1.867188 24.9375 1.867188 C 23.078125 1.867188 21.285156 2.066406 19.605469 2.453125 C 18.359375 0.957031 16.492188 0 14.410156 0 C 10.699219 0 7.683594 3.011719 7.683594 6.722656 C 7.683594 7.945312 8.007812 9.078125 8.570312 10.0625 C 8.035156 11.207031 7.746094 12.425781 7.746094 13.695312 C 7.746094 20.234375 15.445312 25.523438 24.9375 25.523438 C 34.425781 25.523438 42.125 20.234375 42.125 13.695312 C 42.125 12.425781 41.839844 11.207031 41.300781 10.0625 C 41.863281 9.078125 42.1875 7.945312 42.1875 6.722656 Z M 42.1875 6.722656 "/>
<path style=" stroke:none;fill-rule:nonzero;fill:rgb(94.509804%,94.509804%,90.980392%);fill-opacity:1;" d="M 13.875 10.460938 C 16.144531 10.460938 17.984375 8.621094 17.984375 6.351562 C 17.984375 4.082031 16.144531 2.242188 13.875 2.242188 C 11.605469 2.242188 9.765625 4.082031 9.765625 6.351562 C 9.765625 8.621094 11.605469 10.460938 13.875 10.460938 Z M 13.875 10.460938 "/>
<path style=" stroke:none;fill-rule:nonzero;fill:rgb(94.509804%,94.509804%,90.980392%);fill-opacity:1;" d="M 35.796875 10.460938 C 38.066406 10.460938 39.90625 8.621094 39.90625 6.351562 C 39.90625 4.082031 38.066406 2.242188 35.796875 2.242188 C 33.527344 2.242188 31.6875 4.082031 31.6875 6.351562 C 31.6875 8.621094 33.527344 10.460938 35.796875 10.460938 Z M 35.796875 10.460938 "/>
<path style=" stroke:none;fill-rule:nonzero;fill:rgb(19.607843%,85.490196%,42.745098%);fill-opacity:1;" d="M 11.683594 31.5 C 12.566406 31.5 13.265625 30.730469 13.164062 29.859375 C 12.804688 26.769531 11.273438 20.085938 4.535156 16.0625 C -4.433594 10.707031 2.664062 29.136719 2.664062 29.136719 L 0.808594 30.207031 C 0.1875 30.566406 0.449219 31.5 1.160156 31.5 Z M 11.683594 31.5 "/>
<path style=" stroke:none;fill-rule:nonzero;fill:rgb(19.607843%,85.490196%,42.745098%);fill-opacity:1;" d="M 38.449219 31.5 C 37.652344 31.5 37.03125 30.730469 37.117188 29.859375 C 37.429688 26.78125 38.824219 20.085938 44.902344 16.0625 C 53.011719 10.707031 46.597656 29.136719 46.597656 29.136719 L 48.277344 30.207031 C 48.839844 30.566406 48.601562 31.5 47.964844 31.5 Z M 38.449219 31.5 "/>
<path style=" stroke:none;fill-rule:nonzero;fill:rgb(5.098039%,5.098039%,5.098039%);fill-opacity:1;" d="M 13.875 7.097656 C 14.289062 7.097656 14.621094 6.761719 14.621094 6.351562 C 14.621094 5.9375 14.289062 5.601562 13.875 5.601562 C 13.460938 5.601562 13.128906 5.9375 13.128906 6.351562 C 13.128906 6.761719 13.460938 7.097656 13.875 7.097656 Z M 13.875 7.097656 "/>
<path style=" stroke:none;fill-rule:nonzero;fill:rgb(5.098039%,5.098039%,5.098039%);fill-opacity:1;" d="M 35.796875 7.097656 C 36.210938 7.097656 36.542969 6.761719 36.542969 6.351562 C 36.542969 5.9375 36.210938 5.601562 35.796875 5.601562 C 35.382812 5.601562 35.050781 5.9375 35.050781 6.351562 C 35.050781 6.761719 35.382812 7.097656 35.796875 7.097656 Z M 35.796875 7.097656 "/>
</g>
</svg>
