<svg width="32" height="32" viewBox="0 0 32 32" fill="none" xmlns="http://www.w3.org/2000/svg">
<path fill-rule="evenodd" clip-rule="evenodd" d="M5.57398 2.10969L4.19116 6.38227L2.46263 4.51191V1.27645L5.69808 0L8.37509 2.13629L5.57398 2.10969ZM26.9014 6.38227L25.5186 2.10969L22.7174 2.13629L25.3945 0L28.6299 1.27645V4.51191L26.9014 6.38227ZM24.4282 3.66095L26.0504 8.69585L30.1102 19.9091L15.5462 32L1 19.918L5.05983 8.69585L6.68199 3.66095H11.0521L9.91745 7.21552H15.5462H15.5463H21.1839L20.0493 3.66095H24.4282ZM19.7479 14.174V16.4875L23.4798 14.3335L23.0011 12.8709L19.7479 14.174ZM7.62161 14.3335L11.3535 16.4875V14.174L8.10028 12.8709L7.62161 14.3335Z" fill="#4A4A4A"/>
</svg>
