<svg width="32" height="32" viewBox="0 0 32 32" fill="none" xmlns="http://www.w3.org/2000/svg">
<path fill-rule="evenodd" clip-rule="evenodd" d="M12.7495 1C12.1649 1 11.6178 1.28818 11.2872 1.77032L4.19516 12.1129C3.79539 12.6959 3.78013 13.4607 4.15631 14.0592L10.6574 24.4017L13.6596 22.5147L7.7782 13.1579L13.6835 4.54604H23.2703L28.9593 14.0278L32 12.2034L25.7944 1.86081C25.474 1.32676 24.8969 1 24.2741 1H12.7495ZM19.2505 30.5503C19.8351 30.5503 20.3822 30.2621 20.7128 29.78L27.8049 19.4374C28.2046 18.8544 28.2199 18.0896 27.8437 17.4911L21.3426 7.1485L18.3404 9.03562L24.2218 18.3924L18.3165 27.0042H8.72975L3.0407 17.5224L0 19.3469L6.20556 29.6895C6.526 30.2236 7.10313 30.5503 7.72594 30.5503H19.2505Z" fill="#4A4A4A"/>
</svg>
