<svg width="261" height="120" viewBox="0 0 261 120" fill="none" xmlns="http://www.w3.org/2000/svg">
<path fill-rule="evenodd" clip-rule="evenodd" d="M193.268 42V60.9584L199.121 55.1788H204.68L196.876 62.7254L205.232 73.1433H199.858L193.931 65.5599L193.268 66.2225V73.1433H189.108V42H193.268ZM50.8042 66.1857H62.9891L65.9709 73.1064H70.6461L57.0623 42.8834L43 73.1064H47.6384L50.8042 66.1857ZM57.0255 52.4914L61.2221 62.1731H52.608L57.0255 52.4914ZM73.407 82.8618H77.5668V71.1186C79.2234 72.812 81.1008 73.6587 83.1991 73.6587C85.6287 73.6587 87.6534 72.7384 89.2364 70.9714C90.8561 69.1676 91.666 66.922 91.666 64.2347C91.666 61.4738 90.8561 59.1914 89.2364 57.3876C87.6166 55.5838 85.5919 54.6635 83.1255 54.6635C81.064 54.6635 79.1866 55.5102 77.5668 57.1299V55.1789H73.407V82.8618ZM86.0337 60.0381C86.954 61.1057 87.4326 62.5045 87.4326 64.2347C87.4326 65.8545 86.954 67.2165 85.9969 68.2841C85.0398 69.3516 83.8618 69.9038 82.4261 69.9038C80.9168 69.9038 79.6651 69.3516 78.7448 68.2841C77.7877 67.1797 77.3092 65.8177 77.3092 64.1243C77.3092 62.3941 77.7877 61.032 78.7448 59.9645C79.702 58.8969 80.9536 58.3816 82.4629 58.3816C83.8986 58.3816 85.0766 58.9337 86.0337 60.0381ZM99.9487 82.8618H95.7889V55.1789H99.9487V57.1299C101.568 55.5102 103.446 54.6635 105.507 54.6635C107.974 54.6635 109.998 55.5838 111.618 57.3876C113.238 59.1914 114.048 61.4738 114.048 64.2347C114.048 66.922 113.238 69.1676 111.618 70.9714C110.035 72.7384 108.011 73.6587 105.581 73.6587C103.483 73.6587 101.605 72.812 99.9487 71.1186V82.8618ZM109.814 64.2347C109.814 62.5045 109.336 61.1057 108.416 60.0381C107.458 58.9337 106.28 58.3816 104.845 58.3816C103.335 58.3816 102.084 58.8969 101.127 59.9645C100.17 61.032 99.691 62.3941 99.691 64.1243C99.691 65.8177 100.17 67.1797 101.127 68.2841C102.047 69.3516 103.299 69.9038 104.808 69.9038C106.244 69.9038 107.422 69.3516 108.379 68.2841C109.336 67.2165 109.814 65.8545 109.814 64.2347ZM125.276 63.6826L117.876 44.6874H113.238L125.313 74.984L132.933 54.8108L140.258 74.9472L152.959 44.6874H148.283L140.406 63.6826L133.006 43.2886L125.276 63.6826ZM151.744 64.0138C151.744 61.437 152.664 59.2282 154.541 57.3876C156.382 55.5838 158.664 54.6635 161.315 54.6635C164.002 54.6635 166.248 55.5838 168.125 57.4244C169.966 59.2651 170.886 61.5106 170.886 64.1611C170.886 66.8484 169.966 69.094 168.088 70.9346C166.211 72.7384 163.929 73.6587 161.204 73.6587C158.517 73.6587 156.272 72.7384 154.431 70.8978C152.664 69.0571 151.744 66.7748 151.744 64.0138ZM155.977 64.0875C155.977 65.8913 156.456 67.2902 157.413 68.3577C158.407 69.4253 159.695 69.9406 161.315 69.9406C162.935 69.9406 164.223 69.4253 165.217 68.3577C166.174 67.327 166.69 65.9281 166.69 64.1611C166.69 62.4309 166.211 61.032 165.217 59.9645C164.223 58.8969 162.935 58.3816 161.315 58.3816C159.732 58.3816 158.444 58.8969 157.45 59.9645C156.492 61.0689 155.977 62.4309 155.977 64.0875ZM179.059 55.1789H174.899H174.862V73.1433H179.022V63.8298C179.022 60.4063 180.163 58.7129 182.408 58.7129C183.181 58.7129 183.955 59.0074 184.728 59.5596L186.642 55.7679C185.464 55.0685 184.323 54.7003 183.218 54.7003C182.408 54.7003 181.672 54.8844 181.083 55.1789C180.494 55.4366 179.832 55.9888 179.059 56.7986V55.1789ZM214.435 60.0754L217.859 58.2348C216.718 55.842 215.024 54.664 212.742 54.5535C211.196 54.5535 209.871 55.0689 208.766 56.0996C207.662 57.1304 207.147 58.4188 207.147 59.9649C207.147 61.1429 207.478 62.1369 208.104 62.8731C208.582 63.4621 209.429 64.0511 210.644 64.6401C211.049 64.861 211.49 65.0819 211.895 65.2659C212.098 65.3764 212.309 65.4776 212.521 65.5788C212.733 65.6801 212.944 65.7813 213.147 65.8917C214.215 66.5175 214.767 67.217 214.767 67.9532C214.767 69.2417 214.067 69.8675 212.668 69.8675C211.969 69.8675 211.38 69.6466 210.865 69.168C210.57 68.9104 210.202 68.3582 209.723 67.5115L206.189 69.168C207.441 72.113 209.576 73.5855 212.595 73.5855C214.362 73.5855 215.834 73.0333 217.086 71.929C218.374 70.751 219 69.3153 219 67.5851C219 66.2599 218.632 65.1923 217.859 64.3824C217.086 63.5726 215.613 62.7259 213.405 61.7688C211.822 61.1061 211.012 60.4435 211.012 59.7441C211.012 59.3759 211.159 59.0446 211.417 58.787C211.711 58.5293 212.043 58.4188 212.411 58.4188C213.221 58.4188 213.883 58.971 214.435 60.0754Z" fill="white"/>
</svg>
