<svg width="261" height="120" viewBox="0 0 261 120" fill="none" xmlns="http://www.w3.org/2000/svg">
<path fill-rule="evenodd" clip-rule="evenodd" d="M35.192 62.1114C35.192 54.9762 40.9762 49.192 48.1114 49.192C55.2466 49.192 61.0308 54.9762 61.0308 62.1114C61.0308 69.2466 55.2466 75.0308 48.1114 75.0308C40.9762 75.0308 35.192 69.2466 35.192 62.1114ZM48.1114 47C39.7656 47 33 53.7656 33 62.1114C33 70.4573 39.7656 77.2229 48.1114 77.2229C56.4573 77.2229 63.2229 70.4573 63.2229 62.1114C63.2229 53.7656 56.4573 47 48.1114 47ZM219.086 59.3863C218.87 60.1479 218.766 60.9368 218.777 61.7283V61.9395C218.771 62.7082 218.878 63.4737 219.095 64.2111C219.282 64.8681 219.591 65.4844 220.004 66.0283C220.387 66.5256 220.876 66.932 221.435 67.2186C222.021 67.5139 222.669 67.6627 223.325 67.6525C223.867 67.6634 224.405 67.5565 224.901 67.339C225.354 67.1315 225.76 66.8339 226.094 66.4645V67.1118C226.094 67.9092 225.867 68.5384 225.412 68.9609C224.958 69.3834 224.327 69.6105 223.513 69.6105C222.993 69.615 222.477 69.5033 222.005 69.2834C221.527 69.0548 221.102 68.73 220.756 68.3294L219.454 70.0898C219.7 70.4039 219.996 70.6762 220.329 70.8962C220.668 71.1209 221.032 71.3076 221.412 71.4528C221.786 71.5957 222.172 71.7037 222.566 71.7753C222.927 71.8416 223.292 71.8765 223.659 71.8798C224.395 71.888 225.128 71.7806 225.83 71.5618C226.45 71.3698 227.024 71.0528 227.516 70.6305C227.988 70.2151 228.361 69.6999 228.608 69.1222C228.879 68.4753 229.012 67.779 228.999 67.0778V56.1744H226.366L226.251 57.2465C225.925 56.8436 225.513 56.5197 225.044 56.2993C224.51 56.0641 223.931 55.9501 223.348 55.9654C222.684 55.9563 222.027 56.1026 221.43 56.3924C220.869 56.6703 220.378 57.0727 219.995 57.5691C219.581 58.1128 219.273 58.7292 219.086 59.3863ZM221.823 63.2707C221.726 62.8391 221.679 62.3978 221.683 61.9554L221.678 61.7283C221.675 61.282 221.724 60.8368 221.823 60.4017C221.909 60.0188 222.058 59.6532 222.266 59.3204C222.456 59.021 222.715 58.771 223.02 58.5913C223.344 58.4076 223.712 58.3157 224.084 58.3255C224.511 58.3127 224.934 58.4122 225.31 58.614C225.643 58.8085 225.915 59.0916 226.096 59.4318V64.202C225.912 64.5384 225.64 64.8193 225.31 65.0152C224.925 65.2219 224.491 65.3222 224.054 65.306C223.683 65.316 223.317 65.2258 222.993 65.0447C222.694 64.8703 222.441 64.6264 222.255 64.3337C222.05 64.0074 221.904 63.6475 221.823 63.2707ZM82.2007 67.4466C82.1268 67.2928 82.0675 67.1323 82.0236 66.9673C81.9759 66.7879 81.935 66.5971 81.8986 66.3949C81.7311 66.5755 81.5462 66.739 81.3466 66.8833C81.1341 67.0407 80.9057 67.1755 80.6652 67.2854C80.3928 67.404 80.1089 67.4938 79.8179 67.5534C79.493 67.6215 79.1618 67.655 78.8298 67.6533C78.2895 67.6592 77.7521 67.5748 77.2397 67.4035C76.784 67.2516 76.3615 67.0142 75.9949 66.7038C75.6516 66.4107 75.375 66.0475 75.1839 65.6385C74.9874 65.2161 74.888 64.755 74.8932 64.2892C74.8932 63.1034 75.3354 62.1865 76.2198 61.5384C77.1042 60.8902 78.4239 60.5654 80.1791 60.5639H81.7919V59.9006C81.8035 59.6605 81.7621 59.4209 81.6707 59.1987C81.5792 58.9765 81.4398 58.7771 81.2626 58.6149C80.9082 58.2984 80.3979 58.1409 79.7316 58.1424C79.1432 58.1424 78.7116 58.2673 78.4413 58.5217C78.305 58.6522 78.1982 58.8103 78.1281 58.9854C78.058 59.1605 78.0261 59.3487 78.0347 59.5371H75.1453C75.144 59.0645 75.2521 58.5981 75.4611 58.1742C75.6823 57.7318 75.9988 57.3439 76.3879 57.0384C76.8326 56.6919 77.3368 56.4294 77.8757 56.2638C78.5277 56.0602 79.2076 55.9606 79.8906 55.9685C80.5321 55.9638 81.1711 56.0479 81.7896 56.2184C82.3395 56.3679 82.8564 56.619 83.3138 56.9589C83.7446 57.2832 84.0913 57.7062 84.3246 58.1924C84.5767 58.7307 84.7011 59.3199 84.6881 59.9142V64.7503C84.6797 65.2526 84.7185 65.7545 84.8039 66.2495C84.8655 66.6035 84.9772 66.9469 85.1356 67.2695V67.4466H82.2007ZM79.4431 65.4159C79.7167 65.4181 79.9895 65.3837 80.254 65.3137C80.491 65.2497 80.7198 65.1582 80.9355 65.0411C81.126 64.94 81.3012 64.8122 81.4557 64.6617C81.5901 64.535 81.7056 64.3897 81.7987 64.2301V62.2948H80.3222C79.9328 62.2875 79.5441 62.3311 79.166 62.4243C78.885 62.4934 78.6203 62.6169 78.3868 62.7877C78.1899 62.9337 78.0335 63.1277 77.9325 63.351C77.8332 63.5756 77.7829 63.8188 77.7849 64.0643C77.7806 64.2456 77.8151 64.4257 77.886 64.5925C77.9569 64.7594 78.0626 64.9092 78.196 65.032C78.4716 65.2894 78.8873 65.4174 79.4431 65.4159ZM97.642 55.9682C98.048 55.966 98.4536 55.9956 98.855 56.0568C99.1617 56.1017 99.4652 56.1662 99.7636 56.2499L99.3275 59.1484C98.9417 59.0587 98.5511 58.9912 98.1576 58.9462C97.7806 58.9022 97.4014 58.8794 97.0219 58.8781C96.3373 58.8408 95.6563 59 95.0592 59.3369C94.5619 59.6594 94.1782 60.1297 93.9621 60.6817V67.4463H91.075V56.1954H93.7713L93.9053 58.0376C94.3377 57.4227 94.8989 56.9096 95.5499 56.5338C96.185 56.1636 96.9069 55.9684 97.642 55.9682ZM112.126 56.1956L111.149 63.9189L109.732 56.1956H107.797L106.381 63.9598L105.402 56.1956H102.761L104.778 67.4466H107.326L108.744 60.2844L110.223 67.4579H112.762L114.782 56.1956H112.126ZM123.801 67.6537C122.994 67.6644 122.192 67.5195 121.439 67.2266C120.764 66.9606 120.147 66.5664 119.622 66.0659C119.118 65.5762 118.721 64.9877 118.456 64.3372C118.181 63.6617 118.041 62.9384 118.045 62.2088V61.7931C118.036 60.9889 118.174 60.1898 118.452 59.4352C118.704 58.7531 119.09 58.1282 119.588 57.5976C120.075 57.084 120.664 56.6765 121.316 56.4005C122.709 55.8402 124.263 55.8313 125.662 56.3755C126.276 56.6307 126.827 57.0185 127.275 57.5113C127.728 58.0194 128.07 58.6167 128.279 59.2649C128.517 59.9982 128.633 60.7655 128.624 61.5364V62.7631H120.969C121.02 63.1291 121.134 63.4835 121.307 63.8102C121.641 64.4368 122.195 64.9169 122.863 65.1573C123.221 65.2856 123.598 65.3495 123.978 65.3458C124.263 65.3461 124.547 65.3179 124.826 65.2618C125.102 65.2086 125.373 65.1264 125.632 65.0164C125.887 64.905 126.127 64.7648 126.35 64.5985C126.571 64.4406 126.768 64.2508 126.934 64.0351L128.381 65.5979C128.178 65.8777 127.942 66.131 127.677 66.3521C127.367 66.6144 127.024 66.8351 126.657 67.0086C126.239 67.2058 125.801 67.358 125.351 67.4629C124.844 67.589 124.324 67.6531 123.801 67.6537ZM123.454 58.3176C123.147 58.314 122.843 58.372 122.559 58.488C122.289 58.6019 122.046 58.7705 121.846 58.9832C121.633 59.2096 121.459 59.4698 121.332 59.7533C121.187 60.0723 121.082 60.408 121.019 60.7527H125.766V60.5256C125.754 60.2302 125.694 59.9388 125.589 59.6624C125.488 59.3988 125.333 59.1591 125.135 58.9582C124.932 58.7547 124.689 58.5954 124.421 58.4903C124.113 58.3715 123.784 58.3129 123.454 58.3176ZM139.586 66.9673C139.629 67.1325 139.687 67.2931 139.761 67.4466H142.698V67.2695C142.539 66.9471 142.427 66.6036 142.364 66.2495C142.28 65.7544 142.242 65.2525 142.251 64.7503V59.9142C142.263 59.3198 142.138 58.7305 141.885 58.1924C141.652 57.7068 141.306 57.284 140.877 56.9589C140.419 56.6195 139.902 56.3683 139.352 56.2184C138.733 56.0479 138.093 55.9638 137.451 55.9685C136.769 55.9606 136.09 56.0602 135.439 56.2638C134.899 56.4294 134.394 56.6918 133.948 57.0384C133.561 57.3446 133.245 57.7324 133.024 58.1742C132.814 58.5979 132.705 59.0644 132.706 59.5371H135.598C135.589 59.3488 135.62 59.1608 135.69 58.9857C135.76 58.8106 135.866 58.6524 136.002 58.5217C136.274 58.2673 136.704 58.1424 137.294 58.1424C137.959 58.1409 138.469 58.2984 138.823 58.6149C139.001 58.7769 139.141 58.9762 139.232 59.1984C139.324 59.4206 139.366 59.6604 139.355 59.9006V60.5639H137.742C135.985 60.5654 134.665 60.8902 133.78 61.5384C132.896 62.1865 132.454 63.1034 132.454 64.2892C132.449 64.7481 132.545 65.2025 132.736 65.6199C132.927 66.0372 133.207 66.4074 133.558 66.7038C133.923 67.0141 134.345 67.2516 134.8 67.4035C135.313 67.5748 135.85 67.6592 136.39 67.6533C136.722 67.6553 137.054 67.6218 137.378 67.5534C137.667 67.494 137.949 67.4042 138.219 67.2854C138.459 67.1753 138.688 67.0406 138.9 66.8833C139.103 66.7389 139.291 66.5754 139.461 66.3949C139.493 66.5878 139.535 66.7788 139.586 66.9673ZM137.817 65.3137C137.552 65.3838 137.278 65.4182 137.004 65.4159C136.449 65.4159 136.034 65.2819 135.759 65.0274C135.625 64.905 135.519 64.7552 135.448 64.5882C135.377 64.4213 135.343 64.2411 135.348 64.0598C135.345 63.8144 135.394 63.5712 135.493 63.3465C135.595 63.1236 135.751 62.9299 135.947 62.7832C136.18 62.6141 136.444 62.4921 136.724 62.4243C137.102 62.3311 137.49 62.2875 137.878 62.2948H139.361V64.2301C139.268 64.3892 139.152 64.5344 139.018 64.6617C138.864 64.8117 138.688 64.9393 138.498 65.0411C138.282 65.1578 138.054 65.2493 137.817 65.3137ZM151.905 64.1041L152.05 64.915L152.196 64.1359L154.674 56.1855H157.691L153.413 67.4455H150.687L146.396 56.1945H149.418L151.905 64.1041ZM164.609 67.2266C165.362 67.5195 166.164 67.6644 166.972 67.6537C167.495 67.653 168.016 67.5889 168.523 67.4629C168.973 67.3573 169.411 67.2051 169.829 67.0086C170.196 66.834 170.539 66.6134 170.849 66.3521C171.113 66.1304 171.349 65.8771 171.551 65.5979L170.104 64.0351C169.939 64.2508 169.742 64.4406 169.52 64.5985C169.298 64.7653 169.057 64.9056 168.803 65.0164C168.543 65.1264 168.273 65.2086 167.996 65.2618C167.717 65.3179 167.434 65.3461 167.149 65.3458C166.769 65.3493 166.391 65.2855 166.034 65.1573C165.366 64.9169 164.811 64.4368 164.478 63.8102C164.305 63.4835 164.192 63.1291 164.141 62.7631H171.785V61.5364C171.794 60.7657 171.678 59.9986 171.442 59.2649C171.233 58.6166 170.89 58.0193 170.436 57.5113C169.989 57.018 169.438 56.6301 168.823 56.3755C167.424 55.8313 165.87 55.8402 164.478 56.4005C163.826 56.6759 163.238 57.0835 162.751 57.5976C162.254 58.1284 161.868 58.7532 161.616 59.4352C161.336 60.1895 161.196 60.9886 161.204 61.7931V62.2088C161.2 62.9384 161.34 63.6617 161.616 64.3372C161.884 64.9887 162.285 65.5773 162.792 66.0659C163.317 66.5664 163.934 66.9606 164.609 67.2266ZM165.734 58.488C166.018 58.3717 166.322 58.3138 166.629 58.3176C166.959 58.3126 167.288 58.3712 167.596 58.4903C167.864 58.5954 168.107 58.7547 168.31 58.9582C168.508 59.1591 168.663 59.3988 168.764 59.6624C168.87 59.9385 168.93 60.2301 168.941 60.5256V60.7527H164.196C164.257 60.4078 164.362 60.072 164.507 59.7533C164.635 59.4697 164.809 59.2095 165.023 58.9832C165.222 58.7698 165.465 58.6011 165.734 58.488ZM178.823 65.7693C178.82 65.5116 178.866 65.2557 178.959 65.0151C179.045 64.7872 179.18 64.5809 179.354 64.4109C179.536 64.2349 179.752 64.0974 179.988 64.0066C180.531 63.8037 181.13 63.8037 181.673 64.0066C181.909 64.0969 182.124 64.2345 182.305 64.4109C182.476 64.5839 182.61 64.7893 182.7 65.0151C182.795 65.2551 182.843 65.5112 182.841 65.7693C182.843 66.0222 182.795 66.273 182.7 66.5075C182.608 66.7285 182.474 66.9292 182.305 67.0981C182.125 67.2746 181.91 67.4109 181.673 67.4979C181.129 67.6949 180.532 67.6949 179.988 67.4979C179.751 67.4101 179.535 67.274 179.354 67.0981C179.18 66.9294 179.045 66.7248 178.959 66.4985C178.868 66.2662 178.822 66.0188 178.823 65.7693ZM190.246 59.4384C190.004 60.171 189.885 60.9384 189.892 61.7099L189.883 61.9439C189.875 62.7199 189.994 63.4919 190.237 64.2291C190.457 64.8982 190.809 65.5162 191.273 66.0463C191.736 66.5657 192.309 66.9761 192.949 67.2479C193.668 67.5479 194.442 67.6949 195.221 67.6795C195.992 67.6934 196.758 67.5465 197.47 67.2479C198.107 66.9759 198.676 66.5654 199.135 66.0463C199.596 65.5154 199.947 64.8975 200.166 64.2291C200.408 63.4919 200.528 62.7199 200.52 61.9439V61.7167C200.527 60.9453 200.408 60.1779 200.166 59.4452C199.946 58.7763 199.593 58.1584 199.13 57.628C198.668 57.1085 198.097 56.6967 197.458 56.4218C196.011 55.8372 194.394 55.8372 192.947 56.4218C192.312 56.6966 191.744 57.1058 191.282 57.6211C190.819 58.1516 190.466 58.7695 190.246 59.4384ZM192.922 63.2659C192.829 62.8292 192.783 62.3837 192.786 61.9371L192.79 61.7099C192.788 61.2724 192.834 60.836 192.926 60.4083C193.005 60.0258 193.149 59.6599 193.354 59.3271C193.652 58.8424 194.128 58.4937 194.679 58.3557C195.231 58.2178 195.816 58.3014 196.307 58.5888C196.613 58.7682 196.869 59.0222 197.052 59.3271C197.251 59.6588 197.393 60.021 197.474 60.3992C197.565 60.8271 197.61 61.2634 197.608 61.7008V61.928C197.61 62.3744 197.566 62.8199 197.474 63.2568C197.395 63.6385 197.252 64.004 197.052 64.3381C196.871 64.6432 196.617 64.8985 196.313 65.0809C195.981 65.2692 195.603 65.3627 195.221 65.3512C194.847 65.3669 194.477 65.282 194.147 65.1054C193.818 64.9287 193.542 64.6669 193.349 64.3472C193.144 64.0147 192.999 63.6487 192.922 63.2659ZM212.766 55.9682C213.172 55.9659 213.576 55.9956 213.977 56.0568C214.284 56.1016 214.587 56.1661 214.886 56.2499L214.452 59.1484C214.066 59.0588 213.675 58.9913 213.282 58.9462C212.905 58.9022 212.526 58.8794 212.146 58.8781C211.464 58.8453 210.788 59.0077 210.195 59.346C209.697 59.6653 209.311 60.1323 209.091 60.6817V67.4463H206.199V56.1954H208.893L209.03 58.0376C209.462 57.4173 210.026 56.9 210.681 56.5225C211.315 56.1574 212.035 55.9662 212.766 55.9682ZM50.4488 67.4466C50.3729 67.2936 50.3135 67.133 50.2716 66.9673C50.22 66.7788 50.1783 66.5878 50.1467 66.3949C49.9792 66.5755 49.7943 66.739 49.5947 66.8833C49.3821 67.0406 49.1537 67.1753 48.9132 67.2854C48.6404 67.4048 48.3556 67.4947 48.0637 67.5534C47.7388 67.6218 47.4076 67.6553 47.0756 67.6534C46.5353 67.6588 45.998 67.5744 45.4855 67.4035C45.0305 67.2516 44.6087 67.0141 44.243 66.7038C43.8926 66.4074 43.612 66.0373 43.4212 65.6199C43.2304 65.2025 43.134 64.7481 43.139 64.2892C43.139 63.1034 43.5812 62.1865 44.4656 61.5384C45.3499 60.8902 46.6705 60.5654 48.4271 60.5639H50.0399V59.9006C50.0513 59.6604 50.0096 59.4206 49.9177 59.1984C49.8258 58.9762 49.6861 58.7769 49.5084 58.6149C49.1563 58.2991 48.6452 58.1424 47.9796 58.1424C47.389 58.1424 46.9597 58.2673 46.6894 58.5217C46.5527 58.6519 46.4457 58.81 46.3755 58.9852C46.3054 59.1604 46.2738 59.3486 46.2828 59.5371H43.3911C43.3906 59.0644 43.4994 58.5979 43.7091 58.1742C43.9297 57.7314 44.2464 57.3434 44.6359 57.0384C45.0803 56.6914 45.5846 56.4288 46.1238 56.2638C46.775 56.0602 47.4542 55.9606 48.1364 55.9685C48.7786 55.9637 49.4185 56.0478 50.0377 56.2184C50.5875 56.3679 51.1045 56.619 51.5619 56.9589C51.9964 57.2845 52.3462 57.7099 52.5818 58.1992C52.8346 58.7373 52.9598 59.3266 52.9475 59.921V64.7503C52.9397 65.2525 52.9777 65.7543 53.0611 66.2495C53.1244 66.6034 53.2368 66.9467 53.395 67.2695V67.4466H50.4488ZM47.6889 65.4159C47.9603 65.4174 48.2306 65.383 48.493 65.3137C48.7299 65.2493 48.9586 65.1578 49.1745 65.0411C49.3646 64.9394 49.5397 64.8117 49.6947 64.6617C49.8284 64.5344 49.9438 64.3892 50.0377 64.2301V62.2948H48.5634C48.1748 62.2875 47.7869 62.3311 47.4095 62.4243C47.1282 62.492 46.8628 62.6139 46.6281 62.7832C46.4318 62.9299 46.2755 63.1236 46.1738 63.3465C46.0752 63.5712 46.0256 63.8144 46.0284 64.0598C46.0242 64.2425 46.0595 64.4241 46.1321 64.5919C46.2046 64.7597 46.3126 64.9098 46.4486 65.032C46.7227 65.2894 47.1361 65.4174 47.6889 65.4159Z" fill="white"/>
</svg>
