<svg width="261" height="120" viewBox="0 0 261 120" fill="none" xmlns="http://www.w3.org/2000/svg">
<path fill-rule="evenodd" clip-rule="evenodd" d="M61.765 67.2446L59.3254 64.7741C58.3988 65.6386 57.4621 66.3234 56.5146 66.8281C55.5679 67.3322 54.4354 67.5843 53.1179 67.5843C52.0883 67.5843 51.1363 67.3838 50.2613 66.9822C49.3863 66.5805 48.6296 66.0302 47.9913 65.3298C47.3529 64.6299 46.8592 63.8117 46.5087 62.875C46.1588 61.9383 45.9842 60.9342 45.9842 59.8643C45.9842 58.7936 46.1588 57.7949 46.5087 56.8683C46.8592 55.9421 47.3529 55.1342 47.9913 54.4442C48.6296 53.7547 49.3863 53.2093 50.2613 52.8077C51.1363 52.4064 52.0883 52.2056 53.1179 52.2056C54.3529 52.2056 55.4546 52.4527 56.4221 52.9468C57.39 53.4405 58.3063 54.0893 59.1704 54.8921L61.6104 52.0823C61.0959 51.5882 60.5504 51.1353 59.9737 50.7232C59.3975 50.3116 58.7696 49.9562 58.09 49.6578C57.4104 49.3591 56.6642 49.1279 55.8508 48.9633C55.0375 48.7983 54.1367 48.7158 53.1488 48.7158C51.5017 48.7158 49.9987 49.0096 48.64 49.5962C47.2808 50.1828 46.1075 50.9857 45.1192 52.0048C44.1308 53.0239 43.3642 54.2126 42.8183 55.5717C42.2725 56.9303 42 58.3819 42 59.926C42 61.4905 42.2779 62.9521 42.8338 64.3111C43.3896 65.6694 44.1567 66.848 45.1346 67.8467C46.1125 68.8451 47.2704 69.6325 48.6088 70.2091C49.9471 70.7857 51.4092 71.0737 52.9942 71.0737C54.0033 71.0737 54.9246 70.9861 55.7583 70.8112C56.5921 70.6361 57.3592 70.3792 58.0592 70.0396C58.7592 69.6996 59.4129 69.298 60.0204 68.835C60.6276 68.3717 61.2092 67.8414 61.765 67.2446Z" fill="white"/>
<path fill-rule="evenodd" clip-rule="evenodd" d="M110.769 54.837C110.769 54.1179 111.076 53.5068 111.691 53.0039C112.305 52.5 113.165 52.2486 114.271 52.2486C115.253 52.2486 116.226 52.4389 117.188 52.8189C118.151 53.1988 119.124 53.7483 120.106 54.4671L122.133 51.6017C121.028 50.7184 119.845 50.0458 118.586 49.584C117.326 49.1218 115.909 48.8906 114.332 48.8906C113.267 48.8906 112.284 49.0394 111.388 49.3375C110.487 49.6351 109.72 50.0612 109.08 50.6157C108.44 51.1707 107.938 51.8329 107.57 52.6031C107.206 53.3734 107.022 54.231 107.022 55.1758C107.022 56.1822 107.181 57.0348 107.498 57.7331C107.815 58.4315 108.281 59.0272 108.885 59.5202C109.489 60.0132 110.242 60.4239 111.132 60.7527C112.028 61.0815 113.047 61.3787 114.199 61.6459C115.203 61.8924 116.016 62.1287 116.646 62.3543C117.27 62.5805 117.762 62.822 118.125 63.0784C118.483 63.3353 118.73 63.6176 118.862 63.9256C118.996 64.2341 119.062 64.5828 119.062 64.9731C119.062 65.8158 118.719 66.4834 118.033 66.9759C117.347 67.4694 116.421 67.7154 115.253 67.7154C113.902 67.7154 112.694 67.4739 111.629 66.9913C110.564 66.5088 109.51 65.8158 108.465 64.9116L106.193 67.6231C107.483 68.7936 108.885 69.6617 110.401 70.2266C111.916 70.7915 113.503 71.0738 115.161 71.0738C116.287 71.0738 117.322 70.93 118.264 70.6427C119.2 70.3547 120.009 69.9336 120.675 69.3791C121.345 68.8246 121.867 68.1469 122.246 67.3459C122.62 66.5449 122.809 65.6308 122.809 64.6036C122.809 63.6999 122.661 62.9142 122.364 62.2466C122.067 61.579 121.627 60.9941 121.054 60.4904C120.48 59.9874 119.753 59.5609 118.883 59.2117C118.013 58.863 117.009 58.5445 115.883 58.2569C114.854 58.0104 114.01 57.7739 113.339 57.5481C112.673 57.3224 112.151 57.0759 111.767 56.8086C111.388 56.5418 111.128 56.2541 110.984 55.9461C110.841 55.6376 110.769 55.2681 110.769 54.837Z" fill="white"/>
<path fill-rule="evenodd" clip-rule="evenodd" d="M152.814 55.1429V70.5504H156.567V49.0659H152.537L145.985 59.2251L139.433 49.0659H135.403V70.5504H139.156V55.2042L145.892 65.2715H146.015L152.814 55.1429Z" fill="white"/>
<path fill-rule="evenodd" clip-rule="evenodd" d="M188.098 59.926C188.098 60.9759 187.918 61.9692 187.558 62.9063C187.199 63.8428 186.701 64.6558 186.063 65.3452C185.427 66.0347 184.661 66.5805 183.767 66.9822C182.873 67.384 181.892 67.5843 180.823 67.5843C179.755 67.5843 178.768 67.3784 177.864 66.9669C176.96 66.5548 176.184 65.9989 175.537 65.2994C174.889 64.5991 174.386 63.7807 174.026 62.8441C173.667 61.9076 173.487 60.9139 173.487 59.8643C173.487 58.814 173.667 57.8207 174.026 56.8841C174.386 55.9471 174.884 55.1342 175.521 54.4442C176.158 53.7547 176.924 53.2093 177.818 52.8077C178.712 52.4065 179.693 52.2056 180.761 52.2056C181.83 52.2056 182.817 52.4115 183.721 52.8235C184.625 53.2351 185.401 53.7909 186.048 54.4909C186.695 55.1904 187.199 56.0091 187.558 56.9458C187.918 57.8824 188.098 58.876 188.098 59.926ZM192.074 59.8643C192.074 58.3407 191.797 56.8995 191.242 55.5404C190.688 54.1822 189.916 52.9981 188.93 51.9894C187.944 50.9803 186.762 50.1828 185.385 49.5962C184.008 49.0096 182.488 48.7158 180.823 48.7158C179.159 48.7158 177.638 49.0146 176.261 49.6116C174.884 50.2086 173.692 51.0165 172.685 52.0356C171.678 53.0547 170.898 54.2438 170.343 55.6025C169.788 56.9612 169.51 58.4023 169.51 59.926C169.51 61.4493 169.788 62.8899 170.343 64.2491C170.898 65.6081 171.668 66.7918 172.655 67.8005C173.641 68.8091 174.823 69.607 176.2 70.1936C177.576 70.7803 179.097 71.0737 180.761 71.0737C182.426 71.0737 183.947 70.7749 185.323 70.1784C186.701 69.5813 187.892 68.7733 188.9 67.7538C189.906 66.7351 190.688 65.546 191.242 64.1874C191.797 62.8288 192.074 61.3876 192.074 59.8643Z" fill="white"/>
<path fill-rule="evenodd" clip-rule="evenodd" d="M207.844 54.837C207.844 54.1179 208.152 53.5068 208.766 53.0039C209.38 52.5 210.24 52.2486 211.346 52.2486C212.329 52.2486 213.302 52.4389 214.264 52.8189C215.226 53.1988 216.199 53.7483 217.182 54.4671L219.209 51.6017C218.102 50.7184 216.921 50.0458 215.661 49.584C214.402 49.1218 212.984 48.8906 211.407 48.8906C210.343 48.8906 209.36 49.0394 208.464 49.3375C207.563 49.6351 206.796 50.0612 206.155 50.6157C205.516 51.1707 205.014 51.8329 204.645 52.6031C204.282 53.3734 204.098 54.231 204.098 55.1758C204.098 56.1822 204.256 57.0348 204.574 57.7331C204.891 58.4315 205.357 59.0272 205.961 59.5202C206.565 60.0132 207.317 60.4239 208.208 60.7527C209.104 61.0815 210.123 61.3787 211.274 61.6459C212.278 61.8924 213.092 62.1287 213.721 62.3543C214.346 62.5805 214.837 62.822 215.201 63.0784C215.559 63.3353 215.804 63.6176 215.938 63.9256C216.072 64.2341 216.138 64.5828 216.138 64.9731C216.138 65.8158 215.794 66.4834 215.109 66.9759C214.423 67.4694 213.496 67.7154 212.329 67.7154C210.977 67.7154 209.769 67.4739 208.705 66.9913C207.64 66.5088 206.585 65.8158 205.541 64.9116L203.268 67.6231C204.558 68.7936 205.961 69.6617 207.476 70.2266C208.991 70.7915 210.578 71.0738 212.237 71.0738C213.363 71.0738 214.397 70.93 215.339 70.6427C216.275 70.3547 217.085 69.9336 217.75 69.3791C218.42 68.8246 218.943 68.1469 219.322 67.3459C219.695 66.5449 219.885 65.6308 219.885 64.6036C219.885 63.6999 219.735 62.9142 219.44 62.2466C219.143 61.579 218.702 60.9941 218.129 60.4904C217.555 59.9874 216.829 59.5609 215.959 59.2117C215.088 58.863 214.084 58.5445 212.959 58.2569C211.93 58.0104 211.085 57.7739 210.415 57.5481C209.749 57.3224 209.227 57.0759 208.843 56.8086C208.464 56.5418 208.203 56.2541 208.059 55.9461C207.916 55.6376 207.844 55.2681 207.844 54.837Z" fill="white"/>
<path fill-rule="evenodd" clip-rule="evenodd" d="M87.5089 53.3664L77.2259 63.6356C77.0934 63.3787 76.9737 63.111 76.8665 62.8332C76.5074 61.9002 76.3278 60.9102 76.3278 59.8647C76.3278 58.8183 76.5074 57.8288 76.8665 56.8957C77.2259 55.9622 77.724 55.1525 78.3606 54.4651C78.9975 53.7782 79.7627 53.2348 80.6558 52.8347C81.5495 52.435 82.53 52.2349 83.5978 52.2349C84.666 52.2349 85.6518 52.44 86.555 52.8505C86.891 53.0028 87.2089 53.1746 87.5089 53.3664ZM86.6016 66.9557C85.708 67.3557 84.7275 67.5555 83.6597 67.5555C82.5915 67.5555 81.6057 67.3504 80.702 66.9404C80.3665 66.7875 80.0486 66.6157 79.749 66.4236L90.0314 56.1552C90.1641 56.4117 90.2838 56.679 90.391 56.9571C90.7501 57.8902 90.9297 58.8802 90.9297 59.9261C90.9297 60.972 90.7501 61.9615 90.391 62.8951C90.0314 63.8281 89.5335 64.638 88.8967 65.3248C88.26 66.0119 87.4951 66.5556 86.6016 66.9557ZM88.1574 70.1397C89.5335 69.5449 90.7247 68.7401 91.731 67.7244C92.7372 66.7095 93.5174 65.525 94.0719 64.1714C94.6267 62.8179 94.904 61.3822 94.904 59.8647C94.904 58.3468 94.6267 56.9111 94.0719 55.5571C93.7432 54.7544 93.3383 54.0131 92.8578 53.3328L99.5458 46.6539L96.8883 44L90.1799 50.6992C89.5777 50.2891 88.9238 49.9346 88.2189 49.6354C86.8427 49.051 85.323 48.7583 83.6597 48.7583C81.9958 48.7583 80.4763 49.0559 79.1002 49.6507C77.724 50.2455 76.5326 51.0503 75.5265 52.0656C74.5201 53.0808 73.7396 54.2654 73.1851 55.619C72.6306 56.9725 72.3534 58.4082 72.3534 59.9261C72.3534 61.4437 72.6306 62.8789 73.1851 64.2329C73.5143 65.0359 73.9191 65.7774 74.3996 66.458L67.712 73.1361L70.3695 75.79L77.0776 69.0912C77.6799 69.5013 78.3337 69.8559 79.0387 70.155C80.4148 70.7394 81.9343 71.0317 83.5978 71.0317C85.2615 71.0317 86.7812 70.734 88.1574 70.1397Z" fill="white"/>
</svg>
