<svg width="261" height="120" viewBox="0 0 261 120" fill="none" xmlns="http://www.w3.org/2000/svg">
<path fill-rule="evenodd" clip-rule="evenodd" d="M75.7051 52.4665V57.6793L88.1638 57.6738C87.7815 60.5489 86.8121 62.6539 85.3385 64.1275C83.5215 65.9445 80.6852 67.9443 75.7051 67.9443C68.0271 67.9443 62.0222 61.7565 62.0222 54.0786C62.0222 46.4006 68.0271 40.2128 75.7051 40.2128C79.8487 40.2128 82.8734 41.8415 85.1059 43.9355L88.7842 40.2571C85.6709 37.2823 81.5273 35 75.7106 35C65.1964 35 56.3551 43.5643 56.3551 54.0786C56.3551 64.5928 65.1964 73.1571 75.7106 73.1571C81.3832 73.1571 85.6654 71.2958 89.0169 67.8058C92.4625 64.3601 93.5317 59.524 93.5317 55.613C93.5317 54.4497 93.443 53.375 93.2713 52.4665H75.7051ZM180.798 72.4093V36.4016H175.535V72.4093H180.798ZM107.951 73.1628C114.743 73.1628 120.277 67.9499 120.277 60.8758C120.277 53.7518 114.743 48.5889 107.951 48.5889C101.16 48.5889 95.6256 53.7518 95.6256 60.8758C95.6256 67.9499 101.16 73.1628 107.951 73.1628ZM107.951 53.4305C111.674 53.4305 114.881 56.4552 114.881 60.8758C114.881 65.2466 111.674 68.3211 107.951 68.3211C104.229 68.3211 101.021 65.2521 101.021 60.8758C101.021 56.4552 104.229 53.4305 107.951 53.4305ZM134.542 73.1628C141.333 73.1628 146.868 67.9499 146.868 60.8758C146.868 53.7518 141.333 48.5889 134.542 48.5889C127.75 48.5889 122.216 53.7574 122.216 60.8758C122.216 67.9499 127.75 73.1628 134.542 73.1628ZM134.542 53.4305C138.264 53.4305 141.472 56.4552 141.472 60.8758C141.472 65.2466 138.264 68.3211 134.542 68.3211C130.819 68.3211 127.612 65.2521 127.612 60.8758C127.612 56.4552 130.819 53.4305 134.542 53.4305ZM172.35 49.3367V71.3901C172.35 80.464 166.998 84.17 160.672 84.17C154.717 84.17 151.133 80.187 149.781 76.9297L154.479 74.9742C155.315 76.974 157.365 79.3339 160.667 79.3339C164.716 79.3339 167.226 76.8355 167.226 72.1324V70.3652H167.037C165.83 71.8554 163.503 73.1572 160.567 73.1572C154.423 73.1572 148.795 67.8059 148.795 60.9201C148.795 53.9845 154.423 48.5889 160.567 48.5889C163.497 48.5889 165.824 49.8907 167.037 51.3365H167.226V49.3367H172.35ZM167.608 60.9201C167.608 56.5937 164.722 53.4305 161.049 53.4305C157.326 53.4305 154.207 56.5937 154.207 60.9201C154.207 65.2023 157.326 68.3211 161.049 68.3211C164.722 68.3211 167.608 65.2023 167.608 60.9201ZM201.306 64.9193L205.494 67.7113C204.142 69.7111 200.885 73.1568 195.256 73.1568C188.276 73.1568 183.064 67.7611 183.064 60.8698C183.064 53.563 188.321 48.5829 194.652 48.5829C201.029 48.5829 204.147 53.6572 205.167 56.3993L205.726 57.7953L189.301 64.598C190.559 67.0632 192.514 68.3207 195.256 68.3207C198.004 68.3207 199.91 66.969 201.306 64.9193ZM188.415 60.4987L199.394 55.9395C198.791 54.4051 196.974 53.3359 194.835 53.3359C192.093 53.3359 188.276 55.7567 188.415 60.4987Z" fill="white"/>
</svg>
