<svg width="261" height="120" viewBox="0 0 261 120" fill="none" xmlns="http://www.w3.org/2000/svg">
<path fill-rule="evenodd" clip-rule="evenodd" d="M60.1716 53.816H76.5347C77.4505 55.8819 77.9389 58.1302 78 60.5C78 70.1615 69.6964 78 59.5 78C49.3036 78 41 70.1615 41 60.5C41 50.8385 49.3036 43 59.5 43C62.4917 43 65.4224 43.7292 68.0479 45.0052V47.2535C56.4472 40.8733 53.4554 51.2639 53.4554 60.5C53.4554 69.6146 56.6304 75.9948 59.5 75.9948C62.3086 75.9948 65.4835 69.6146 65.4835 60.5C65.4835 59.0417 65.3614 57.6441 65.2393 56.3681C65.1782 56.0642 64.934 55.8212 64.6287 55.8212H59.8663C59.9274 55.1528 60.0495 54.4844 60.1716 53.816ZM52.1122 53.5122C52.7838 50.2309 54.066 47.375 56.0809 45.6129C56.264 45.4306 56.1419 45.1875 55.9587 45.2483C51.0132 46.4028 47.1056 49.5017 44.9076 53.3906C44.7855 53.5729 44.9076 53.816 45.1518 53.816H51.7459C51.929 53.816 52.0512 53.6944 52.1122 53.5122ZM51.2574 55.8212H44.236C43.9307 55.8212 43.7475 56.0035 43.6254 56.2465C43.198 57.6441 42.9538 59.0417 42.9538 60.5C42.9538 61.8368 43.137 63.1736 43.5033 64.4497C43.6254 64.6927 43.8696 64.875 44.1139 64.875H51.1353C51.3795 64.875 51.5627 64.6927 51.5627 64.4497C51.4406 63.1736 51.3795 61.8368 51.3795 60.5C51.3795 59.0417 51.4406 57.6441 51.6238 56.2465C51.6848 56.0035 51.5016 55.8212 51.2574 55.8212ZM51.6238 66.8802H45.0908C44.7855 66.8802 44.6023 67.2448 44.6634 67.4879C46.6782 71.1944 50.2805 74.0503 54.6155 75.2656C54.7987 75.3264 54.9818 75.0833 54.8597 74.9618C53.5776 73.0781 52.6007 70.3438 51.9901 67.184C51.9901 67.0017 51.8069 66.8802 51.6238 66.8802ZM66.8878 67.2448C66.2772 70.4045 65.2393 73.1389 63.9571 75.0226C63.896 75.1441 64.0182 75.3872 64.2013 75.3264C68.5363 74.1111 72.1386 71.1944 74.1535 67.5486C74.2756 67.2448 74.0924 66.941 73.7871 66.941H67.2541C67.071 66.941 66.9488 67.0625 66.8878 67.2448ZM67.6815 64.875H74.8251C75.0693 64.875 75.3135 64.6927 75.3135 64.5104C75.6799 63.2344 75.863 61.9583 75.863 60.5608C75.863 59.1024 75.6799 57.6441 75.2525 56.3073C75.1914 56.0642 74.9472 55.8819 74.703 55.8819H67.6205C67.3762 55.8819 67.1931 56.0642 67.1931 56.3073C67.3762 57.6441 67.4373 59.0417 67.4373 60.5C67.4373 61.8368 67.3762 63.1736 67.2541 64.4497C67.2541 64.6927 67.4373 64.875 67.6815 64.875ZM98.0881 57.1921C94.2321 57.1921 91.4961 55.4641 91.4961 51.5441C91.4961 47.6881 94.5841 45.7681 98.2641 45.7681C100.872 45.7681 102.072 46.5521 102.824 47.0641L101.8 49.1761C101.16 48.7281 100.232 48.1681 98.3761 48.1681C96.0881 48.1681 94.3441 49.2561 94.3441 51.4161C94.3441 53.6081 95.8481 54.7441 98.2961 54.7441C99.0801 54.7441 99.7361 54.6481 100.264 54.5041V52.7441H97.9761V50.6481H102.776V55.9761C102.763 55.984 102.749 55.9921 102.735 56.0004C102.092 56.3801 100.718 57.1921 98.0881 57.1921ZM115.929 53.1281L118.745 57.0001H115.321L113.049 53.5441H110.745V57.0001H107.961V45.9601H113.033C116.665 45.9601 118.329 47.2881 118.329 49.7681C118.329 51.3841 117.513 52.5361 115.929 53.1281ZM112.841 51.3361C114.649 51.3361 115.449 50.7921 115.449 49.8321C115.449 48.8241 114.761 48.3281 112.937 48.3281H110.745V51.3361H112.841ZM127.193 45.9601H130.249L135.113 57.0001H132.073L130.985 54.3281H126.377L125.305 57.0001H122.329L127.193 45.9601ZM127.113 52.4241H130.249L128.697 48.5841H128.665L127.113 52.4241ZM147.911 45.9601H150.711V57.0001H147.911L142.263 50.2161H142.231V57.0001H139.447V45.9601H142.247L147.879 52.7441H147.911V45.9601ZM155.068 45.9601H166.78V48.3281H162.332V57.0001H159.532V48.3281H155.068V45.9601ZM178.902 45.9601H187.734V48.3281H181.686V51.1441H187.19V53.5281H181.686V57.0001H178.902V45.9601ZM198.089 45.7681C202.169 45.7681 204.537 48.0241 204.537 51.4801C204.537 54.9361 202.153 57.1921 198.089 57.1921C194.009 57.1921 191.641 54.9361 191.641 51.4801C191.641 48.0241 194.025 45.7681 198.089 45.7681ZM198.105 54.7281C200.313 54.7281 201.673 53.4481 201.673 51.4481C201.673 49.4641 200.313 48.1841 198.089 48.1841C195.865 48.1841 194.505 49.4641 194.505 51.4481C194.505 53.4481 195.865 54.7281 198.105 54.7281ZM217.34 53.1281L220.156 57.0001H216.732L214.46 53.5441H212.156V57.0001H209.372V45.9601H214.444C218.076 45.9601 219.74 47.2881 219.74 49.7681C219.74 51.3841 218.924 52.5361 217.34 53.1281ZM214.252 51.3361C216.06 51.3361 216.86 50.7921 216.86 49.8321C216.86 48.8241 216.172 48.3281 214.348 48.3281H212.156V51.3361H214.252ZM91.1281 64.9601H102.84V67.3281H98.3921V76.0001H95.5921V67.3281H91.1281V64.9601ZM115.707 64.9601H118.507V76.0001H115.707V71.5681H109.995V76.0001H107.211V64.9601H109.995V69.2001H115.707V64.9601ZM123.821 64.9601H132.637V67.2961H126.621V69.2801H132.045V71.4561H126.621V73.6161H132.781V76.0001H123.821V64.9601ZM159.574 64.9601H162.518L159.43 76.0001H156.55L153.59 68.3681H153.558L150.582 76.0001H147.718L144.63 64.9601H147.574L149.366 72.2721H149.398L152.15 64.9601H154.998L157.75 72.2721H157.782L159.574 64.9601ZM166.901 64.9601H175.717V67.2961H169.701V69.2801H175.125V71.4561H169.701V73.6161H175.861V76.0001H166.901V64.9601ZM188.92 70.3041C190.296 70.5601 191.32 71.4881 191.32 72.8961C191.32 74.7201 189.912 76.0001 186.36 76.0001H180.808V64.9601H186.312C189.544 64.9601 190.824 66.0641 190.824 67.7921C190.824 69.1201 190.024 69.9681 188.92 70.2721V70.3041ZM185.992 69.3761C187.496 69.3761 188.072 68.9281 188.072 68.2081C188.072 67.5201 187.544 67.1361 185.992 67.1361H183.592V69.3761H185.992ZM186.184 73.6961C187.944 73.6961 188.52 73.2801 188.52 72.5441C188.52 71.7761 187.928 71.3281 186.136 71.3281H183.592V73.6961H186.184Z" fill="white"/>
</svg>
