<svg version="1.1" xmlns="http://www.w3.org/2000/svg" x="0" y="0" viewBox="0 0 261 120" xml:space="preserve" enable-background="new 0 0 261 120">
  <style>
    .st2{fill-rule:evenodd;clip-rule:evenodd}.st13,.st2{fill:#fff}
  </style>
  <defs>
    <filter id="Adobe_OpacityMaskFilter" filterUnits="userSpaceOnUse" x="124.7" y="35.5" width="9.6" height="43.1">
      <feColorMatrix values="1 0 0 0 0 0 1 0 0 0 0 0 1 0 0 0 0 0 1 0"/>
    </filter>
  </defs>
  <mask maskUnits="userSpaceOnUse" x="124.7" y="35.5" width="9.6" height="43.1" id="mask0_00000158013567504860113180000008763495028478590606_">
    <path d="M123.1 33.2h12.1v15c-1.7-1.1-3.6-1.7-5.8-1.7h-.6v-5.4c-2.1.1-4 .5-5.8 1.3v6.2V33.2z" fill-rule="evenodd" clip-rule="evenodd" fill="#c5c5c4" filter="url(#Adobe_OpacityMaskFilter)"/>
  </mask>
  <g mask="url(#mask0_00000158013567504860113180000008763495028478590606_)">
    <path class="st2" d="M130.4 36c-.3-.3-.6-.5-1-.5s-.7.2-1 .5c-.3.3-.5.6-.8 1.1-.5.9-1 2.3-1.5 4.1-.9 3.6-1.6 8.9-1.6 15.9s.7 12.3 1.6 15.9c.4 1.8.9 3.2 1.5 4.1.3.5.5.8.8 1.1.3.3.6.5 1 .5s.7-.2 1-.5c.3-.3.5-.6.8-1.1.5-.9 1-2.3 1.5-4.1.9-3.6 1.6-8.9 1.6-15.9s-.7-12.3-1.6-15.9c-.4-1.8-.9-3.2-1.5-4.1-.2-.5-.5-.8-.8-1.1zm1.4 5.4c.9 3.5 1.5 8.7 1.5 15.7s-.7 12.2-1.5 15.7c-.4 1.7-.9 3-1.4 3.9-.2.4-.4.7-.6.9-.2.2-.3.2-.3.2s-.1 0-.3-.2c-.2-.2-.4-.5-.6-.9-.5-.8-.9-2.1-1.4-3.9-.9-3.5-1.5-8.7-1.5-15.7s.7-12.2 1.5-15.7c.4-1.7.9-3 1.4-3.9.2-.4.4-.7.6-.9.2-.2.3-.2.3-.2s.1 0 .3.2c.2.2.4.5.6.9.4.9.9 2.2 1.4 3.9z"/>
  </g>
  <defs>
    <filter id="Adobe_OpacityMaskFilter_00000164476160786892246020000010006926827066172588_" filterUnits="userSpaceOnUse" x="110.6" y="45.6" width="37.6" height="23">
      <feColorMatrix values="1 0 0 0 0 0 1 0 0 0 0 0 1 0 0 0 0 0 1 0"/>
    </filter>
  </defs>
  <mask maskUnits="userSpaceOnUse" x="110.6" y="45.6" width="37.6" height="23" id="mask1_00000004530211345240491270000012467861925009413267_">
    <path d="M147 74.6l6.1-10.5-13-7.5c.1 2-.3 4-1.4 5.8-.1.2-.2.3-.3.5l4.1 2.4c-1.1 1.7-2.5 3.2-4.1 4.3l-4.7-2.7 13.3 7.7z" fill-rule="evenodd" clip-rule="evenodd" fill="#c5c5c4" filter="url(#Adobe_OpacityMaskFilter_00000164476160786892246020000010006926827066172588_)"/>
  </mask>
  <g mask="url(#mask1_00000004530211345240491270000012467861925009413267_)">
    <path class="st2" d="M148.2 66.8c.1.4.1.7-.1 1.1-.2.3-.5.5-.9.6-.4.1-.8.1-1.4.1-1.1 0-2.5-.3-4.3-.8-3.5-1-8.5-3.1-14.6-6.6-6.1-3.5-10.3-6.8-13-9.3-1.3-1.3-2.3-2.4-2.8-3.3-.3-.5-.5-.9-.6-1.2-.1-.4-.1-.7.1-1.1.2-.3.5-.5.9-.6.4-.1.8-.1 1.4-.1 1.1 0 2.5.3 4.3.8 3.5 1 8.5 3.1 14.6 6.6 6.1 3.5 10.3 6.8 13 9.3 1.3 1.3 2.3 2.4 2.8 3.3.3.4.5.8.6 1.2zm-4-3.9c-2.6-2.5-6.8-5.7-12.8-9.2s-10.9-5.5-14.4-6.5c-1.7-.5-3.1-.7-4-.8-.5 0-.8 0-1.1.1-.3.1-.3.2-.3.2s-.1.1 0 .4c.1.2.2.6.5 1 .5.8 1.4 1.9 2.7 3.1 2.6 2.5 6.8 5.7 12.8 9.2 6 3.5 10.9 5.5 14.4 6.5 1.7.5 3.1.7 4 .8.5 0 .8 0 1.1-.1.3-.1.3-.2.3-.2s.1-.1 0-.4c-.1-.2-.2-.6-.5-1-.5-.8-1.4-1.8-2.7-3.1z"/>
  </g>
  <defs>
    <filter id="Adobe_OpacityMaskFilter_00000034777205013725820300000005756943849187435433_" filterUnits="userSpaceOnUse" x="124.7" y="35.5" width="9.6" height="43.1">
      <feColorMatrix values="1 0 0 0 0 0 1 0 0 0 0 0 1 0 0 0 0 0 1 0"/>
    </filter>
  </defs>
  <mask maskUnits="userSpaceOnUse" x="124.7" y="35.5" width="9.6" height="43.1" id="mask2_00000079469771126253263350000003829030333352550842_">
    <path d="M123.1 81h12.1V66c-1.7 1.1-3.6 1.7-5.8 1.7h-.6v4.7c-2.1-.1-4-.6-5.8-1.4v-5.5V81z" fill-rule="evenodd" clip-rule="evenodd" fill="#c5c5c4" filter="url(#Adobe_OpacityMaskFilter_00000034777205013725820300000005756943849187435433_)"/>
  </mask>
  <g mask="url(#mask2_00000079469771126253263350000003829030333352550842_)">
    <path class="st2" d="M130.4 78.2c-.3.3-.6.5-1 .5s-.7-.2-1-.5c-.3-.3-.5-.6-.8-1.1-.5-.9-1-2.3-1.5-4.1-.9-3.6-1.6-8.9-1.6-15.9s.7-12.3 1.6-15.9c.4-1.8.9-3.2 1.5-4.1.3-.5.5-.8.8-1.1.3-.3.6-.5 1-.5s.7.2 1 .5c.3.3.5.6.8 1.1.5.9 1 2.3 1.5 4.1.9 3.6 1.6 8.9 1.6 15.9s-.7 12.3-1.6 15.9c-.4 1.8-.9 3.2-1.5 4.1-.2.4-.5.8-.8 1.1zm1.4-5.4c.9-3.5 1.5-8.7 1.5-15.7s-.7-12.2-1.5-15.7c-.4-1.7-.9-3-1.4-3.9-.2-.4-.4-.7-.6-.9-.2-.2-.3-.2-.3-.2s-.1 0-.3.2c-.2.2-.4.5-.6.9-.5.8-.9 2.1-1.4 3.9-.9 3.5-1.5 8.7-1.5 15.7s.7 12.2 1.5 15.7c.4 1.7.9 3 1.4 3.9.2.4.4.7.6.9.2.2.3.2.3.2s.1 0 .3-.2c.2-.2.4-.5.6-.9.4-.9.9-2.2 1.4-3.9z"/>
  </g>
  <defs>
    <filter id="Adobe_OpacityMaskFilter_00000101788017526981040720000015197899740438976408_" filterUnits="userSpaceOnUse" x="110.6" y="45.6" width="37.6" height="23">
      <feColorMatrix values="1 0 0 0 0 0 1 0 0 0 0 0 1 0 0 0 0 0 1 0"/>
    </filter>
  </defs>
  <mask maskUnits="userSpaceOnUse" x="110.6" y="45.6" width="37.6" height="23" id="mask3_00000180338822075803383350000011391567870283537299_">
    <path d="M105.6 50.7l6.1-10.5 13 7.5c-1.8.9-3.3 2.3-4.4 4.1-.1.2-.2.3-.3.5l-4.1-2.4c-1 1.8-1.5 3.8-1.7 5.7l4.7 2.7-4.7-2.7-8.6-4.9z" fill-rule="evenodd" clip-rule="evenodd" fill="#c5c5c4" filter="url(#Adobe_OpacityMaskFilter_00000101788017526981040720000015197899740438976408_)"/>
  </mask>
  <g mask="url(#mask3_00000180338822075803383350000011391567870283537299_)">
    <path class="st2" d="M110.8 46.3c.2-.3.5-.5.9-.6.4-.1.8-.1 1.4-.1 1.1 0 2.5.3 4.3.8 3.2.9 7.5 2.7 12.7 5.6-.6-.1-1.2 0-1.8.1-4.6-2.4-8.4-4-11.2-4.8-1.7-.5-3.1-.7-4-.8-.5 0-.8 0-1.1.1-.3.1-.3.2-.3.2s-.1.1 0 .4c.1.2.2.6.5 1 .5.8 1.4 1.9 2.7 3.1 2.1 2.1 5.3 4.6 9.8 7.4.2.6.4 1.1.8 1.6-5.1-3.1-8.8-6-11.2-8.3-1.3-1.3-2.3-2.4-2.8-3.3-.3-.5-.5-.9-.6-1.2-.3-.5-.3-.9-.1-1.2zm18.1 16c.6.1 1.2 0 1.8-.1 4.6 2.4 8.4 4 11.2 4.8 1.7.5 3.1.7 4 .8.5 0 .8 0 1.1-.1.3-.1.3-.2.3-.2s.1-.1 0-.4c-.1-.2-.2-.6-.5-1-.5-.8-1.4-1.9-2.7-3.1-2.1-2.1-5.3-4.6-9.8-7.4-.2-.6-.4-1.1-.8-1.6 5.1 3.1 8.8 6 11.2 8.3 1.3 1.3 2.3 2.4 2.8 3.3.3.5.5.9.6 1.2.1.4.1.7-.1 1.1-.2.3-.5.5-.9.6-.4.1-.8.1-1.4.1-1.1 0-2.5-.3-4.3-.8-3-.9-7.3-2.7-12.5-5.5z"/>
  </g>
  <path class="st2" d="M120.6 57.1c0-4.9 4-8.9 8.9-8.9s8.9 4 8.9 8.9-4 8.9-8.9 8.9c-4.9-.1-8.9-4.1-8.9-8.9zm3.5 6.3c1.4 1.2 3.3 1.9 5.3 1.9 4.6 0 8.3-3.7 8.3-8.3 0-1.8-.6-3.5-1.6-4.9-.7.3-1.7.6-2 .6-.3.3-1.1 1.1-1.8 1.1h-.1c-.8-.1-1.5-.9-1.6-1-.1-.1-.1-.1-.1-.2 0-.5 0-1-.1-1.2h-.1c-.3.1-.7.2-1.1-.1-.4-.3-.3-.8-.3-1.2-.3-.1-.7-.3-.8-.6-.1-.2 0-.6.2-.9-1.2.2-2.3.6-3.3 1.2.4.4.6 1 .7 1.2.2.1.5.4.7.8.1.4.1.9 0 1.1.1.4.4 1.3.2 1.7-.2.4-.8.6-1.1.7-.1.2-.5.7-1.2.8-.2 0-.7.1-.7.7 0 .4.4 1.2.6 1.5.3.1.7.4.8.7.1.2.1.7.1.8.1.3.6 1.3.3 2-.1.2-.5.4-.7.5l-.6 1.1zm10.2-7c.4.2 1.5.6 1.7 1.1.3.6-.4 2-1 2.2-.6.3-1 .6-1.1.9 0 0-.1.2-.1.3-.2.5-.4 1.2-1 1.4-.2.1-.4.2-.7.4-.6.4-1.3.9-1.8.9h-.2c-.2-.1-.5-.2-.6-.6-.3-.7-.2-1.8.2-2.4.2-.2 0-.8 0-1.2 0-.2-.1-.3-.1-.4 0-.1-.3-.3-.4-.5-.3-.3-.6-.6-.6-.9 0-.6.9-1.8 1.2-2.1l.1-.1c.3-.1 1.1-.3 1.4-.2.3.1.7.3.9.4.3 0 1.1.1 1.6.3h.1l.4.5z"/>
  <defs>
    <filter id="Adobe_OpacityMaskFilter_00000022539908047630130210000018127598416557899956_" filterUnits="userSpaceOnUse" x="110.6" y="45.6" width="37.6" height="23">
      <feColorMatrix values="1 0 0 0 0 0 1 0 0 0 0 0 1 0 0 0 0 0 1 0"/>
    </filter>
  </defs>
  <mask maskUnits="userSpaceOnUse" x="110.6" y="45.6" width="37.6" height="23" id="mask4_00000160897361676383104360000016946250969191493291_">
    <path d="M111.6 74l-6.1-10.5 22.1-12.7 6.1 10.5L111.6 74zm2-15.1c.2 1.9.8 3.9 1.8 5.7l15.2-8.8-2.9-5-14.1 8.1z" fill-rule="evenodd" clip-rule="evenodd" fill="#c5c5c4" filter="url(#Adobe_OpacityMaskFilter_00000022539908047630130210000018127598416557899956_)"/>
  </mask>
  <g mask="url(#mask4_00000160897361676383104360000016946250969191493291_)">
    <path class="st2" d="M111.7 68.5c-.4-.1-.7-.3-.9-.6-.2-.3-.2-.7-.1-1.1.1-.4.3-.8.6-1.2.6-.9 1.5-2 2.8-3.3 2.6-2.6 6.9-5.8 13-9.3s11-5.6 14.6-6.6c1.8-.5 3.2-.8 4.3-.8.5 0 1 0 1.4.1.4.1.7.3.9.6.2.3.2.7.1 1.1-.1.4-.3.8-.6 1.2-.6.9-1.5 2-2.8 3.3-2.6 2.6-6.9 5.8-13 9.3-6.1 3.5-11 5.6-14.6 6.6-1.8.5-3.2.8-4.3.8-.6 0-1.1 0-1.4-.1zm5.3-1.6c3.5-1 8.3-3 14.4-6.5 6-3.5 10.2-6.7 12.8-9.2 1.3-1.2 2.2-2.3 2.7-3.1.3-.4.4-.7.5-1 .1-.3 0-.4 0-.4s-.1-.1-.3-.2c-.2-.1-.6-.1-1.1-.1-1 0-2.3.3-4 .8-3.5 1-8.3 3-14.4 6.5-6 3.5-10.2 6.7-12.8 9.2-1.3 1.2-2.2 2.3-2.7 3.1-.3.4-.4.7-.5 1-.1.3 0 .4 0 .4s.1.1.3.2c.2.1.6.1 1.1.1.9-.1 2.3-.3 4-.8z"/>
  </g>
  <defs>
    <filter id="Adobe_OpacityMaskFilter_00000092419243883156797540000001262347835531565215_" filterUnits="userSpaceOnUse" x="110.6" y="45.6" width="37.6" height="23">
      <feColorMatrix values="1 0 0 0 0 0 1 0 0 0 0 0 1 0 0 0 0 0 1 0"/>
    </filter>
  </defs>
  <mask maskUnits="userSpaceOnUse" x="110.6" y="45.6" width="37.6" height="23" id="mask5_00000062878443320448581940000006462790891780618156_">
    <path d="M153 50.1l-6-10.5-8.7 5-13.4 7.7 6.1 10.5 22-12.7zm-28.1 2.3l2.9 5 14.6-8.4c-1.1-1.7-2.5-3.2-4.1-4.3l-13.4 7.7z" fill-rule="evenodd" clip-rule="evenodd" fill="#c5c5c4" filter="url(#Adobe_OpacityMaskFilter_00000092419243883156797540000001262347835531565215_)"/>
  </mask>
  <g mask="url(#mask5_00000062878443320448581940000006462790891780618156_)">
    <path class="st2" d="M148.2 47.4c.1-.4.1-.7-.1-1.1-.2-.3-.5-.5-.9-.6-.4-.1-.8-.1-1.4-.1-1.1 0-2.5.3-4.3.8-3.5 1-8.5 3.1-14.6 6.6-6.1 3.5-10.3 6.8-13 9.3-1.3 1.3-2.3 2.4-2.8 3.3-.3.5-.5.9-.6 1.2-.1.4-.1.7.1 1.1s.5.5.9.6c.4.1.8.1 1.4.1 1.1 0 2.5-.3 4.3-.8 3.5-1 8.5-3.1 14.6-6.6 6.1-3.5 10.3-6.8 13-9.3 1.3-1.3 2.3-2.4 2.8-3.3.3-.4.5-.9.6-1.2zm-4 3.8c-2.6 2.5-6.8 5.7-12.8 9.2-6 3.5-10.9 5.5-14.4 6.5-1.7.5-3.1.7-4 .8-.5 0-.8 0-1.1-.1-.3-.1-.3-.2-.3-.2s-.1-.1 0-.4c.1-.2.2-.6.5-1 .5-.8 1.4-1.9 2.7-3.1 2.6-2.5 6.8-5.7 12.8-9.2 6-3.5 10.9-5.5 14.4-6.5 1.7-.5 3.1-.7 4-.8.5 0 .8 0 1.1.1.3.1.3.2.3.2s.1.1 0 .4c-.1.2-.2.6-.5 1-.5.8-1.4 1.9-2.7 3.1z"/>
  </g>
  <path class="st2" d="M115.7 51c.8 0 1.5.7 1.5 1.5s-.7 1.5-1.5 1.5-1.5-.7-1.5-1.5.7-1.5 1.5-1.5zM139.9 45.8c.8 0 1.5.7 1.5 1.5s-.7 1.5-1.5 1.5-1.5-.7-1.5-1.5c-.1-.8.6-1.5 1.5-1.5zM126.5 69.7c.8 0 1.5.7 1.5 1.5s-.7 1.5-1.5 1.5-1.5-.7-1.5-1.5.6-1.5 1.5-1.5z"/>
  <path class="st13" d="M26 77.6h5.9v-10h9.6v10h5.9V52.7h-5.9v10h-9.6v-10H26v24.9zM54.2 77.6l1.6-5.2h8.4l1.6 5.2h6.3l-8.2-24.8h-7.8l-8.2 24.8h6.3zm3-9.8l2.7-8.8h.2l2.7 8.8h-5.6zM93.7 61.7c-.6-5.9-4.9-9.3-10.8-9.3-6.5 0-11.5 4.5-11.5 12.8 0 8.2 4.9 12.8 11.5 12.8 6.7 0 10.4-4.6 10.8-9h-5.9c-.4 2.4-2.2 3.8-4.7 3.8-3.5 0-5.6-2.6-5.6-7.5 0-4.7 2.1-7.5 5.7-7.5 2.7 0 4.4 1.6 4.7 4.1h5.8zM95 77.6h5.9v-6.7l2.3-3 6.1 9.8h7l-8.8-13.8 8.6-11.1h-6.9l-8 10.5h-.3V52.7H95v24.9z"/>
  <path class="st13" d="M116.3 77.5h25.9v2.9h-25.9zM148.5 77.6l1.6-5.2h8.4l1.6 5.2h6.3l-8.2-24.8h-7.8l-8.2 24.8h6.3zm3-9.8l2.7-8.8h.2l2.7 8.8h-5.6zM163.2 57.6h7.4v20h5.8v-20h7.4v-4.9h-20.5v4.9zM206.4 65.2c0-8.2-5.1-12.8-11.6-12.8s-11.6 4.5-11.6 12.8c0 8.2 5 12.8 11.6 12.8 6.5-.1 11.6-4.6 11.6-12.8zm-6 0c0 4.9-2.1 7.5-5.6 7.5-3.5 0-5.6-2.6-5.6-7.5s2.1-7.5 5.6-7.5c3.5 0 5.6 2.6 5.6 7.5zM207.8 52.7v24.8h5.7V62.2h.2l5.8 15.2h3.7l5.8-15.1h.2v15.3h5.7V52.7h-7.3l-6.2 15.4h-.3l-6.2-15.4h-7.1z"/>
</svg>
