<svg width="261" height="120" viewBox="0 0 261 120" fill="none" xmlns="http://www.w3.org/2000/svg">
<path fill-rule="evenodd" clip-rule="evenodd" d="M107.188 44.817V44.7775L81.594 30L56 44.7775V44.8344V49.8009V69.4535V74.3325V74.3895L60.3571 76.9184C60.359 76.9151 60.3608 76.9118 60.3627 76.9084L77.2443 86.6555C77.2418 86.6599 77.2394 86.6642 77.237 86.6685L81.594 89.167L81.5943 89.1668L85.9511 86.6685C85.9487 86.6642 85.9463 86.6599 85.9438 86.6555L102.848 76.8952C102.853 76.903 102.857 76.9107 102.861 76.9184L107.219 74.3895V69.4535H107.188V49.8009H107.219V44.8344L107.188 44.817ZM103.881 48.6203C104.068 48.7836 104.267 48.932 104.476 49.0641V70.1903C104.178 70.3787 103.9 70.6002 103.65 70.851C103.205 71.2955 102.853 71.8235 102.613 72.4046C102.388 72.9497 102.266 73.5314 102.253 74.1203L83.9037 84.7244C83.737 84.6421 83.566 84.5697 83.3916 84.5076L83.3628 64.3115C83.4457 64.2825 83.528 64.2512 83.6094 64.2176C84.1905 63.9777 84.7185 63.6254 85.163 63.1809C85.6075 62.7364 85.9598 62.2084 86.1996 61.6273C86.4395 61.0462 86.5621 60.4234 86.5605 59.7948V59.4291C86.5611 59.2034 86.5456 58.9784 86.5145 58.7558L103.881 48.6203ZM102.253 45.1341C102.256 45.2724 102.265 45.4103 102.28 45.5474L84.7533 55.6779C84.4058 55.4024 84.0209 55.1762 83.6094 55.0064C83.0283 54.7665 82.4055 54.6439 81.7769 54.6455H81.4112C80.7826 54.6439 80.1598 54.7665 79.5787 55.0064C79.1623 55.1782 78.7732 55.4078 78.4225 55.6877L60.9346 45.5798C60.9535 45.417 60.9641 45.253 60.9661 45.0886L79.2934 34.5217C79.9501 34.8485 80.6746 35.0208 81.4112 35.0234H81.7769C82.5159 35.0256 83.2438 34.856 83.9037 34.53L102.253 45.1341ZM58.7118 49.0832C58.8972 48.9681 59.0746 48.8403 59.2427 48.7007L76.671 58.7742C76.6416 58.9908 76.627 59.2096 76.6276 59.4291V59.7948C76.626 60.4234 76.7486 61.0462 76.9884 61.6273C77.2283 62.2084 77.5806 62.7364 78.0251 63.1809C78.4696 63.6254 78.9976 63.9777 79.5787 64.2176C79.6508 64.2473 79.7236 64.2753 79.7969 64.3014V84.5074C79.6224 84.5696 79.4512 84.642 79.2844 84.7244L60.9657 74.1381C60.9549 73.5432 60.8328 72.9552 60.6056 72.4046C60.3658 71.8235 60.0135 71.2955 59.569 70.851C59.3096 70.5917 59.0219 70.3637 58.7118 70.1712V49.0832ZM125.013 43.56H119.589V75.5526H125.013V43.56ZM141.497 43.56H130.436V75.5526H135.768V63.5782H141.588C143.965 63.5782 145.915 63.304 147.469 62.7555C148.854 62.312 150.117 61.5503 151.155 60.5313C152.037 59.5995 152.684 58.4716 153.044 57.2406C153.414 55.9634 153.599 54.6398 153.593 53.3101C153.597 52.0606 153.412 50.8177 153.044 49.6234C152.681 48.4473 152.032 47.3795 151.155 46.5155C150.272 45.6014 149.022 44.8702 147.469 44.3522C145.915 43.8342 143.904 43.56 141.497 43.56ZM144.848 58.7032C143.746 58.9995 142.607 59.133 141.466 59.0993H135.829V48.0694H141.466C142.584 48.0442 143.701 48.1671 144.787 48.4351C145.557 48.6167 146.276 48.971 146.89 49.471C147.404 49.9166 147.784 50.497 147.987 51.1468C148.206 51.9089 148.309 52.7 148.291 53.4929C148.29 54.2747 148.188 55.0531 147.987 55.8086C147.789 56.4796 147.422 57.0883 146.92 57.5758C146.33 58.1125 145.619 58.4992 144.848 58.7032ZM177.999 48.2218V43.56H157.584V75.5526H163.008V61.9633H177.115V57.2711H163.008V48.2218H177.999ZM188.236 70.3424C186.987 69.3978 186.225 67.8744 185.982 65.772H180.497C180.71 69.3673 182.021 72.0182 184.336 73.7549C186.652 75.4916 189.882 76.3448 193.964 76.3448C195.749 76.3782 197.528 76.1314 199.236 75.6135C200.613 75.1936 201.896 74.5107 203.014 73.6025C203.999 72.8078 204.774 71.7822 205.268 70.6166C205.762 69.4292 206.011 68.1546 206 66.8689C206 64.0352 205.208 61.8415 203.623 60.3485C202.039 58.8555 199.571 57.7891 196.189 57.1492L191.771 56.2961C189.851 55.9 188.51 55.382 187.749 54.6812C186.987 53.9804 186.621 52.9445 186.621 51.5429C186.624 50.9778 186.738 50.4186 186.957 49.8976C187.206 49.3412 187.594 48.8585 188.084 48.496C188.707 48.0503 189.411 47.7296 190.156 47.5515C191.205 47.3115 192.279 47.1989 193.355 47.2163C195.61 47.2163 197.225 47.6429 198.261 48.5265C199.297 49.4101 199.997 50.7203 200.424 52.5179L205.543 51.7257C205.372 50.5693 205.044 49.4417 204.568 48.3741C204.07 47.2944 203.355 46.3295 202.465 45.5405C201.4 44.6467 200.167 43.9735 198.839 43.56C197.346 43.042 195.488 42.7983 193.294 42.7983C191.673 42.7861 190.057 42.9702 188.48 43.3467C187.103 43.6653 185.8 44.2445 184.641 45.053C183.538 45.8078 182.644 46.8294 182.042 48.0228C181.44 49.2161 181.149 50.5424 181.198 51.8781C181.164 53.1969 181.381 54.5101 181.838 55.7477C182.247 56.7856 182.907 57.7065 183.757 58.4289C184.7 59.2025 185.773 59.801 186.926 60.1961C188.325 60.6878 189.762 61.0648 191.222 61.3235L195.305 62.0852C196.165 62.226 197.004 62.4716 197.804 62.8165C198.386 63.0805 198.914 63.4527 199.357 63.9134C199.712 64.3118 199.982 64.7783 200.15 65.2845C200.297 65.7682 200.369 66.2718 200.363 66.7775C200.373 67.4401 200.27 68.0996 200.058 68.7275C199.849 69.3408 199.481 69.8876 198.992 70.3119C198.392 70.7874 197.711 71.1489 196.981 71.3783C195.982 71.6707 194.944 71.8043 193.903 71.7744C191.405 71.7744 189.485 71.2869 188.236 70.3424Z" fill="white"/>
</svg>
