<svg viewBox="0 0 242 44" fill="none" xmlns="http://www.w3.org/2000/svg"><path d="M12.032 5.6c-1.782.432-3.409.985-4.862 1.918.294.467.657.847.796 1.296.502 1.538.138 2.886-1.004 4.026-1.297 1.296-3.547 1.693-5.121.899-1.09-.553-1.696-1.47-1.817-2.696-.173-1.883.606-3.42 1.851-4.751 1.644-1.78 3.72-2.869 5.935-3.75A31.052 31.052 0 0115.406.607c1.869-.225 3.755-.38 5.623-.518a30.05 30.05 0 016.593.224c2.474.346 4.862.968 6.92 2.471 2.043 1.486 3.08 3.525 3.202 6.03.156 3.128-.9 5.823-3.115 8.035-1.367 1.365-2.976 2.35-4.723 3.127-.537.242-.554.242-.346.778 1.228 3.403 2.976 6.53 5.312 9.313 3.149 3.749 6.973 6.548 11.696 8 2.423.742 4.931 1.088 7.458.898 1.28-.104 2.509-.432 3.443-1.4.83-.846 1.09-2.142.623-3.196-.502-1.123-1.419-1.607-2.63-1.607-.173 0-.329-.017-.537-.035.173-1.019.33-1.97.52-2.937.017-.12.207-.276.328-.276 1.28-.052 1.679-.968 1.852-1.936.501-2.712.951-5.442 1.436-8.155l1.66-9.296c.105-.535.191-1.07.26-1.624.07-.466-.086-.64-.553-.656a12.97 12.97 0 00-1.16 0c-.346.017-.415-.139-.363-.45.121-.656.225-1.295.329-1.952.052-.328.225-.501.519-.622l6.333-2.851c1.003-.45 2.007-.916 3.028-1.365.45-.207.553-.138.467.346-.19 1.14-.398 2.263-.606 3.403-.26 1.452-.519 2.92-.778 4.372-.26 1.486-.52 2.972-.796 4.458-.26 1.451-.502 2.885-.762 4.337-.276 1.52-.553 3.023-.813 4.544a378.13 378.13 0 00-.744 4.337c-.086.518-.173 1.019-.26 1.537-.155.743.139 1.59 1.142 1.573.312 0 .364.172.312.414-.156.864-.329 1.728-.484 2.592-.052.26-.208.26-.416.26h-2.89a3.55 3.55 0 00-.484.051c.433.242.779.415 1.09.622.45.311.917.605 1.333.968 1.574 1.365 1.747 3.058.709 5.028-.761 1.434-2.076 2.229-3.53 2.816-1.816.726-3.737 1.002-5.692 1.123-2.994.19-5.987.018-8.963-.397-3.945-.536-7.717-1.607-11.264-3.387-5.745-2.85-10.192-7.067-13.133-12.768-.761-1.47-1.315-3.059-1.955-4.596-.104-.26-.225-.398-.52-.398-.726 0-1.435-.034-2.162-.069-.242-.017-.363.07-.415.311-.294 1.693-.589 3.404-.9 5.097-.19 1.123-.415 2.23-.606 3.352-.207 1.227.173 2.056 1.212 2.47.346.14.709.226 1.09.26.882.104.882.104.726.968-.12.656-.242 1.296-.328 1.952-.052.398-.19.57-.64.536-2.06-.121-4.119-.311-6.16-.311-2.578 0-5.157.173-7.735.276-.069 0-.138.018-.207.018-.64.017-.623.017-.52-.588.139-.777.277-1.555.381-2.332.035-.294.156-.415.45-.467.502-.086 1.021-.155 1.523-.311 1.16-.363 1.644-1.296 1.834-2.402.519-2.833 1.038-5.65 1.522-8.483.433-2.471.848-4.925 1.28-7.396.485-2.781 1.004-5.546 1.489-8.31.07-.208.086-.45.121-.813zm6.35 11.542c.087.035.121.07.173.07 1.886.103 3.755.051 5.554-.536 1.592-.518 2.924-1.417 3.841-2.851.9-1.417 1.194-2.99 1.16-4.648-.035-2.125-1.28-3.68-3.322-4.233-1.61-.432-3.236-.346-4.845-.328-.139 0-.346.207-.38.345-.122.415-.174.847-.243 1.262-.26 1.45-.484 2.92-.744 4.37-.311 1.798-.657 3.595-.969 5.392-.121.38-.173.777-.225 1.157zM133.032 14.119c.657-1.21 1.609-2.056 2.889-2.505.952-.346 1.938-.45 2.942-.415.294.017.328.173.294.397-.121.76-.242 1.504-.381 2.246-.138.813-.329 1.642-.45 2.454-.052.415-.242.363-.553.346-.554-.052-1.125-.104-1.662-.018-1.02.156-1.539.899-1.799 1.832-.26.898-.398 1.831-.675 2.713-.848 2.643-2.664 4.388-5.243 5.356-2.128.795-4.325.916-6.557.656-.571-.069-1.108.294-1.194.795-.104.588.138 1.002.779 1.14 1.107.208 2.249.363 3.374.519 1.989.242 3.979.415 5.952.708 1.228.19 2.336.709 3.062 1.815.467.743.606 1.555.571 2.401-.138 2.903-1.574 5.046-3.927 6.652-1.731 1.193-3.686 1.867-5.728 2.281-2.266.45-4.55.588-6.834.467-2.163-.121-4.309-.38-6.298-1.33-1.142-.554-2.129-1.297-2.561-2.558-.537-1.572.052-3.317 1.419-4.389 1.124-.88 2.439-1.382 3.772-1.866.207-.086.38-.103.225-.414-.969-1.953-.364-5.236 1.955-6.843.311-.224.64-.432.969-.639.415-.26.415-.276.017-.57-1.229-.95-2.094-2.16-2.526-3.663a7.315 7.315 0 01-.035-3.957c.883-3.49 3.218-5.564 6.593-6.583 2.145-.64 4.325-.691 6.505-.276 1.973.362 3.651 1.313 4.828 3.006.034.052.086.121.138.173.017 0 .052.017.139.069zm-5.953 2.903c-.051-.294-.103-.812-.224-1.33-.312-1.227-1.488-1.694-2.509-.916a4.61 4.61 0 00-1.09 1.295c-.831 1.452-1.108 3.076-1.142 4.717-.018.692.052 1.4.415 2.04.398.69 1.038.984 1.782.76.727-.225 1.142-.813 1.488-1.435.848-1.503 1.177-3.162 1.28-5.131zm-6.575 22.686c1.194.052 2.509-.034 3.79-.38.778-.207 1.557-.45 2.163-1.02.501-.449.415-.984-.208-1.191a8.704 8.704 0 00-1.644-.363c-2.197-.26-4.429-.363-6.558-1.002a.687.687 0 00-.415.034c-.502.242-1.003.484-1.488.778-.588.362-1.055.864-.934 1.606.121.76.778.968 1.419 1.158 1.211.363 2.474.397 3.875.38z" fill="#000"></path><path d="M159.778 10.335c-.467 0-.917-.017-1.384 0-.363.017-.502-.086-.432-.466.138-.743.242-1.486.069-2.264-.294-1.365-1.107-2.315-2.388-2.799-1.765-.674-3.547-.605-5.312.086-2.647 1.054-3.062 4.355-1.453 6.272.917 1.089 2.093 1.884 3.201 2.765 1.782 1.4 3.599 2.73 5.329 4.199 1.436 1.21 2.665 2.626 3.391 4.406.589 1.468.744 2.972.571 4.527-.225 2.16-1.003 4.095-2.422 5.753-1.54 1.78-3.495 2.92-5.727 3.611-1.938.605-3.945.847-5.97.795-2.595-.069-5.052-.725-7.423-1.762-.899-.398-1.851-.709-2.785-1.037-.329-.12-.71-.155-1.056-.173-.45 0-.502-.224-.484-.604.069-1.227.138-2.437.173-3.663.052-1.884.069-3.767.086-5.65.018-.657 0-.657.641-.657.865 0 1.73.017 2.595 0 .329 0 .484.07.536.432.225 1.624.606 3.196 1.419 4.63 1.332 2.368 3.357 3.68 6.073 3.923 1.956.172 3.738-.173 5.174-1.624 1.817-1.832 1.696-4.821-.294-6.428-2.025-1.641-4.136-3.18-6.16-4.803a34.995 34.995 0 01-3.045-2.73c-1.419-1.452-2.111-3.249-2.267-5.27-.381-5.045 2.371-9.106 7.077-10.851 2.491-.916 5.052-1.089 7.665-.864 1.315.121 2.63.328 3.928.553 1.367.242 2.733.38 4.118.346.501-.018.501.017.38.518-.501 2.16-.986 4.32-1.47 6.48-.139.621-.243 1.243-.364 1.865-.052.329-.19.519-.571.484-.467-.017-.934 0-1.419 0zM101.452 32.71c.138-.777.277-1.52.398-2.28.017-.121.069-.26.069-.38-.017-.432.208-.553.605-.588.623-.052 1.108-.397 1.315-.985.208-.587.364-1.209.485-1.831.433-2.28.83-4.544 1.228-6.825.104-.57.191-1.14.225-1.71.035-1.072-.674-1.573-1.591-1.037-1.004.604-1.921 1.365-2.855 2.09-.122.104-.173.329-.208.502-.381 2.125-.727 4.25-1.107 6.375-.104.622-.26 1.244-.33 1.866-.12 1.089.122 1.383 1.177 1.573.225.034.295.12.26.345-.156.864-.294 1.728-.433 2.592-.034.242-.173.328-.415.328H90.153c-.26 0-.38-.086-.329-.363.156-.88.312-1.762.502-2.626.017-.104.19-.242.312-.276 1.038-.173 1.557-.622 1.782-1.642.207-.933.363-1.883.536-2.833.329-1.85.658-3.715.986-5.564l.208-1.14c.07-.484-.104-.709-.606-.726-.38-.017-.778 0-1.159 0-.26 0-.38-.07-.329-.363.139-.743.243-1.503.398-2.246.035-.138.19-.277.33-.346 2.975-1.313 5.968-2.626 8.962-3.922.138-.052.294-.052.519-.104-.19 1.193-.363 2.316-.536 3.439.034.017.069.034.103.069.173-.121.346-.225.519-.346 1.264-.933 2.509-1.883 3.963-2.522 1.315-.588 2.682-.847 4.118-.484 1.592.397 2.422 1.503 2.803 3.024.329 1.365.173 2.747-.069 4.112-.277 1.503-.537 3.006-.796 4.492l-.935 5.27c-.034.225-.069.45-.069.691 0 .691.364 1.054 1.038 1.14.502.053.519.087.416.588a54.527 54.527 0 00-.433 2.333c-.052.276-.156.363-.415.363H101.85c-.156 0-.26-.018-.398-.052zM198.92 17.592c.156-.95.294-1.797.467-2.643.018-.121.191-.242.329-.311 2.993-1.314 5.987-2.61 8.963-3.923.121-.051.277-.034.415-.069.017.138.052.294.035.432-.139.847-.277 1.71-.416 2.558-.017.138-.017.276-.034.518.242-.156.38-.26.536-.363 1.419-1.037 2.803-2.125 4.464-2.747 1.367-.519 2.769-.674 4.17-.139 1.263.484 1.938 1.486 2.267 2.748.381 1.434.208 2.85-.052 4.285-.277 1.52-.536 3.024-.813 4.544l-.935 5.27c-.017.12-.051.225-.051.345-.087.83.294 1.314 1.107 1.365.363.018.45.173.381.484-.139.76-.312 1.52-.416 2.298-.052.432-.259.501-.657.501-2.094-.017-4.187 0-6.264 0h-3.46c-.173 0-.329-.017-.554-.034a129.8 129.8 0 01.363-2.108c0-.035.018-.052.018-.087.052-.622.19-1.019.986-1.14.917-.138 1.176-1.02 1.332-1.832.433-2.367.848-4.751 1.263-7.135.121-.726.277-1.434.364-2.16a2.024 2.024 0 00-.104-.847c-.139-.397-.675-.622-1.09-.466a5.258 5.258 0 00-1.038.518 30.488 30.488 0 00-2.094 1.607c-.173.138-.294.397-.346.605-.208 1.07-.381 2.142-.571 3.23-.26 1.504-.519 3.007-.796 4.51-.052.26-.087.519-.104.778-.034.864.26 1.227 1.108 1.313.328.035.398.155.346.466a53.665 53.665 0 00-.416 2.42c-.034.259-.138.38-.415.38h-10.243c-.052 0-.104-.018-.242-.052.069-.484.138-.95.225-1.434.086-.501.173-.985.311-1.486.035-.121.208-.277.329-.294 1.003-.155 1.488-.536 1.73-1.538.225-.915.363-1.866.536-2.799l.779-4.458c.138-.777.294-1.555.415-2.332.104-.622-.069-.795-.709-.812-.433.034-.883.034-1.419.034zM176.527 23.294c.087-3.438 1.315-6.773 4.049-9.451 2.336-2.281 5.174-3.335 8.461-3.197 1.938.087 3.755.553 5.312 1.745 1.505 1.158 2.44 2.678 2.924 4.51a13.481 13.481 0 01-.034 7.084c-1.125 4.06-3.461 7.17-7.51 8.691-3.097 1.158-6.229 1.089-9.17-.587-1.852-1.054-2.942-2.73-3.547-4.752-.329-1.21-.467-2.436-.485-4.043zm13.704-4.596c-.017-.346-.017-.916-.086-1.469-.052-.363-.173-.725-.295-1.07-.501-1.297-1.695-1.59-2.716-.623a6.52 6.52 0 00-1.09 1.382c-1.298 2.298-1.782 4.838-1.938 7.447-.069 1.054-.087 2.091.19 3.128.467 1.71 1.834 2.108 3.046.812.519-.553.951-1.244 1.28-1.935 1.107-2.367 1.505-4.89 1.609-7.672zM35.458 23.605c.052-3.68 1.246-6.912 3.824-9.555 2.37-2.42 5.278-3.56 8.686-3.404 1.696.069 3.305.45 4.758 1.347 1.696 1.072 2.838 2.592 3.357 4.493 1.229 4.458.502 8.604-2.267 12.337-1.695 2.28-3.962 3.784-6.782 4.337-2.336.449-4.62.345-6.8-.674-2.128-1.002-3.478-2.696-4.187-4.89-.45-1.313-.606-2.644-.589-3.991zm7.51 1.21c0 1.83.138 2.59.484 3.282.415.812 1.108 1.123 1.886.83a2.53 2.53 0 00.848-.57c.865-.83 1.35-1.884 1.765-2.973.657-1.745.969-3.56 1.124-5.425.104-1.227.139-2.436-.259-3.629-.485-1.434-1.61-1.831-2.751-.829-.571.501-1.038 1.192-1.384 1.9-1.246 2.489-1.644 5.184-1.713 7.413zM221.188 24.9c.173-3.61 1.124-6.91 3.425-9.744 1.731-2.143 3.928-3.56 6.627-4.182 1.904-.449 3.824-.518 5.728.035 2.56.76 4.152 2.47 4.792 5.045.329 1.313.312 2.644 0 3.974a.7.7 0 01-.38.45c-4.049 1.624-8.115 3.23-12.181 4.855-.641.259-.658.293-.346.898.571 1.089 1.574 1.469 2.716 1.538 1.229.069 2.388-.242 3.461-.795 1.055-.535 2.041-1.157 3.045-1.797.346-.224.502-.19.692.156.502.846 1.021 1.658 1.54 2.488.138.207.19.397-.052.604-2.007 1.797-4.135 3.422-6.731 4.286-2.734.915-5.485 1.053-8.184-.104-1.99-.847-3.184-2.436-3.685-4.51-.225-1.054-.294-2.142-.467-3.196zm7.595-3.783c.243-.052.312-.07.381-.087 1.592-.656 3.184-1.33 4.758-2.004.156-.069.329-.242.346-.397.087-.795.208-1.607.173-2.402-.017-.657-.225-1.296-.986-1.52-.709-.19-1.298.138-1.817.57-1.09.898-1.678 2.142-2.145 3.42-.26.778-.45 1.556-.71 2.42zM71.97 32.762c-1.644 0-3.288-.017-4.932 0-.398 0-.501-.103-.432-.5.156-.778.26-1.556.415-2.333.035-.156.225-.38.38-.415 1.09-.207 1.593-.674 1.8-1.831.364-2.04.71-4.078 1.073-6.117l1.142-6.324.934-5.39c.07-.415.156-.813.208-1.227.086-.57-.07-.743-.623-.76-.38 0-.779-.018-1.16 0-.259 0-.328-.104-.293-.346.138-.743.26-1.469.415-2.212.034-.155.19-.328.329-.397 3.131-1.434 6.28-2.851 9.43-4.285.536-.242.605-.173.519.397-.242 1.452-.502 2.886-.762 4.337l-.623 3.525c-.26 1.468-.519 2.937-.778 4.423-.26 1.451-.52 2.92-.761 4.371-.26 1.504-.537 3.007-.796 4.493-.26 1.469-.52 2.937-.762 4.423-.086.45-.155.898-.225 1.365-.138.985.173 1.4 1.142 1.538.26.034.346.138.312.397-.156.847-.329 1.694-.45 2.54-.052.328-.242.328-.485.328H71.97z" fill="#000"></path><path d="M179.348 11.752c-.087.19-.139.311-.208.415-.657 1.037-1.332 2.056-1.972 3.093-.191.293-.416.38-.744.38-1.298-.018-2.596 0-3.893-.018-.329 0-.502.052-.554.45-.433 2.643-.917 5.27-1.367 7.896-.121.708-.242 1.417-.346 2.125-.035.19-.035.398-.052.605-.017 1.348.692 1.624 1.869 1.33.882-.224 1.574-.829 2.266-1.382.468-.38.485-.38.762.173.38.76.726 1.538 1.124 2.28.121.242.07.38-.103.554-1.54 1.503-3.236 2.781-5.347 3.369-1.678.466-3.391.587-5.052-.104-1.488-.605-2.354-1.745-2.717-3.3-.329-1.382-.156-2.747.104-4.112.329-1.763.623-3.542.934-5.305.243-1.382.467-2.782.727-4.164.069-.345-.052-.432-.381-.432-.64.018-1.297 0-1.938 0-.294 0-.398-.103-.346-.397.139-.778.243-1.555.416-2.333.034-.172.242-.363.398-.466 2.612-1.642 5.225-3.249 7.838-4.873.796-.5 1.592-.985 2.387-1.468.139-.087.312-.104.468-.156.017.173.069.363.034.518-.259 1.59-.536 3.18-.83 4.752-.069.38.034.501.432.501 1.852-.017 3.686 0 5.537 0 .173.035.312.052.554.07zM80.345 17.592c.173-.933.311-1.78.484-2.61.035-.137.19-.293.33-.345 3.148-1.313 6.28-2.626 9.43-3.922.415-.173.518-.086.45.38l-.572 3.266c-.329 1.849-.657 3.715-.986 5.563-.329 1.797-.658 3.594-.97 5.391a73.27 73.27 0 00-.449 2.817c-.121.83.26 1.296 1.09 1.365.346.034.415.172.346.466-.156.812-.277 1.607-.415 2.42-.052.258-.173.38-.467.38-3.34-.018-6.697 0-10.036 0-.294 0-.432-.07-.363-.398.156-.812.277-1.642.45-2.454.034-.155.207-.362.346-.397 1.107-.207 1.609-.657 1.816-1.78.364-2.004.71-4.026 1.056-6.03.19-1.088.38-2.177.588-3.265.121-.64-.052-.864-.692-.864-.432.017-.9.017-1.436.017zM92.422 5.22c.086 1.953-1.333 3.698-3.063 4.372-1.384.553-2.803.674-4.187.035-1.142-.536-1.661-1.52-1.748-2.765-.19-2.885 2.319-5.045 5-5.097.71-.017 1.489.086 2.146.346 1.263.483 1.852 1.572 1.852 3.11z" fill="#000"></path></svg>